<svg data-name="Layer 1" xmlns="http://www.w3.org/2000/svg" width="1013.03" height="845"><path d="M957 270.31c0 35.17-8.33 64.12-22.78 88.92a177.68 177.68 0 01-16.2 23.25c-53.11 64.97-151.87 100.53-241.13 158.13-263.48 170.02-292.02-102.42-280.12-270.3 4.8-67.74 31.18-129.79 73.09-177.3a278.22 278.22 0 0128.45-27.97C545.89 24.52 607.36 0 676.89 0c119.29 0 221.16 71.95 261.55 173.34A261.85 261.85 0 01957 270.31z" fill="#bf360c"/><path d="M736.57 60.92L469.86 93.01a278.22 278.22 0 0128.45-27.97zm197.65 298.31a177.68 177.68 0 01-16.2 23.25L689.58 355zm13.54-158.01L560.56 151l377.88 22.34a260.44 260.44 0 019.32 27.88z" fill="#d0cde1"/><path d="M423.03 72c0 .7-.02 1.37-.08 2.04a28 28 0 11-52.68-15.1 25.74 25.74 0 012.06-3.32 27.99 27.99 0 0150.6 14.1c.07.75.1 1.51.1 2.28z" fill="#bf360c"/><path d="M423.03 72c0 .7-.02 1.37-.08 2.04L381.03 69l41.9.72c.07.75.1 1.51.1 2.28zm-10 14.11l-38.78 4.67a28.06 28.06 0 01-2.96-3.95zm-11-31l-31.76 3.82a25.74 25.74 0 012.06-3.3z" fill="#d0cde1"/><path d="M806.77 576.13c-.33.6-.66 1.2-1.03 1.76a28 28 0 11-39.45-38.04 25.74 25.74 0 013.37-1.96 27.99 27.99 0 0138.09 36.18c-.3.7-.62 1.38-.98 2.06z" fill="#bf360c"/><path d="M806.77 576.13c-.33.6-.66 1.2-1.03 1.76l-34.67-24.1 36.68 20.28c-.3.7-.62 1.38-.98 2.06zm-15.45 7.77l-36.45-14.05a28.06 28.06 0 01-.76-4.88zm4.81-32.54l-29.84-11.51a25.74 25.74 0 013.37-1.96z" fill="#d0cde1"/><path d="M1005.08 93.45c.48.5.94 1 1.37 1.52a28 28 0 11-48.27 25.96 25.74 25.74 0 01-.83-3.8 27.99 27.99 0 0146.07-25.24 24.54 24.54 0 011.66 1.56z" fill="#bf360c"/><path d="M1005.08 93.45c.48.5.94 1 1.37 1.52l-33.53 25.66 30.5-28.74a24.53 24.53 0 011.66 1.56zm2.7 17.09l-24.51 30.42a28.06 28.06 0 01-4.88-.77zm-29.53-14.52l-20.07 24.91a25.74 25.74 0 01-.83-3.8z" fill="#d0cde1"/><path d="M479.78 609.45s61.45 2.56 61.45 17.92-69.13 0-69.13 0z" fill="#a0616a"/><path d="M387.61 845l-115.2-7.69-5.13-61.44-25.6 53.76-112.65-15.36c2.56-97.29 43.52-192.02 46.08-204.82s8.68-65.7 8.68-65.7c11.19-23.73 69.82-25.95 115.78-23.8 19.04.87 35.94 2.5 46.36 3.68 6.89.77 10.96 1.34 10.96 1.34 18.36 18.92 30.18 44.7 37.46 73.5C420.56 702.24 387.6 845 387.6 845z" fill="#2f2e41"/><circle cx="259.6" cy="187.01" r="64.01" fill="#a0616a"/><path d="M216.08 202.38s-17.93 79.36-46.09 102.4 110.1 0 110.1 0-30.73-51.2-7.69-74.24-56.32-28.16-56.32-28.16z" fill="#a0616a"/><path d="M346.65 530.09l-42.48 4.7-118.82 13.22-1.56-4.25c-8.63-23.53-50.18-138.02-54.76-172.4-5.12-38.41 48.64-84.5 48.64-84.5s51.2-10.24 66.57-10.24 76.8 23.05 76.8 23.05l22.92 206.12 1.97 17.84z" fill="#d0cde1"/><path d="M394.35 598.47l-86.1-50.46-4.08-13.21-4.6-14.85c-9.94-31.9-26.6-84.54-39.97-123-20.48-58.88 79.37 104.97 79.37 104.97l4.99 3.87 1.97 17.84c6.89.77 10.96 1.34 10.96 1.34 18.36 18.92 30.18 44.7 37.46 73.5z" opacity=".15"/><path d="M280.08 304.79s-25.6 33.28-5.12 92.16 48.65 151.06 48.65 151.06l148.49 87.05 20.48-25.6-138.25-107.54s-5.12-194.57-30.72-202.25-43.53 5.12-43.53 5.12z" fill="#d0cde1"/><path d="M153.35 528.8s35.84 74.25 51.2 66.57-38.4-84.49-38.4-84.49z" fill="#a0616a"/><path d="M149.51 325.27L13.81 437.92s-51.2 35.84 43.53 61.44 102.41 40.97 102.41 40.97 10.24-33.29 23.04-28.17L72.7 458.4l89.61-53.76z" fill="#d0cde1"/><path d="M94.97 239.55c7.13-3.53 22.85-10.65 36.25-19.22-.94-27.9 2.5-53.22 12.55-66.65 5.64-12.81 17.5-25.65 26.78-35.75 22.8-24.82 73.21-38.67 82.15-26.27C320.33 93 327.45 146 327.45 146c-.35 22.18-23.4 22.88-43.58 22.07 1.8 15.14-3.01 30.86-16.96 37.84-26.68 13.34-34.68 30.68-21.34 42.68s37.34 44.02 5.33 52.02-36.01 24-26.68 30.68-21.34-12-21.34-12-5.33 32-33.34 24c-2.51-.72-5.02-2.55-7.49-5.3-7.56 8.3-14.31 13.22-19.4 13.25-29.13.15-25.63-32.11-25.63-32.11s-34.58 9.71-23.8 5.8 11.26-20.39-17.4-36.73 3.07-40.69 19.15-48.65z" fill="#2f2e41"/><path d="M452.38 323.18l-.46-.06 1.13 4.3a113.18 113.18 0 004.65 17.68l33.23 126.31a21.4 21.4 0 0017.43 15.71l67.76 10.48a21.4 21.4 0 0022.15-11.05l64.39-120.28a113 113 0 005.5-10.28l2.2-4.09-.35-.04a113.85 113.85 0 10-217.63-28.68z" fill="#3f3d56"/><path d="M580.28 505.86a23.3 23.3 0 01-3.57-.28l-70.83-10.96a23.37 23.37 0 01-19.03-17.15l-34.73-132.03a119.06 119.06 0 01-4.88-18.55l-.88-5.78a120.03 120.03 0 01137.4-133.86l-.31 1.97a118.07 118.07 0 00-134.93 132.92l.67 4.32a118.28 118.28 0 004.84 18.4l34.76 132.1a21.37 21.37 0 0017.4 15.69l70.83 10.95a21.4 21.4 0 0022.11-11.03l1.77.94a23.42 23.42 0 01-20.62 12.35z" fill="#d0cde1"/><path fill="#d0cde1" d="M555.15 469.56l43.1-117.67 2.42.89-43.1 117.67zm-29.86-128.44l2.59-.12 5.5 125.2-2.59.1z"/><path d="M574.29 565.71l-90.76-14.04a2.59 2.59 0 01.8-5.11l90.75 14.04a2.59 2.59 0 11-.79 5.11zm2.33-19.27l-90.76-14.04a2.59 2.59 0 11.79-5.12l90.76 14.04a2.59 2.59 0 11-.8 5.12zm2.32-19.28l-90.75-14.04a2.59 2.59 0 01.79-5.1l90.75 14.03a2.59 2.59 0 01-.79 5.12z" fill="#3f3d56"/><path d="M526.09 576.93c18 2.78 34.15-5 36.06-17.37l-65.19-10.09c-1.91 12.38 11.13 24.67 29.13 27.46z" fill="#3f3d56"/><path d="M558.71 327.1c-3.87-.6-7.07-3.66-8.83-5.71-.57-.67-1.14-1.37-1.7-2.07-2.04-2.55-3.97-4.95-6.66-6.2-5.94-2.78-12.94 1.1-19 5.24l-1.46-2.13c6.66-4.56 14.43-8.78 21.55-5.46 3.24 1.5 5.45 4.26 7.59 6.93a84.63 84.63 0 001.65 2c1.82 2.14 5.47 5.6 9.37 4.8a12.6 12.6 0 004.5-2.38 24.08 24.08 0 013.17-2 12.67 12.67 0 0113.91 1.96 25.02 25.02 0 011.89 2c1.16 1.32 2.26 2.57 3.7 3.03 2.1.67 4.34-.54 6.7-1.81 2.45-1.32 4.97-2.68 7.84-2.35l.28.04c5.1.79 7.44 6.42 8.77 10.63l-2.47.78c-1.8-5.72-4-8.56-6.89-8.88-2.05-.24-4.1.87-6.3 2.05-2.73 1.48-5.56 3-8.72 2-2.12-.67-3.51-2.26-4.86-3.8a22.8 22.8 0 00-1.68-1.78 10.16 10.16 0 00-11.02-1.56 21.84 21.84 0 00-2.83 1.8 14.7 14.7 0 01-5.47 2.8 8.5 8.5 0 01-3.03.07z" fill="#d0cde1"/></svg>