<svg data-name="Layer 1" xmlns="http://www.w3.org/2000/svg" width="1013" height="845"><path d="M957 270.3c0 35.2-8.3 64.1-22.8 89a177.7 177.7 0 01-16.2 23.2C865 447.5 766.1 483 677 540.6c-263.5 170-292-102.4-280.1-270.3a299.5 299.5 0 0173-177.3 278.2 278.2 0 0128.5-28C546 24.5 607.3 0 677 0 796.2 0 898 72 938.4 173.3a261.8 261.8 0 0118.6 97z" fill="#2874ca"/><path d="M736.6 61L469.9 93a278.2 278.2 0 0128.4-28zM934.2 359.2a177.7 177.7 0 01-16.2 23.3L689.6 355zM947.8 201.2L560.6 151l377.8 22.3a260.4 260.4 0 019.4 28z" fill="#d0cde1"/><path d="M423 72v2a28 28 0 11-52.7-15 25.7 25.7 0 012-3.4A28 28 0 01423 69.7l.1 2.3z" fill="#2874ca"/><path d="M423 72v2l-42-5 42 .7V72zM413 86.1l-38.7 4.7a28 28 0 01-3-4zM402 55.1L370.3 59a25.7 25.7 0 012-3.3z" fill="#d0cde1"/><path d="M806.8 576.1l-1 1.8a28 28 0 11-39.5-38 25.7 25.7 0 013.4-2 28 28 0 0138 36.2c-.2.7-.6 1.3-1 2z" fill="#2874ca"/><path d="M806.8 576.1l-1 1.8-34.7-24.1 36.6 20.3c-.2.7-.6 1.3-1 2zM791.3 583.9l-36.4-14a28 28 0 01-.8-5zM796.1 551.4l-29.8-11.5a25.7 25.7 0 013.4-2z" fill="#d0cde1"/><path d="M1005 93.5c.6.4 1 1 1.4 1.5a28 28 0 11-48.2 26 25.7 25.7 0 01-.9-3.9 28 28 0 0146.1-25.2l1.7 1.6z" fill="#2874ca"/><path d="M1005 93.5c.6.4 1 1 1.4 1.5L973 120.6l30.5-28.7 1.7 1.6zM1007.8 110.5L983.3 141a28 28 0 01-5-.8zM978.3 96l-20.1 25a25.7 25.7 0 01-.9-3.9z" fill="#d0cde1"/><path d="M479.8 609.5s61.4 2.5 61.4 17.9-69.1 0-69.1 0z" fill="#a0616a"/><path d="M387.6 845l-115.2-7.7-5.1-61.4-25.6 53.7L129 814.3c2.6-97.3 43.6-192 46.1-204.8s8.7-65.7 8.7-65.7c11.2-23.8 69.8-26 115.8-23.9a714.6 714.6 0 0157.3 5c18.3 19 30.2 44.8 37.4 73.6 26.3 103.7-6.7 246.5-6.7 246.5z" fill="#2f2e41"/><circle cx="259.6" cy="187" r="64" fill="#a0616a"/><path d="M216 202.4s-17.8 79.3-46 102.4 110 0 110 0-30.6-51.2-7.6-74.3-56.3-28.1-56.3-28.1z" fill="#a0616a"/><path d="M346.6 530l-42.4 4.8L185.4 548l-1.6-4.2c-8.6-23.6-50.2-138-54.8-172.4-5-38.5 48.7-84.5 48.7-84.5s51.2-10.3 66.5-10.3 76.8 23 76.8 23l23 206.2 2 17.8z" fill="#d0cde1"/><path d="M394.3 598.5l-86-50.5-4.1-13.2-4.6-14.9c-10-31.9-26.6-84.5-40-123-20.5-58.8 79.4 105 79.4 105l5 3.9 2 17.8 10.9 1.4c18.3 18.9 30.2 44.7 37.4 73.5z" opacity=".1"/><path d="M280 304.8s-25.5 33.3-5 92.2 48.6 151 48.6 151l148.5 87 20.5-25.5-138.3-107.6s-5-194.6-30.7-202.2-43.5 5-43.5 5z" fill="#d0cde1"/><path d="M153.4 528.8s35.8 74.3 51.2 66.6-38.4-84.5-38.4-84.5z" fill="#a0616a"/><path d="M149.5 325.3L13.8 437.9s-51.2 35.9 43.5 61.5 102.5 41 102.5 41 10.2-33.4 23-28.2L72.7 458.4l89.6-53.8z" fill="#d0cde1"/><path d="M95 239.5c7.1-3.5 22.8-10.6 36.2-19.2-1-27.9 2.5-53.2 12.6-66.6 5.6-12.8 17.5-25.7 26.8-35.8 22.7-24.8 73.2-38.6 82.1-26.2 67.6 1.3 74.7 54.3 74.7 54.3-.3 22.2-23.3 22.9-43.5 22 1.8 15.2-3 31-17 38-26.7 13.2-34.7 30.6-21.3 42.6s37.3 44 5.3 52-36 24-26.7 30.7-21.3-12-21.3-12-5.4 32-33.4 24c-2.5-.7-5-2.6-7.4-5.3-7.6 8.3-14.4 13.2-19.4 13.2-29.2.2-25.7-32-25.7-32s-34.6 9.6-23.8 5.7 11.3-20.4-17.4-36.7 3-40.7 19.2-48.7z" fill="#2f2e41"/><path d="M452.4 323.2h-.5l1.2 4.2a113.2 113.2 0 004.6 17.7l33.2 126.3a21.4 21.4 0 0017.5 15.7l67.7 10.5a21.4 21.4 0 0022.2-11l64.4-120.3a113 113 0 005.5-10.3l2.2-4.1h-.4a113.8 113.8 0 10-217.6-28.7z" fill="#3f3d56"/><path d="M580.3 505.9a23.3 23.3 0 01-3.6-.3l-70.8-11a23.4 23.4 0 01-19-17.1l-34.8-132a119 119 0 01-4.9-18.6l-.8-5.8a120 120 0 01137.4-133.9l-.3 2a118 118 0 00-135 133l.7 4.3a118.3 118.3 0 004.8 18.4l34.8 132a21.4 21.4 0 0017.4 15.7l70.8 11a21.4 21.4 0 0022.1-11l1.8 1a23.4 23.4 0 01-20.6 12.3z" fill="#d0cde1"/><path fill="#d0cde1" d="M555.2 469.6l43-117.7 2.5 1-43.1 117.6zM525.3 341.1l2.6-.1 5.5 125.2h-2.6z"/><path d="M574.3 565.7l-90.8-14a2.6 2.6 0 01.8-5.1l90.8 14a2.6 2.6 0 11-.8 5.1zM576.6 546.4l-90.7-14a2.6 2.6 0 11.8-5.1l90.7 14a2.6 2.6 0 11-.8 5.1zM579 527.2l-90.8-14a2.6 2.6 0 01.8-5.2l90.7 14a2.6 2.6 0 01-.8 5.2z" fill="#3f3d56"/><path d="M526 577c18 2.7 34.2-5 36.2-17.4L497 549.5c-2 12.4 11 24.6 29 27.4z" fill="#3f3d56"/><path d="M558.7 327.1c-3.9-.6-7-3.7-8.8-5.7l-1.7-2c-2-2.6-4-5-6.7-6.3-6-2.8-13 1.1-19 5.3l-1.4-2.2c6.6-4.5 14.4-8.8 21.5-5.4 3.2 1.5 5.5 4.2 7.6 6.9l1.6 2c1.9 2.1 5.5 5.6 9.4 4.8a12.6 12.6 0 004.5-2.4 24 24 0 013.2-2 12.7 12.7 0 0113.9 2 25 25 0 011.9 2c1.2 1.3 2.3 2.6 3.7 3 2.1.7 4.3-.5 6.7-1.8 2.4-1.3 5-2.7 7.8-2.3h.3c5.1.8 7.5 6.4 8.8 10.6l-2.5.8c-1.8-5.7-4-8.6-6.9-8.9-2-.2-4 .9-6.3 2-2.7 1.6-5.5 3-8.7 2-2.1-.6-3.5-2.2-4.9-3.7a22.8 22.8 0 00-1.6-1.8 10.2 10.2 0 00-11-1.6 21.8 21.8 0 00-2.9 1.8 14.7 14.7 0 01-5.5 2.8 8.5 8.5 0 01-3 .1z" fill="#d0cde1"/></svg>