<svg data-name="Layer 1" xmlns="http://www.w3.org/2000/svg" width="1097.1" height="811.8"><defs><linearGradient id="a" x1="593.1" y1="855.9" x2="593.1" y2="67.9" gradientUnits="userSpaceOnUse"><stop offset="0" stop-color="gray" stop-opacity=".3"/><stop offset=".5" stop-color="gray" stop-opacity=".1"/><stop offset="1" stop-color="gray" stop-opacity=".1"/></linearGradient></defs><g opacity=".1"><path d="M878.5 575.1s-78.4-10.1-20 116.6c0 0 53.3-22.8 55.4-74.2a41 41 0 00-34.3-42.2z" fill="#2874ca"/><path d="M879.6 575s17.7 70.6-21 116.7" fill="none" stroke="#535461" stroke-miterlimit="10"/><path d="M857.5 698.3s28.2-69.5 81-95.3a113.7 113.7 0 0051.5-50.1 191.1 191.1 0 0013-32.5" fill="none" stroke="#535461" stroke-miterlimit="10" stroke-width="2"/><path d="M1036 504c-5.5 6.9-33.9 17-33.9 17s3.5-30 9-36.9a16 16 0 1125 20zM1026.3 558.6c-8.4 2.9-37.7-4.1-37.7-4.1s19.2-23.3 27.5-26.1a16 16 0 1110.2 30.3zM973.4 623.3c-8.6-1.8-30.4-22.7-30.4-22.7s28.3-10.4 37-8.6a16 16 0 01-6.6 31.3zM922.4 663.1c-8.8-.3-33.8-17.1-33.8-17.1s26.1-15.1 35-14.8a16 16 0 01-1.2 32zM961.3 534.9c1.1 8.8 20.2 32 20.2 32s12.6-27.3 11.5-36a16 16 0 10-31.7 4zM902.3 582.3c3.6 8 28.8 24.6 28.8 24.6s3.8-30 .1-38a16 16 0 10-29 13.5zM851.2 636.3c2.2 8.5 24.3 29 24.3 29s8.8-28.8 6.5-37.3a16 16 0 10-30.8 8.3z" fill="#2874ca"/><path d="M1036 504c-5.5 6.9-33.9 17-33.9 17s3.5-30 9-36.9a16 16 0 1125 20zM1026.3 558.6c-8.4 2.9-37.7-4.1-37.7-4.1s19.2-23.3 27.5-26.1a16 16 0 1110.2 30.3zM973.4 623.3c-8.6-1.8-30.4-22.7-30.4-22.7s28.3-10.4 37-8.6a16 16 0 01-6.6 31.3zM922.4 663.1c-8.8-.3-33.8-17.1-33.8-17.1s26.1-15.1 35-14.8a16 16 0 01-1.2 32zM961.3 534.9c1.1 8.8 20.2 32 20.2 32s12.6-27.3 11.5-36a16 16 0 10-31.7 4zM902.3 582.3c3.6 8 28.8 24.6 28.8 24.6s3.8-30 .1-38a16 16 0 10-29 13.5zM851.2 636.3c2.2 8.5 24.3 29 24.3 29s8.8-28.8 6.5-37.3a16 16 0 10-30.8 8.3z" opacity=".3"/><path d="M895.1 729.9s28.2-69.5 80.9-95.3a113.7 113.7 0 0051.6-50 191.1 191.1 0 0012.9-32.6" fill="none" stroke="#535461" stroke-miterlimit="10" stroke-width="2"/><path d="M1073.5 535.6c-5.4 6.9-33.9 17-33.9 17s3.5-30 9-36.9a16 16 0 0125 20zM1063.8 590.3c-8.3 2.8-37.7-4.2-37.7-4.2s19.2-23.3 27.5-26.1a16 16 0 0110.2 30.3zM1011 654.9c-8.7-1.8-30.5-22.6-30.5-22.6s28.3-10.5 37-8.7a16 16 0 01-6.5 31.3zM960 694.7c-8.9-.3-33.9-17.1-33.9-17.1s26.2-15 35-14.8a16 16 0 01-1.2 32zM998.8 566.5c1.2 8.8 20.2 32.1 20.2 32.1s12.6-27.4 11.5-36.1a16 16 0 10-31.7 4zM939.8 613.9c3.7 8 28.9 24.6 28.9 24.6s3.8-30 0-38a16 16 0 00-29 13.4zM888.7 667.9c2.3 8.5 24.3 29 24.3 29s8.8-28.7 6.5-37.3a16 16 0 00-30.8 8.3z" fill="#2874ca"/></g><path d="M11.8 430C29.2 504.2 66 568.3 124 599.4c120.7 64.6 393 31.3 596.1-7a465.2 465.2 0 00264.5-151.2zM1077.2 80.7H965.7a9.6 9.6 0 110-19.3H985a9.6 9.6 0 010-19.2h-13.8a9.6 9.6 0 010-19.3h58.2c-12.9-6-28-10.3-45.4-12.5-158.6-20.4-215.2-7-235.2 7A222.2 222.2 0 01667.2 53c-97.9 20.2-280.9 44.5-446.8-7.8-82.5-26-143.8 18-180.5 91.3h1056.6c-1.3-21.3-5.5-41-13-58.2a9.6 9.6 0 01-6.3 2.3zM2.4 275.1a491 491 0 004.3 129.5l978.7 35.7a460 460 0 0068-103.7zm387 92.3h-19.2a9.6 9.6 0 010 19.3H258.7a9.6 9.6 0 110-19.3H278a9.6 9.6 0 010-19.2h-13.8a9.6 9.6 0 010-19.3h111.5a9.6 9.6 0 110 19.3h13.8a9.6 9.6 0 010 19.2zM1096.6 137.3l-1068.5 26A427 427 0 002.5 273.6H1078a456.5 456.5 0 0015.5-70.3c3.2-23 4.5-45.3 3.2-66zm-877.1 85.2h-19.3a9.6 9.6 0 010 19.2H88.7a9.6 9.6 0 110-19.2H108a9.6 9.6 0 010-19.3H94.2a9.6 9.6 0 010-19.3h111.5a9.6 9.6 0 110 19.3h13.8a9.6 9.6 0 010 19.3z" fill="#2874ca" opacity=".1"/><path d="M990.1 855.4s-44.5-244.4-129.5-284c-72-33.7-149.9-56.4-172-62.5a95.6 95.6 0 00-11.4-14.9c-30.3-31.6-48.4-31-51.4-30.6a153.8 153.8 0 01-3-19l-.2-3h.2l-.5-6a150.6 150.6 0 0033.8-24.5l.4 1.3q32.7-27.7 64-56.8c6-5.6 12.4-11.7 14.4-19.6a28.8 28.8 0 00.8-8.4c.2-6-1.2-12-1.4-18.2 0-1 0-1.9.2-2.8 1.4-10 8.3-18.2 14-26.5a124.8 124.8 0 0021.2-71.5 121 121 0 00-5-36c-4.4-14.8-13.6-30.4-29-33.6-5.9-1.3-12-.5-18.1-.9-25.1-1.6-43.9-22-64-37a168.6 168.6 0 00-83.5-32.4 67 67 0 00-28.2 2c-20.2 6.7-32.4 27.5-51.9 36-14.4 6.3-31 5.3-46 10-22.3 7.2-41.3 30-41.8 53.6v3c-.2 12 4 24 4.4 36.2v3.3c0 13.2-1.7 26.3-6.5 38.7-2.5 6.6-5.9 14.3-5.3 21a14 14 0 003.3 11l4.8-4.3a146 146 0 00-2.4 26.6c0 45 20.4 85.2 52.7 112.3l.5 9.6c.8 14.8 1.4 33.4 1.2 53.7l-47.1 43.3-121.3 55s-110.9 23.4-87 179.2l11.4 96.7h101.2l-.2.5h150.3v-.5h357.5v.5h14v-.5zM626.7 465.9a104 104 0 017.2 19.8 81.1 81.1 0 01-7.8-21l.2.4zm-171.8 20l-.1 5.7-.3.4a49 49 0 01.4-6.2z" transform="translate(-51.5 -44.1)" fill="url(#a)"/><path d="M614.8 466.3l-20 191-107 34s-139-26-103-101c25.6-53.4 24.9-148.7 22.4-199.3-1-20.5-2.4-33.7-2.4-33.7s182-159 167-16c-2.9 27.7-3 49.3-1.5 66.3 6.8 70.4 44.5 58.7 44.5 58.7z" fill="#fdc2cc"/><path d="M571.8 338.3c-2.9 27.7-3 49.3-1.5 66.3A145 145 0 01407.2 388c-1-20.5-2.4-33.7-2.4-33.7s182-159 167-16z" opacity=".1"/><circle cx="500.8" cy="271.3" r="145" fill="#fdc2cc"/><path d="M924.8 811.3h-752l-11-95c-23-153 84-176 84-176l117-54 46.5-43.5c-15 57 98.5 175.5 98.5 175.5a26.9 26.9 0 002-2.1 974 974 0 0027.6-32.5l22.4-27.4c42.8-52.6 20.8-114.7 14.2-127.6l-.4-.8-.6-1a1.6 1.6 0 00-.1-.3 1.6 1.6 0 01-.1-.2l55 43 6 1.6c21.4 6 96.6 28.3 166 61.4 82 38.9 125 278.9 125 278.9z" fill="#2874ca"/><path d="M668.8 582.3c-9-9-70-20-70-20 2 24-72 61-72 61l5.5 188h-35.5l-6-169 17-24 2-2.1a330 330 0 0027.6-32.5l22.4-27.4c42.8-52.6 20.8-114.7 14.3-127.6l-.4-.8a17 17 0 00-.6-1 1.6 1.6 0 00-.2-.3 1.6 1.6 0 010-.2s18-4 50 30a93.8 93.8 0 0111 14.6c26 41.8 42.8 119.2 34.9 111.3z" fill="#2874ca"/><path d="M668.8 582.3c-9-9-70-20-70-20 2 24-72 61-72 61l5.5 188h-35.5l-6-169 17-24 2-2.1a330 330 0 0027.6-32.5l22.4-27.4c42.8-52.6 20.8-114.7 14.3-127.6l-.4-.8a17 17 0 00-.6-1 1.6 1.6 0 00-.2-.3 1.6 1.6 0 010-.2s18-4 50 30a93.8 93.8 0 0111 14.6c26 41.8 42.8 119.2 34.9 111.3zM261.8 659.3s47 96 49.5 152.5M773.8 714.3l-13.5 97.5h13.5v-97.5z" opacity=".1"/><path d="M272.3 811.8l74.5-169.5s21-40 26-80 32-103 32-103 67-85 98-73-27 57-27 57 85 33 27 131-59 80-59 80l-28.5 157.5z" opacity=".1"/><path d="M270.3 811.8l74.5-169.5s21-40 26-80c3.2-25.4 15.3-60.2 23.6-82a125.9 125.9 0 0123.7-39c21.7-24.3 61-63.4 82.7-55 31 12-27 57-27 57s85 33 27 131-59 80-59 80l-28.5 157.5z" fill="#fdc2cc"/><circle cx="545.3" cy="189.8" r="3" fill="#fff" opacity=".1"/><circle cx="531.3" cy="195.8" r="3" fill="#fff" opacity=".1"/><path d="M397.8 88.6c14.5-4.7 30.5-3.7 44.4-10 18.8-8.3 30.6-28.7 50-35.3 8.8-3 18.2-2.8 27.3-1.9a161 161 0 0180.7 31.9c19.3 14.7 37.4 34.7 61.6 36.3 5.8.3 11.8-.4 17.5.8 14.9 3.2 23.7 18.5 28 33A124.3 124.3 0 01691.7 246c-5.5 8.2-12.2 16.2-13.6 26-1.3 9.6 2.8 19.5.4 28.9a43 43 0 01-13.8 19.3q-30.3 28.6-61.8 55.7c-11-34.8 5-72.2 2.6-108.5-1-14.2-6-29.7-18.5-36.3-11.7-6.3-26.7-3-38.5-9-13.2-6.7-18.6-22.4-28.6-33.3-17-18.6-46.5-21-70.3-12.6s-43.2 25.6-62 42.5l-34.1 30.6c-6.7-7.5-1.6-19 2-28.4 5.3-14.1 6.5-29.3 6.2-44.3-.3-12-4.5-23.8-4.2-35.5.5-23 18.7-45.6 40.3-52.5z" opacity=".1"/><path d="M397.8 85.6c14.5-4.7 30.5-3.7 44.4-10 18.8-8.3 30.6-28.7 50-35.3 8.8-3 18.2-2.8 27.3-1.9a161 161 0 0180.7 31.9c19.3 14.7 37.4 34.7 61.6 36.3 5.8.3 11.8-.4 17.5.8 14.9 3.2 23.7 18.5 28 33A124.3 124.3 0 01691.7 243c-5.5 8.2-12.2 16.2-13.6 26-1.3 9.6 2.8 19.5.4 28.9a43 43 0 01-13.8 19.3q-30.3 28.6-61.8 55.7c-11-34.8 5-72.2 2.6-108.5-1-14.2-6-29.7-18.5-36.3-11.7-6.3-26.7-3-38.5-9-13.2-6.7-18.6-22.4-28.6-33.3-17-18.6-46.5-21-70.3-12.6s-43.2 25.6-62 42.5l-34.1 30.6c-6.7-7.5-1.6-19 2-28.4 5.3-14.1 6.5-29.3 6.2-44.3-.3-12-4.5-23.8-4.2-35.5.5-23 18.7-45.6 40.3-52.5z" fill="#865a61"/></svg>