<svg data-name="Layer 1" xmlns="http://www.w3.org/2000/svg" width="1135.2" height="712.9"><path d="M1128 491c-11.4 27.5-35.2 52.2-60.8 75.6q-33.7 31-72.1 59.7-10.7 8-21.7 15.9l-5 3.5-13.8 9.5-.6.4-13.7 9.2c-15 9.9-31 19.7-48.6 27.8-6 2.8-12.2 5.4-18.6 7.7q-5.2 2-10.6 3.6a199.2 199.2 0 01-41.3 8c-24.4 2.2-49.5.6-74-3.3-12.1-1.9-24.2-4.3-35.8-7.1l-4.3-1c-39.5-10-76.7-23.4-116.5-32.8q-20.6-4.9-42-8.3-10.5-1.7-21-3c-16.6-2-33.4-3.4-50.2-4.1a307 307 0 00-67.8 3.4q-4.3.7-8.5 1.7-5.4 1.3-10.5 2.9a186.6 186.6 0 00-27 11l-5 2.6c-5.3 2.7-10.5 5.5-15.8 8.1a200 200 0 01-29.8 12.7 157.5 157.5 0 01-17 4.3c-15.3 3-31.6 4.3-48 4.4-7.8 0-15.7-.2-23.4-.6h-.3l-8-.5c-12.1-.8-24.3-2.1-36.2-3.9-41-6-79.7-17.3-111-34.6C26.9 640.3 0 605.3 4 570.3c2.9-25.2 21-48.6 38-71.5 31.8-42.7 61.6-86.3 77.2-132.3 12.8-37.3 16.5-76.8 45.8-110.3a153.3 153.3 0 0135.3-29.2 225.4 225.4 0 0132.7-16.5 282.5 282.5 0 0139.4-12.8 313.5 313.5 0 0135.3-6.7c6.4-.8 13-1.5 19.6-1.9q7.6-.5 15.2-.7H352.6a437 437 0 0168 6.4c14 2.4 28 5.3 41.6 8.4q12.3 2.9 24.3 6l7.3 1.9c56.9 15.2 107 36.3 161.8 53.6l.8.2a337.9 337.9 0 0034.3 8.6c8.5 1.7 17.1 3.2 26 4.5 13.5 2 27.3 3.6 41.2 5l3 .2c20.5 2 41 3.5 61 5.2l21.2 2 13 1.5 9.4 1 9.6 1.2 6.2.9a983.5 983.5 0 0160.1 9.8l16 3.5q5.9 1.3 11.7 2.8a360.3 360.3 0 0185.8 32.1c65.6 36.1 95 95.5 73.1 147.9z" fill="#2874ca" opacity=".1"/><circle cx="249" cy="68.8" r="21.6" fill="#2874ca" opacity=".1"/><circle cx="691.1" cy="21.6" r="21.6" fill="#2874ca" opacity=".1"/><circle cx="953.3" cy="70.1" r="21.6" fill="#2874ca" opacity=".1"/><circle cx="36.3" cy="121.1" r="36.3" fill="#2874ca" opacity=".1"/><circle cx="71" cy="300.1" r="36.3" fill="#2874ca" opacity=".1"/><circle cx="1043.9" cy="234.2" r="36.3" fill="#2874ca" opacity=".1"/><path d="M354.3 239.4a39 39 0 01-.5 9c-2 9.3-10.4 15.7-18.6 20.6s-17.2 9.4-22 17.6c-6 9.8-4 23 2.8 32.3s17.8 14.7 29 17c20.6 4.2 43-1.7 58.4-15.9s23-36.4 19.3-57c-8.4 1.2-15.8-6.2-18.5-14.2s-2.1-16.6-3.2-25a8.6 8.6 0 00-1.2-4c-1.2-1.6-3.3-2.2-5.2-2.8-9.6-2.6-25.9-8.4-35.8-6.2-9 2-4.6 21-4.4 28.6z" fill="#be6f72"/><path d="M354.3 239.4a39 39 0 01-.5 9c-2 9.3-10.4 15.7-18.6 20.6s-17.2 9.4-22 17.6c-6 9.8-4 23 2.8 32.3s17.8 14.7 29 17c20.6 4.2 43-1.7 58.4-15.9s23-36.4 19.3-57c-8.4 1.2-15.8-6.2-18.5-14.2s-2.1-16.6-3.2-25a8.6 8.6 0 00-1.2-4c-1.2-1.6-3.3-2.2-5.2-2.8-9.6-2.6-25.9-8.4-35.8-6.2-9 2-4.6 21-4.4 28.6z" opacity=".1"/><path d="M342.7 682a200 200 0 01-29.7 12.7 157.5 157.5 0 01-17.1 4.3 107.5 107.5 0 011.2-23c.8-4.3 2-8.7 2.3-13a34.4 34.4 0 00-4-18.5c11.2-1.6 21.7-4 33-3.3h.6a12.5 12.5 0 014 .8 10.5 10.5 0 014.2 3.7 25.6 25.6 0 011.6 2.4 39 39 0 014.6 18.3 121.4 121.4 0 01-.7 15.7zM401 657.4q-5.3 1.3-10.5 2.9a186.6 186.6 0 00-26.9 11 39.7 39.7 0 01-.8-8.2 46.2 46.2 0 0135.4-7.3 4.7 4.7 0 012.2 1 3 3 0 01.6.6z" fill="#be6f72"/><path d="M418.2 607a76.8 76.8 0 01-4 19.2c-2.5 6.6-6.6 13-6 20 .2 3.1 1.2 6.4 1.4 9.5l-8.6 1.7q-5.3 1.3-10.5 2.9a186.6 186.6 0 00-26.8 11l-5.1 2.6-2.1-.3c-5-1-10.3-3.2-13.1-7.2a11.5 11.5 0 01-1.5-3c-1.7-4.8 0-10.9-3.3-14.8l-.2.2h-.1a33.6 33.6 0 01-6.1 4.4 40.8 40.8 0 01-33 3.2 36.2 36.2 0 01-6.2-2.8c-4.6-2.6-9-7-8.6-12.2.2-3 1.8-5.7 1.4-8.6-.3-2-1.7-3.8-2.7-5.6-6.7-12 1.3-27.5-3-40.5l-.3-1-1-2.4c-.8-2-1.8-3.8-2.5-5.8a33.5 33.5 0 01-1.5-5 63.5 63.5 0 01-1-15.3c0-13.4 2.4-27.1 5.8-40l2.2-9.2a69.6 69.6 0 013.5-10.9c2-4.6 4.7-8.3 8.5-9.1 5.6-1.3 14.1 1.4 19.8 2.1l22.4 2.7 45 5.4a49.4 49.4 0 0123.5 7.2 25.3 25.3 0 014.5 4.6l1.3 1.9a41.6 41.6 0 013.7 7c5.5 13.4 5.7 28.3 5.7 42.8 0 15.1 0 30.3-1.5 45.3z" fill="#3f3d56"/><path d="M332.1 653.3c-1.3-5.2-4.2-12.7-4.6-14.8a187.5 187.5 0 01-3-20.8c-1.2-12.5-3.2-30 1.2-41.9 4.2 2.2 7.8 8.5 9.7 12.7 7 15.4-.8 34.4 5.7 50a8.2 8.2 0 01.8 3 7.3 7.3 0 01-1.3 3.6l-2.2 3.7z" opacity=".1"/><path d="M476.2 177.6c7.3-12 17.4-23.8 16.8-37.9-.3-5-1.9-9.9-3.2-14.8a94.4 94.4 0 01-.6-43.2 48.9 48.9 0 0135.3 7.9c3.3 2.2 6.4 5 7.8 8.8 1.4 3.4 1.1 7.2.9 10.8-.6 8.5-1.3 17.4-6.5 24-1.6 2.1-3.6 3.9-5.1 6-2.3 3-3.7 6.6-5 10.2l-17 46.2c-8.6 23.3-17.9 47.7-36.8 63.9-.4.3-14-18.9-15-20.8-4.6-8-2.6-11.3 2.8-17.9 10.9-13 16.7-28.9 25.6-43.2z" fill="#be6f72"/><path d="M281.3 571.8a76.8 76.8 0 01-.8 10.3l-.7 3.7c-3.4 17.8-11.9 34.8-17.8 52.1a302.6 302.6 0 00-14 65.5c-7.9 0-15.8-.2-23.5-.6h-.3l-8-.5c2.4-21.2-2-43.4 2.3-64.7 1.8-8.5 4.7-16.8 6.5-25.3a71.7 71.7 0 001.3-7.6c.2-2.4.3-4.9 1.4-7a5.2 5.2 0 01.4-.7 17.1 17.1 0 013.5-4 87.8 87.8 0 0143-20.5c2.3-.3 4.5-.6 6.7-.7z" fill="#fbbebe"/><path d="M281.3 571.8a76.8 76.8 0 01-.8 10.3l-.7 3.7c-3.4 17.8-11.9 34.8-17.8 52.1a302.6 302.6 0 00-14 65.5c-7.9 0-15.8-.2-23.5-.6h-.3l-8-.5c2.4-21.2-2-43.4 2.3-64.7 1.8-8.5 4.7-16.8 6.5-25.3a71.7 71.7 0 001.3-7.6c.2-2.4.3-4.9 1.4-7a5.2 5.2 0 01.4-.7 17.1 17.1 0 013.5-4 87.8 87.8 0 0143-20.5c2.3-.3 4.5-.6 6.7-.7z" opacity=".1"/><path d="M230.6 617.3a156.7 156.7 0 01-1.3 16.6c-2.7 22.6-3.2 46-5 68.9l-8-.5c-12.2-.8-24.3-2.1-36.3-3.9l2.8-15.4a83.6 83.6 0 002-19c-.3-6.1-2-12-3.2-18-2.8-12.7-4.3-26.4-8.9-38.3a50 50 0 00-11-18c18.7-7.4 36.7-7.8 56.9-7a7.2 7.2 0 014 1 6.9 6.9 0 012 3 77.6 77.6 0 015.7 22.9 74.8 74.8 0 01.3 7.7z" fill="#fbbebe"/><circle cx="381.6" cy="195.2" r="39" fill="#be6f72"/><path d="M389.7 286.3c5-8.5 9.4-19.1 19-21.5 5.4-1.4 11 .5 16.4 2.3a8 8 0 014 2.3 7.9 7.9 0 011.2 4.1 271 271 0 01-.2 53c-1.3 12.5-3.4 25-3.8 37.5-.5 17.3 2.3 34.7 1.4 52-.7 13.2-3.6 26.1-6.4 39l-12 53.8a9.2 9.2 0 01-2 4.5 9 9 0 01-3.5 2 131.8 131.8 0 01-106.6-8.3 32.3 32.3 0 01-11.5-9.2c-4-5.8-4.4-13.4-3-20.3s4-13.4 6-20.2c2.8-10.5 3.5-21.4 4.2-32.3.9-14.3 1.7-28.8.2-43-1-9.9-3.2-19.5-4.9-29.3a322.7 322.7 0 01-4.2-44.4c-.2-8.9.2-18.8 6.3-25.2 3-3.1 7-5 11-6.5 7-2.5 14.5-4 21.4-1.7s12.5 9.5 10.9 16.6c-.8 3.3-2.9 6.2-3.4 9.5-.7 4.5 1.6 9 5 11.9 18 16.3 45.5-11.1 54.5-26.6z" fill="#e3e8f4"/><path d="M391.1 246.5a29.5 29.5 0 0117.1-1c3.6.9 7.5 2.4 10.9.8 1.2-.6 2.2-1.6 3.4-2.1 3.3-1.5 7.6.3 10.5-1.8 1.8-1.3 2.4-3.7 3-6a53.4 53.4 0 0117.7-26.7c-1 7.7-1.8 16.4 3.2 22.3 2.3 2.7 5.6 4.3 8.9 5.6 4.7 1.9 9.8 3.1 14.8 2.1s9.6-4.8 10.4-9.8c-.1 7.6-7.3 12.8-9.3 20-.8 2.8-.7 5.7-1.2 8.5-1.4 7-6.5 12.8-10.9 18.5a131.8 131.8 0 00-26.2 63.2 30.5 30.5 0 01-1.7 8 50.3 50.3 0 01-3.3 5.7c-7.3 12.4-5 28-2.6 42.2 3.9 22.1 7.8 43.8 14 65.4 1.2 3.7 2.4 7.6 5.1 10.3-.8 8.7-9.7 12.7-17.6 16.4a86.3 86.3 0 00-21.4 14.5 16.9 16.9 0 00-5.3 7.5c-.8 2.8-.3 5.9-1.3 8.6s-5 4.7-6.7 2.4c-2.2-8.2 1.5-16.8 1.4-25.4-.1-5.7-2-11.3-2.3-17a54.7 54.7 0 013.7-19.1c5.7-17.2 12.5-34.3 14.5-52.3s-1.7-37.7-14.5-50.5c-15.1-15.4-23.6-36.1-39.8-50.2-2.6-2.2-5.5-5-5-8.4a9.3 9.3 0 011.8-4c5.6-8 13-14.3 19-21.9s10.8-16.2 9.7-25.8zM337.7 262.6c-1 1-1.6 2.4-2.8 3.3a9.4 9.4 0 01-4.5 1.4 145.2 145.2 0 01-17.8 1.5c-5 0-10.2-.4-15 1-6.7 1.9-12 7.2-15.4 13.3s-5 13-6.2 19.8a265.7 265.7 0 00-4.6 46 120.7 120.7 0 0021.9-22.7c4.8-6.6 9.1-13.8 16-18.1 3.1-2 6.6-3.3 9.8-5.3 6.6-4 11.2-10.6 15.6-17 3.2-4.7 12.6-13.9 13.4-19.5.6-5.4-6.9-8-10.4-3.7zM372.6 168.5a31.6 31.6 0 013.5 2.5c6.8 4.7 15.9 3.8 24.1 2.7a18 18 0 007.3-2c3.4-2.1 5-6.5 4.7-10.6s-2.4-7.8-4.9-11a39.6 39.6 0 00-27.3-14.9 17.6 17.6 0 00-8.2.9c-3.2 1.3-5.7 4-8.6 5.9-8.8 5.4-22.4 3-28 11.6-4.2 6.4-1.2 15-3.2 22.3-1.4 5.5-5.7 10.4-4.8 16 .4 3 2.3 5.6 3.8 8.3a36.7 36.7 0 014.6 20.2c3.8 2.8 9.2-1.5 10.3-6s-.2-9.5.7-14.1c1.6-8.1 8.8-14 12-21.5 2.3-5.4 6.1-14.4 14-10.3z" fill="#3f3d56"/><path d="M278 257.3c-.3 1.8-.5 3.8.5 5.3 2 3 6.6 2 10.2 2.4 5.6.7 9.8 6 10.9 11.6s-.3 11.2-1.7 16.7q-4.8 18.6-11.5 36.7c-11.9-1.4-24.5-6-30.8-16.1-5.8-9.3-5.2-21.1-8.8-31.4a78.4 78.4 0 00-11.8-19.7c7.4.9 12.6-7.5 13-14.9s-1.9-14.8-.3-22c.4-1.8 29.3 3.6 32 5.6 8.2 5.6-.4 18-1.7 25.8z" fill="#fbbebe"/><path d="M278 257.3c-.3 1.8-.5 3.8.5 5.3 2 3 6.6 2 10.2 2.4 5.6.7 9.8 6 10.9 11.6s-.3 11.2-1.7 16.7q-4.8 18.6-11.5 36.7c-11.9-1.4-24.5-6-30.8-16.1-5.8-9.3-5.2-21.1-8.8-31.4a78.4 78.4 0 00-11.8-19.7c7.4.9 12.6-7.5 13-14.9s-1.9-14.8-.3-22c.4-1.8 29.3 3.6 32 5.6 8.2 5.6-.4 18-1.7 25.8z" opacity=".1"/><circle cx="271.6" cy="206.2" r="39" fill="#fbbebe"/><path d="M259.6 251.7c1.4-2.3-1-5.4 0-7.7.7-1.5 2.4-2.1 3.7-3a13.5 13.5 0 003.8-5 56.8 56.8 0 005.2-37.9c-1-4.3-1.8-10 2.2-12a7.2 7.2 0 013.5-.6c7.1.2 14 5 20.9 3.3a12 12 0 008.8-10.4c.4-6.5-4.4-12-9.2-16.4-8.5-7.9-21.6-9.6-33.2-9.8l-21.7-.4c-7-.1-14.7.1-19.5 5-7 7.2-3.4 19-4.4 28.9a30 30 0 01-11 20.1c-4.5 3.6-10.7 7-10.6 12.7 0 2 .8 3.8 1.4 5.7 2.2 7.5 0 15.8-4.2 22.3s-10.4 11.6-16.8 16c-3.5 2.4-7 4.6-9.8 7.8a23 23 0 00-5 13 17 17 0 002 10.4c4.3 6.8 14.5 7.7 21.4 3.8s11.2-11.3 14-18.8c1.7-4.4 3.4-9.5 7.7-11.5 5.5-2.5 11.8 1.5 15.4 6.4s5.7 10.7 10.2 14.7a18.3 18.3 0 0025.2-2.1c4.3-5.2 5.2-12.4 5-19.2a28 28 0 00-5-15.3z" fill="#3f3d56"/><path d="M273.6 302.5c-4.5 1-9.1-1.2-12.4-4.3s-5.6-7.2-7.9-11.1a195.6 195.6 0 00-20.1-28c-6.6-7.5-15.7-15.2-25.5-12.9a24.1 24.1 0 00-8.9 4.8 64.7 64.7 0 00-24.1 57.8c.7 6.3 2.5 12.6 3.2 19a121.8 121.8 0 01.4 15.8c-.3 16.1-.8 33.2-9.5 46.8-13.5 21-20.7 46-30.6 69a235.5 235.5 0 00-11.7 38.7l-5.5 23.3-12.1 51a34 34 0 00-1.2 16c2 7.8 9.4 13.2 17.1 15.5s16 1.8 24.1 1.9c15.4.1 31 2 45.5 7.4 4.1 1.6 8.3 3.4 12.7 3.7s8.8-.7 13-2.3c11.2-4.4 20.8-12 31.2-18.2a123.7 123.7 0 0120.4-9.9c3.6-1.3 7.4-2.6 9.8-5.5 1.9-2.2 2.7-5 3.3-7.8 3.4-15.8 1.1-32.1 0-48.2s-10.7-33-2.7-47c1.6-3 3.5-5.6 4.3-8.8 1-4 .2-8.5 1-12.6.7-3 2.4-5.8 3.5-8.8a46 46 0 002.1-16.3 178.8 178.8 0 00-3.8-36c-3.1-15 7.3-29.8 13.3-44 2.1-5 5.1-9.8 6-15.3.8-4.9-.2-9.8-1-14.8a129.5 129.5 0 01-1.4-23c.2-6.9 1-13.9-.7-20.6s-6.4-13.2-13.1-14.6a5.4 5.4 0 00-4.6.7 5.8 5.8 0 00-1.5 2.8c-2.2 6.8-1.8 14-3 21s-2.7 13.3-9.6 14.8z" fill="#f86d70"/><path d="M179.2 345.4c.4-2.7-.9-6.4-3.7-6.3-2.6 0-3.7 3.3-3.7 6s.4 5.5-1.5 7.3c-1.6 1.6-4.3 1.6-6.1 2.9a5 5 0 00-2.2 4.1c0 1.4.7 2.8.7 4.1s-.9 3-2.3 3a6.3 6.3 0 001 7.6c.7.7 1.6 1.3 1.8 2.2a5.5 5.5 0 01-.1 2c-.4 2.8 1.5 6 4.2 6.2-1.5 1.1-1.2 3.7.2 5s3.5 1.6 5.4 1.6a32.6 32.6 0 0012.6-2.7 7.5 7.5 0 003.5-2.4 3 3 0 00-.3-3.8c2 .3 4.2.5 5.5-1 1.8-2.1-.1-5.2-2-7.3a4 4 0 001.9-7.1c-.7-.5-1.5-.9-1.6-1.7s.6-1.3.8-2c.7-1.5-.8-3.1-2.2-4-3.3-2.3-8.2-2.3-11.2-4.5s-1.1-6.2-.7-9.2z" fill="#be6f72"/><path d="M385.5 193.7a47.3 47.3 0 01-7.3.2 1.6 1.6 0 00-1.7 1.3l-4.7 35a14.2 14.2 0 01-3 6.8 15 15 0 00-3.4 11.5v59.3s-.3 7.9 5.8 7.9a87.8 87.8 0 0021.9 0s4.8-1 4.8-8.2V249a14.3 14.3 0 00-3-11.6 14.5 14.5 0 01-2.9-6.8l-4.8-35.6a1.6 1.6 0 00-1.7-1.4z" fill="#3f3d56"/><path d="M385.5 193.7a47.3 47.3 0 01-7.3.2 1.6 1.6 0 00-1.7 1.3l-4.7 35a14.2 14.2 0 01-3 6.8 15 15 0 00-3.4 11.5v59.3s-.3 7.9 5.8 7.9a87.8 87.8 0 0021.9 0s4.8-1 4.8-8.2V249a14.3 14.3 0 00-3-11.6 14.5 14.5 0 01-2.9-6.8l-4.8-35.6a1.6 1.6 0 00-1.7-1.4z" opacity=".1"/><rect x="367.1" y="249.6" width="29.5" height="49.8" rx="11.1" fill="#2874ca"/><path d="M484.6 43a46 46 0 01-6.7 3 1.6 1.6 0 00-1 2l9 34a14.1 14.1 0 010 7.4 15 15 0 001.3 12L510 156s2.8 7.4 8.4 5.1a87.1 87.1 0 0020.2-8.5s4.1-2.7 1.3-9.4l-22.5-53.8a14.3 14.3 0 00-7.2-9.6 14.6 14.6 0 01-5.3-5.2l-18.2-31a1.6 1.6 0 00-2.1-.6z" fill="#3f3d56"/><rect x="530" y="187.6" width="29.5" height="49.8" rx="11.1" transform="rotate(-22.7 295 246.7)" fill="#2874ca"/><path d="M204 252.7c-10.8 4.4-15 18.2-12.5 29.5s10 20.8 17.5 29.8l20.7 25.3c5.8 7 12 14.4 20.8 16.8 12.7 3.6 25.5-4.5 36.6-11.9a551.5 551.5 0 01105.1-54.8c3.6-1.4 7.3-2.8 10.3-5.3 6.2-5.2 7.9-14.7 4.5-22s-11.5-12-19.5-12-15.9 4.2-20.7 10.6c-2.3 3-4 6.6-6.3 9.7a61.1 61.1 0 01-23 17 588.6 588.6 0 01-64 28c-4 1.5-8.5 3-12.3 1a15 15 0 01-5.3-5.6 140 140 0 01-15-32.2c-2.8-8.5-5-17.8-11.6-23.8a22.9 22.9 0 00-33 4s-8.2 12-3.2 17 10.8-21.1 10.8-21.1zM764.8 211.3c1.5 3.9 1.5 8.2 1.3 12.3-.3 5-1.5 11-6.2 13-3.1 1.2-6.9.2-9.6 2.1-3.3 2.2-3.1 7-2.6 11 1.4 10.8 3 22 8.9 31.2 3.1 5 7.4 9 11.8 13a69.4 69.4 0 0029.5 18 12.4 12.4 0 005.7.2 11.8 11.8 0 005-3c6.6-6 10-14.7 14.4-22.5 3-5.6 6.8-11 8.5-17.2a30 30 0 00-9.1-30.3c-2-1.6-4.1-3-6-4.8-5-4.4-7.9-10.9-9-17.4s-1-13.3-.5-20c-10-.8-19.9.4-29.7 2.4-4.3.8-10.4 1.2-14.3 3.3-4.5 2.3.7 5.4 1.9 8.7z" fill="#fbbebe"/><path d="M764.8 211.3c1.5 3.9 1.5 8.2 1.3 12.3-.3 5-1.5 11-6.2 13-3.1 1.2-6.9.2-9.6 2.1-3.3 2.2-3.1 7-2.6 11 1.4 10.8 3 22 8.9 31.2 3.1 5 7.4 9 11.8 13a69.4 69.4 0 0029.5 18 12.4 12.4 0 005.7.2 11.8 11.8 0 005-3c6.6-6 10-14.7 14.4-22.5 3-5.6 6.8-11 8.5-17.2a30 30 0 00-9.1-30.3c-2-1.6-4.1-3-6-4.8-5-4.4-7.9-10.9-9-17.4s-1-13.3-.5-20c-10-.8-19.9.4-29.7 2.4-4.3.8-10.4 1.2-14.3 3.3-4.5 2.3.7 5.4 1.9 8.7z" opacity=".1"/><path d="M709 240.7c-16.2-5.5-24-27.3-41-29.7-2.7-.4-5.4-.3-8-.9-9.9-2.3-14-13.6-16.9-23.3-9.5-32.2-22-63.6-39.7-92.2-7.5-12-19.3-21.8-24.7-35-1.2-3-1.8-6.4-4-8.7s-7-2.8-8.3.3a7 7 0 00-.2 3.3l1.2 12.4-20.4-1.8a11.9 11.9 0 00-5.6.4 9.6 9.6 0 00-4.4 4.6c-7 13 .4 29.9 12.6 38 14.1 9.6 34.4 11 43.8 25.3 5.6 8.5 5.7 19.4 9.4 28.9 1.8 4.5 4.3 8.7 6.4 13 3.9 8.4 5.9 17.5 9 26.2 4.3 12.5 10.7 24.1 17.1 35.7 5 8.9 10 18 17.6 24.8 5 4.5 10.9 7.8 16.8 11 14.4 7.9 31.5 15.5 46.8 9.4.9-13.6-2.5-28.8-7.5-41.7zM758.3 671.2c-1.2 13-9.1 24.9-11 37.4-12.2-1.9-24.2-4.3-35.8-7.1l-4.3-1c6.6-18 .8-38.2 2.6-57.3l.7-5.6c15-5 28.7-12 44.5-10l1 9.7 1.8 19.1a77.7 77.7 0 01.5 14.8zM862.5 703.9a199.2 199.2 0 01-41.3 8c-.6-14-10-26.7-11.3-41a60.1 60.1 0 010-10.6l.5-4.2 2.8-28.8a44.4 44.4 0 016.8-.3c13 .3 24.8 6 37.7 10.3a89.9 89.9 0 011 18.4c-.5 15.6-3 31.4 2.8 45.7l1 2.5z" fill="#fbbebe"/><path d="M693.7 484.5c1.8 13.7-5.2 26.7-8.2 40.1-2 8.9-2.3 18-2.6 27.1l-1.5 54.5c-.2 5.5-.3 11 1.3 16.3 3.4 10.5 13.6 17.5 24.4 20s21.9 1.3 32.8-.1c5.3-.8 11-1.6 15.3-4.7 6.1-4.2 8.8-11.8 11-18.9l6.6-19.9c7.5 16.8 4.3 35.2 8.8 53a10.3 10.3 0 002 4.6c1.9 2.1 5 2.4 7.8 2.6a225 225 0 0058.8-1c5.3-1 10.8-2.6 14.4-6.6 4.3-4.6 5-11.4 5-17.7-.3-21.6-8-42.5-9.8-64-.8-9.2-.4-18.5-.7-27.8a186 186 0 00-2-20.8 28 28 0 00-2.6-9c-3-5.7-9.2-8.7-15-11-46-18.7-96.3-18.5-145.8-16.7z" fill="#f86d70"/><circle cx="778.6" cy="173.2" r="43" fill="#fbbebe"/><path d="M816 249c-3.1 7-8.1 14-15.6 15.7-6.9 1.7-14.2-1.7-19.2-6.6s-8.4-11.3-11.9-17.4c-2.6-4.5-5.4-9-9.7-11.9-6-3.8-13.6-3.7-20.6-2.6s-13.9 3.2-21 2.7c-8.8-.6-17.8-5-26.1-2 2.7 12 1.7 25.3 1.4 37.7a17 17 0 01-.8 5.6 18.2 18.2 0 01-3 4.7l-8 10.3a50 50 0 0119 25.1c1.8 5.9 1.2 12.1 1.2 18.2-.2 18 3.7 35.7 2.5 53.6-1.5 21-9.8 40.7-14.2 61.3a160.3 160.3 0 00-2 53.6c44.8 15.5 91 23.4 138.4 26 8.3.5 17.4.5 24.2-4.3 5.8-4 9-10.8 10-17.7s.4-14-.4-20.9l-6.1-56.3a179.2 179.2 0 01-1.6-32.1c.5-8 2.2-15.9 3.8-23.7l10-48c1.4-6.9 2.9-13.8 5.7-20.1 2.3-5.2 5.5-10 8.1-15a66.5 66.5 0 006.2-19.4 12.8 12.8 0 000-5.9c-1.1-3.2-4.4-5.2-7.4-6.8a214.7 214.7 0 00-59.2-20.8c-1.4 6-1.1 11.4-3.6 17z" fill="#e3e8f4"/><path d="M812 220.1c5-9.5 14.3-16.3 19.7-25.6a38 38 0 001.2-35c-1.9-4-4.5-7.5-6-11.6-1.6-4.6-1.8-9.7-3.7-14.3-2.7-6.2-8.4-10.7-14.7-13.3s-13-3.5-19.7-4.4l-22.7-3c-3.3-.5-6.7-1-10 0s-6.1 3.5-6.4 6.8c-.3 4 3.2 7.6 2.4 11.4-.3 1.4-1.1 2.8-.7 4a4.1 4.1 0 002 2c5.4 3 11.9 3.4 17.7 5.3s11.7 6.9 11.1 13c-.3 3.3-2.4 6.7-1 9.7 1.4 2.7 5 3.2 8 4 9.3 2.8 15.8 13 14.5 22.6-.5 3-1.5 5.8-1.8 8.8-.7 10.6 1 13.6 9.6 19.7z" fill="#3f3d56"/><path d="M870.3 265.7a14.6 14.6 0 01-1 5.8c-3.2 6.7-12.7 6.3-19 10-8 4.7-9.7 15.2-10.4 24.4-.8 10.3-1.4 20.8.8 31s7.2 20 15.7 26c10.4 7.2 24.5 7.4 36.3 3s21.7-12.8 30.3-22.1a96.6 96.6 0 0019.8-29.8c.8-2 1.5-4.1.8-6.1-.9-3-4.2-4.4-6.8-6-6.2-3.8-10.4-10.3-12.5-17.2s-2.5-14.3-2.6-21.5c0-7.6 0-15.8-4.9-21.6s-13.1-7.4-20.7-7.4c-6.2 0-23.4.6-27.6 6-3.4 4.5 2 19 1.8 25.5z" fill="#be6f72"/><path d="M870.3 265.7a14.6 14.6 0 01-1 5.8c-3.2 6.7-12.7 6.3-19 10-8 4.7-9.7 15.2-10.4 24.4-.8 10.3-1.4 20.8.8 31s7.2 20 15.7 26c10.4 7.2 24.5 7.4 36.3 3s21.7-12.8 30.3-22.1a96.6 96.6 0 0019.8-29.8c.8-2 1.5-4.1.8-6.1-.9-3-4.2-4.4-6.8-6-6.2-3.8-10.4-10.3-12.5-17.2s-2.5-14.3-2.6-21.5c0-7.6 0-15.8-4.9-21.6s-13.1-7.4-20.7-7.4c-6.2 0-23.4.6-27.6 6-3.4 4.5 2 19 1.8 25.5z" opacity=".1"/><path d="M817 533.9a8.6 8.6 0 002 4 8.3 8.3 0 003.5 1.7c32.8 9.6 67.8 5.8 101.8 1.8a194.2 194.2 0 01-10.6-43.3c-1-12.3.1-25-4.2-36.5-1.3-3.4-75.9 12.3-83.2 13.5-3.8.7-8.2.5-10.8 3.4-3.2 3.7-3.5 12.3-3.9 16.8a110 110 0 005.4 38.6zM891.7 692.6c-6 2.8-12.2 5.4-18.6 7.7q-5.2 2-10.6 3.6c-5.9 1.8-12 3.3-18.3 4.6L833.3 681c-2.7-6.8-5.3-13.6-7.6-20.5a128.1 128.1 0 01-3.8-14.4 102.7 102.7 0 012.5-49.7c13.8 2.6 27.4 4.3 41 6.2 7.3 1 14.6 2.2 22 3.6q1 7.2 1.6 14.5 1.1 11.1 1.8 22.3 1.5 24.8 1 49.6z" fill="#be6f72"/><path d="M891.7 692.6c-6 2.8-12.2 5.4-18.6 7.7q-5.2 2-10.6 3.6c-5.9 1.8-12 3.3-18.3 4.6L833.3 681c-2.7-6.8-5.3-13.6-7.6-20.5a128.1 128.1 0 01-3.8-14.4 102.7 102.7 0 012.5-49.7c13.8 2.6 27.4 4.3 41 6.2 7.3 1 14.6 2.2 22 3.6q1 7.2 1.6 14.5 1.1 11.1 1.8 22.3 1.5 24.8 1 49.6z" opacity=".1"/><path d="M968.6 649.3c.1 5.8-1.5 11.6-3 17.3l-.4 1.2a16.5 16.5 0 01-8.8-6.6 19 19 0 01-2.4-5.6l-13.7 9.2c-15 9.9-31 19.7-48.6 27.8-6 2.8-12.2 5.4-18.6 7.7l-3.8-14a130.5 130.5 0 01-3-14.9 75.1 75.1 0 013.3-33.6l.4-1.3a73.5 73.5 0 016.6-13.8c2.5-4 7.4-3.3 12.4-2 2.3.6 4.6 1.3 6.7 1.7 13 2.8 26.7 0 40 .7a47.8 47.8 0 0118.4 4.7 25.2 25.2 0 0113.6 15 22.4 22.4 0 01.7 3 26.6 26.6 0 01.2 3.5zM728 188.8c-20.6-20-44-37-68-52.9a187.1 187.1 0 01-18-12.8c-6-5-11.3-10.9-17.7-15.4s-14.2-7.5-21.9-6-14.4 8.7-13.3 16.4c1 6.7 7 11.4 12.7 15.2a271.7 271.7 0 0032.7 20.5 102.7 102.7 0 0111.7 6.2c7.1 4.8 12.4 12 17.8 18.7a260.4 260.4 0 0074 63c.3.2 12.2-25.3 11.7-28.6-1.1-7.7-16.2-19-21.6-24.3z" fill="#be6f72"/><path d="M904.7 512c-16 1-31.2 6.3-46.8 9.7s-32.6 4.8-47-2l8.8 60.1c.4 3.4 1 6.8.2 10-.6 3.2-2.4 6.2-2.2 9.4.2 5 5 8.6 9.5 11a84.8 84.8 0 0042.4 9.7l-3.6 13.2c7.4 7.9 19.4 8.4 29.9 11 8 1.8 15.5 5 23.3 7.4a99.6 99.6 0 0029.2 4c6.7 0 13.8-1 19-5.1 6.3-5.1 8.3-13.8 9.7-22 .7-4.4 1.5-9 1-13.5a54 54 0 00-4.6-15l-13.7-33.3c-2.5-6-5-12-8-17.8-9.8-18.8-26-38.2-47.1-36.9z" fill="#3f3d56"/><path d="M916.9 304.3a15 15 0 0115.7-9.6c4 .6 7.6 2.8 11 5l19 11.8a83.3 83.3 0 019.2 6.3c13.1 11 18.2 28.9 19.7 46s0 34.3 3.4 51c-8.1 6.7-17 12.4-25.1 19-4.2 3.6-8.5 7-11.7 11.6-2.5 3.5-4.3 7.5-7 11a26.5 26.5 0 01-17.5 9.7c4.3 2.5 6.8 7.5 8 12.4s1.5 10 2.8 14.9c1.8 6.7 5.5 12.8 6.7 19.6 1 4.6.5 9.5.8 14.2 1.6 24.6 21 46.2 19.7 70.8a107.4 107.4 0 01-25.7-13.5c-3.5-2.5-7-5.3-10.4-8l-25.4-20.7a211.7 211.7 0 01-34.8-32.8c-6.2-7.8-11.2-16.6-17.4-24.4s-13.8-15-23.3-18.3c-1.4 2-3.9 3.5-5.2 5.6a4.2 4.2 0 00-.6 1 4.7 4.7 0 00.3 2.8 57.5 57.5 0 012 12.4l.6 7.6a25.6 25.6 0 010 6c-1 6.4-6.9 11.4-13.3 12.4a5.8 5.8 0 01-2.8-.1c-1.8-.6-2.8-2.5-3.3-4.3-2.6-8.5 1.3-17.6 1.6-26.4a63.5 63.5 0 00-.2-6.8l-.6-8.9c-5.8-1.2-9.2-7.4-10.7-13.2-4.2-15.4-8.3-31.4-6-47.3.7-4.2 1.8-8.5 1-12.8-1-5.6-5-10.2-7.2-15.6-7-17.4 8-36.3 6.5-55-.6-7.8-5.5-14.6-8.5-22a62 62 0 00-6-12c-3-4.4-7.2-7.9-11.2-11.4a427.7 427.7 0 01-35.2-34.7 26 26 0 01-15.2-7c-2.6-2.4-4.8-5.7-4.8-9.3s2.6-7.5 6.2-7.7c2.1 0 4.1 1 6.2 1.4 6.4 1.4 13-3.3 15.9-9.3s2.8-12.9 2.8-19.5a18.7 18.7 0 0117.3 6c4.5 4.9 7.4 11 11 16.5a25.6 25.6 0 005.4 6.6c4.8 3.8 11.7 4.5 16 9 2 2.3 3.2 5.3 5.2 7.7 5.4 7 15.5 7.8 23 12.3s12.7 12.8 21 15.4c3 1 6.2 1.2 9.2 2.3 6.9 2.5 11 9.8 12 17s-.7 14.6-2.3 21.8l-3.9 16.7c-.8 3.7-1.5 8.1 1.3 10.8a11.1 11.1 0 004.4 2.2c7 2.3 14.8 4.5 21.4 1.3 3.1-1.5 5.5-4.1 7.8-6.8a129.2 129.2 0 0021.2-40.7z" fill="#2874ca"/><path d="M995.8 644.3a29.7 29.7 0 01-14.7 22.4 21 21 0 01-15.8 1 16.5 16.5 0 01-8.9-6.5 19 19 0 01-2.3-5.6l-.1-.3a44 44 0 01-1-10.8 140.5 140.5 0 011-16.8 91 91 0 012.8-13.8c1.9-6.5 4.6-12.8 7-19 1.3-3.3 2.5-6.6 3.5-10 .6-2 1.2-4.1 1.6-6.2l.1-.7.2-1.3c1-5.7 1.3-11.6 4-16.7 6-12.1 17.6-9 19.4 2.1a19.6 19.6 0 01.2 2.6c.3 14.1-5.3 28-2.8 42a98 98 0 002.8 10.3c.9 3 1.7 6.2 2.3 9.4a53.4 53.4 0 01.7 18z" fill="#be6f72"/><path d="M1001.3 487.4c.3 5.8 0 11.7 1.2 17.3 2.7 13.4 13 25.3 11.8 39-.2 3.2-1.5 6.8-4.4 8.4s-7.7 1.6-8.6 4.9c-.3.9-.2 1.9-.5 2.8-.6 2-3 2.8-5 2.7s-4-.7-6-.5c-7.3.6-10 10.3-16.4 13.6-4.3 2.2-10 1-13.6-2.3s-5.1-8.5-4.9-13.4c.2-3.6 1.4-7.2 2-10.8 1.2-6.5.6-13.2 0-19.7-.9-9.7-1.8-19.4-5-28.5-1.4-4.3-3.4-8.4-4.7-12.8a74.3 74.3 0 01-2.5-19c-.3-13.6.6-28 8.7-39 6-8.1 14.7-14.7 21.6-22.3 4.3-4.7 5.5-6.2 10.3-2.2 3.9 3.3 8 7.9 8.4 12.3 1.2 11.4 0 22.7 2.2 34.3s4.9 23.3 5.4 35.2z" fill="#2874ca"/><circle cx="897.6" cy="216.2" r="51" fill="#be6f72"/><path d="M944.3 313.8c1.1-1.6 2.4-3.3 4.3-3.6a7.6 7.6 0 014.2.8l13.4 5.6a43.8 43.8 0 006.2-19.7c.3-4.3 0-8.7.8-12.9 1.2-6.2 5-11.8 5.8-18.2.7-5-.6-10.2-1.3-15.3-2.3-15.7.2-31.7-1.1-47.6s-7.7-32.8-21.8-40c-4-2-8.3-3.2-12.5-4.8-9.2-3.5-17.6-9.2-26.7-13s-20-5.6-28.8-1.2-14 16.7-8.3 24.8c1.9 2.7 4.7 4.5 7.3 6.4 5.5 4 11 8.7 12.2 15.2 2.3 11.8-10 21-13.4 32.5a27.6 27.6 0 00-.4 13.8c1.5 6.9 5.2 13.3 5 20.3 0 7.6-4.6 14.6-5.5 22.2-.3 2.7-.1 5.6-.5 8.4A43.4 43.4 0 01880 298a318 318 0 01-28 58.2 77 77 0 0036.6-8.6 60.5 60.5 0 01-9.1 21.6 69.4 69.4 0 0028.6-10 93.1 93.1 0 01-9 21.6c.3-.6 6.5-2 7.7-2.7a13.6 13.6 0 005.5-5.9c3.4-6 5.5-13.4 8.7-19.7a287.3 287.3 0 0123.3-38.9zM557.5 7.7a47.3 47.3 0 01-7.3.2 1.6 1.6 0 00-1.7 1.4L543.8 44a14.2 14.2 0 01-3 7 15 15 0 00-3.4 11.5v59.2s-.3 7.9 5.8 7.9a87.8 87.8 0 0021.9 0s4.8-1 4.8-8.2V63.2a14.3 14.3 0 00-3-11.6 14.5 14.5 0 01-2.9-7l-4.8-35.5a1.6 1.6 0 00-1.7-1.4z" fill="#3f3d56"/><rect x="539.1" y="63.6" width="29.5" height="49.8" rx="11.1" fill="#2874ca"/><path d="M626.5 58.7a47.3 47.3 0 01-7.3.2 1.6 1.6 0 00-1.7 1.3l-4.7 35a14.2 14.2 0 01-3 6.8 15 15 0 00-3.4 11.5v59.3s-.3 7.9 5.8 7.9a87.8 87.8 0 0021.9 0s4.8-1 4.8-8.2v-58.3a14.3 14.3 0 00-3-11.6 14.5 14.5 0 01-2.9-7l-4.8-35.5a1.6 1.6 0 00-1.7-1.4z" fill="#3f3d56"/><rect x="608.1" y="114.6" width="29.5" height="49.8" rx="11.1" fill="#2874ca"/><g opacity=".2"><path d="M549 656.2a19 19 0 01-.4 3.2l-21-3v-.8a16.9 16.9 0 012.5-8.5c2-3.3 5.2-5.3 8.6-5.2s6.5 2.3 8.3 5.7a16.9 16.9 0 012 8.6z" fill="#3f3d56"/><ellipse cx="571.2" cy="732.3" rx="14" ry="10.7" transform="rotate(-88.2 506.8 702.3)" fill="#3f3d56"/><ellipse cx="571.8" cy="715.2" rx="14" ry="10.7" transform="rotate(-88.2 507.3 685.2)" fill="#3f3d56"/><ellipse cx="572.3" cy="698.1" rx="14" ry="10.7" transform="rotate(-88.2 507.8 668)" fill="#3f3d56"/><ellipse cx="572.8" cy="681" rx="14" ry="10.7" transform="rotate(-88.2 508.4 651)" fill="#3f3d56"/><path d="M504 469a49.7 49.7 0 01-3.7-6l28.2-3.7-30.4-.8a51.4 51.4 0 01.3-40.6l40.1 22.4-36.7-28.8a51.3 51.3 0 1182.8 60 50.8 50.8 0 015.6 9.5L553 498.8l39.3-11.8a51.3 51.3 0 01-9.8 48 51.3 51.3 0 11-80.6-2.6 51.3 51.3 0 012-63.4z" fill="#2874ca"/><path d="M594.6 503.6a51 51 0 01-12 31.3 51.3 51.3 0 11-80.6-2.5c-6.6-9 92.8-34.6 92.6-28.8z" opacity=".1"/></g></svg>