<svg data-name="Layer 1" xmlns="http://www.w3.org/2000/svg" width="1032" height="741.8"><path fill="none" stroke="#3f3d56" stroke-miterlimit="10" d="M0 741.3h166"/><rect x="243" y="127.8" width="737" height="499" rx="19.4" fill="#f2f2f2"/><rect x="220.5" y="96.3" width="737" height="499" rx="19.4" fill="none" stroke="#3f3d56" stroke-miterlimit="10"/><path fill="none" stroke="#3f3d56" stroke-miterlimit="10" d="M220.5 144.1h737"/><rect x="661" y="256.3" width="201" height="31" rx="7.1" fill="#2874ca" opacity=".3"/><rect x="622.5" y="342.3" width="278" height="25" rx="7.1" fill="#2874ca" opacity=".3"/><rect x="622.5" y="410.3" width="278" height="25" rx="7.1" fill="#2874ca" opacity=".3"/><rect x="622.5" y="478.3" width="278" height="25" rx="7.1" fill="#2874ca" opacity=".3"/><rect x="671" y="246.3" width="201" height="31" rx="7.1" fill="none" stroke="#3f3d56" stroke-miterlimit="10"/><rect x="632.5" y="332.3" width="278" height="25" rx="7.1" fill="none" stroke="#3f3d56" stroke-miterlimit="10"/><rect x="632.5" y="400.3" width="278" height="25" rx="7.1" fill="none" stroke="#3f3d56" stroke-miterlimit="10"/><rect x="632.5" y="468.3" width="278" height="25" rx="7.1" fill="none" stroke="#3f3d56" stroke-miterlimit="10"/><circle cx="276.5" cy="126.3" r="15" fill="#2874ca" opacity=".3"/><circle cx="318.5" cy="126.3" r="15" fill="#2874ca" opacity=".3"/><circle cx="360.5" cy="126.3" r="15" fill="#2874ca" opacity=".3"/><circle cx="282.5" cy="120.3" r="15" fill="none" stroke="#3f3d56" stroke-miterlimit="10"/><circle cx="324.5" cy="120.3" r="15" fill="none" stroke="#3f3d56" stroke-miterlimit="10"/><circle cx="366.5" cy="120.3" r="15" fill="none" stroke="#3f3d56" stroke-miterlimit="10"/><path d="M453.4 574.3a149.1 149.1 0 01-2.4-38.4s-12.7-55.8-22.7-61c-.1.2-5 6.6-5.6 26.2-.6 20-7.7 33.1-7.7 33.1s2.3 25 1 40z" fill="#2874ca"/><path d="M545.7 219.3H315.3a23.8 23.8 0 00-23.8 23.7v307.5a23.8 23.8 0 0023.8 23.8H396c-2.7-11.2-6-28.7-2.6-40.9l.5-1.7a63.5 63.5 0 002.3-24.3 50.6 50.6 0 000-21.3c-2.5-11.6-4.3-23-4.3-23s-1.3-15.5-.1-25v-.5l-.6-.2s3.5-16 4.8-26.2l1-8.7a21 21 0 01-3.3-.9c-11.3-4-14.8-39.7-14.8-39.7v-11.4s-3.7-17.4 9.4-25c12.6-7.5 17.6-9.5 18-9.6l.3-.2a11 11 0 003.3-4.3v-.8c-.2-4.1-3-7.8-5.7-11l-7-8.3a8 8 0 01-1.7-2.8 6.6 6.6 0 01-.2-1.9v-.6l.2-6.2c0-1.8.5-4 2.3-4.4.9-.2 2 .1 2.6-.7a1.6 1.6 0 000-1 22.4 22.4 0 01-.6-4.4 5.8 5.8 0 01.3-2c1-3 4.5-4.2 7.6-4.8 3-.5 6.6-1 8.5-3.5a27 27 0 011.7-2.3 6.6 6.6 0 013.2-1.6 17.5 17.5 0 0111.5 1c1.5.7 3 1.6 4.6 1.5 1.7-.1 3.2-1.3 4.9-1.6 2.7-.5 5.3 1.5 6.6 4a9.9 9.9 0 011.2 5 7 7 0 01-1.7 4.7c-1.2 1.3-3 2.1-3.4 3.8l-.4 2v.3a21.2 21.2 0 01-10.3 33v.7a9.2 9.2 0 002.9 7l18.5 7.7s11.2-1.4 15.2 15.3a28.8 28.8 0 01.7 8.5c-.2 2.5.2 6.9 3 12.6 4.6 9.2 3.6 30.2-5.8 32.3-8.9 2-12.3 1.1-12.6 1v.4c0 4 1.5 38 6.6 42 1.4 1.2 1.1 2 0 2.5s0 .2 0 .6c.1 2.5 1 12 4.3 17.4 4 6.2 3.6 42.2 3.6 42.2l2.7 21.3s-1.7 13 0 15.4c1 1.3 2 21.4 2.9 38.6h69.5a23.8 23.8 0 0023.8-23.8V243a23.8 23.8 0 00-23.8-23.7z" fill="#2874ca"/><rect x="267.5" y="192.3" width="278" height="355" rx="23.8" fill="none" stroke="#3f3d56" stroke-miterlimit="10"/><path d="M100.8 321.6s-9.3-2.7-11.3.3 2.7 24.7 2.7 24.7l20.6 1.3-7.2-18.1z" fill="#2f2e41"/><path d="M29 500.2s18.6 41 4.2 39.8-20-39.8-20-39.8zM151.2 496s-8.2 44.3 5.5 39.6 9.7-43.5 9.7-43.5zM96.8 311.3s-.2 20.7 7.8 21.7-4.5 12-4.5 12L85.9 348l-20.4-1.5-9-11.6s15.9-7.6 9-31z" fill="#a0616a"/><path d="M96.8 311.3s-.2 20.7 7.8 21.7-4.5 12-4.5 12L85.9 348l-20.4-1.5-9-11.6s15.9-7.6 9-31z" opacity=".1"/><path d="M133.4 485.8s10 21.7 2.1 89.8c0 0 2.4 24.1.5 28.6S118 670 118 670s-20.4 4.5-23.2-9c0 0 2.8-19.4 2.6-22.4s4.5-35.9 4.5-35.9l-9.7-63.6-7.3 57.4s0 16.5-2.3 20.2 0 77.1 0 77.1 6.6 11.2-3.5 11.4-19.1-.2-20-7.3-1.2-14.2-3.4-18.5-5-53.5-4.3-70.7S37.3 503.2 42.1 494s91.3-8.2 91.3-8.2z" fill="#2f2e41"/><circle cx="85.9" cy="293.3" r="25.8" fill="#a0616a"/><path d="M60.1 335.2s15.7 11.6 38.5 2.4c0 0 7.5-3.7 6.8-9.3s15.7 45 15.7 45l16.6 87.8-.9 35.9s-7.3-3.7-30 4.5-60-9.2-60-9.2L48 400l1.3-53.7 3.4-11.9s1.7-3.2 7.3.7z" fill="#f2f2f2"/><path d="M97.6 320.8s3.8-.6 7.4 5.2 12.3 9.4 12.3 9.4S138 336.7 141 348s10.5 26.4 14.2 54.5 11 73.1 12 76.8-1.5 14.8 1.5 18.2-21.2 3.5-21.2 3.5-2.2-17.7-3.7-17.7-1 11.9.4 20.5-11 0-11 0-9.6-39.4-18.8-74.8-14.6-55-13-63 6.5-30.7 3-32.9-7-12.2-7-12.2zM66.6 320.7S61 323.8 46.8 334s-23.9 17.8-23.9 17.8-5.6 4.3-9 30-11.2 91.7-8.2 100 4.1 13.4 3 18.3 22.6 4.7 23 3.7-.6-20.7.5-21.1 6.8 11.6 8 21.7 13.5 18 16.2 18 17.2-58.2 17.5-98-4.8-73.2-8.4-78 1-25.6 1-25.6z" fill="#2f2e41"/><path d="M104.4 672s1.7-4.8 7.7-3.3 10.1-3.9 10.1-3.9 3.2-.4 1 3.7l-3.8 6.8s12.9 29.5 4.5 36.6-18 2.8-18 2.8-9.5-6.7-9-24.3c0 0-.5-5.6-5.6-14.6s-9-22.8-2.8-25.4 7.8-2.7 7.8-2.7-3 13.4 4.6 18zM64.4 705.2s-5.2-9.7 3.4-10.7 17.9-1.7 17.4 2.8l-1.5 11.4 1.5 4.9s.5 12.2 2 13.8 9.6 14.3-7.8 14.3-22.5-1.9-21-6 2-24.3 2-24.3z" fill="#3f3d56"/><path d="M77.7 272.7s12 3.2 18.3 4.5 5.6-2.4 5.6-2.4 8.1 1 7.7.2 3.4-5.3-1-10.5-3.3-9-3.3-9h-3.9l-1-1.5h-6s-4.6-1.8-16.4 0-28 2.1-29.2 9.2-8 16-5.6 20 16 20.8 17.2 28 7.3 8.6 7 4.2-6.1-20-1-20.6 14-13.8 11.6-22.1z" fill="#2f2e41"/><path d="M934.9 7.5A23 23 0 00915 21.3c-5 12 1.4 26 11 34.8s21.8 13.7 33 20.3c15 8.8 28.5 21 36 36.7s8.3 35.2-.5 50.2c-8.2 13.9-23 22.2-37.3 29.9" fill="none" stroke="#3f3d56" stroke-miterlimit="10"/><ellipse cx="947.5" cy="8.5" rx="17.5" ry="8.5" fill="#2874ca"/><ellipse cx="961.5" cy="64.5" rx="17.5" ry="8.5" fill="#2874ca"/><ellipse cx="929.5" cy="73.5" rx="17.5" ry="8.5" fill="#2874ca"/><ellipse cx="979.5" cy="120.5" rx="17.5" ry="8.5" fill="#2874ca"/><ellipse cx="1014.5" cy="120.5" rx="17.5" ry="8.5" fill="#2874ca"/></svg>