<svg data-name="Layer 1" xmlns="http://www.w3.org/2000/svg" width="808" height="607"><path fill="#ccc" d="M203.7 186h405.2v2H203.7z"/><path fill="#ccc" d="M405 1h2v186h-2z"/><path fill="#ccc" d="M235.4 93h341.3v2H235.4z"/><path d="M470.5 330.3a42 42 0 01-10.4 27.7l-1.8 2h-59.5a44 44 0 01-1.9-2 41.8 41.8 0 01-8.6-15.4 42 42 0 01-1.8-12.3 40.8 40.8 0 01.3-5 42 42 0 0183.4-.2 42.5 42.5 0 01.3 5.2zM375.6 360h-5.2l4-2h.2l1 2z" fill="#2f2e41"/><path fill="#2f2e41" d="M410.6 360h-5.1l1-2h.1l4 2z"/><circle cx="425.6" cy="320.1" r="14.4" fill="#fff"/><circle cx="616.7" cy="469.4" transform="rotate(-45 341.9 632.8)" fill="#3f3d56" r="4.8"/><path d="M461.7 284.6c.6-15.5-12.8-28.7-30-29.4s-31.6 11.4-32.2 27 11.3 19 28.5 19.7 33-1.7 33.7-17.3z" fill="#2874ca"/><path d="M440 346.9a9.6 9.6 0 11-18.8 3.4c-1-5.2 3.1-7 8.3-8s9.6-.6 10.6 4.6z" fill="#fff"/><path d="M647 358H155a18 18 0 000 36h492a18 18 0 000-36z" fill="#ccc"/><path d="M610 204v155h-2V204q0-8-.6-16l-.2-2A200.7 200.7 0 00576 95l-1.3-2A202 202 0 00407 2h-2q-5.7 0-11.3.4a200.5 200.5 0 00-43.2 7.3 199.6 199.6 0 00-23.4 8.3 203.2 203.2 0 00-89.8 75l-1.3 2a200.7 200.7 0 00-31.2 91l-.2 2q-.6 8-.6 16v155h-2V204q0-9.1.8-18A202.5 202.5 0 01235 92.8 204.2 204.2 0 01351.6 7.4a202.8 202.8 0 0143-7Q400.3 0 406 0a204.2 204.2 0 01203.2 186q.8 8.9.8 18z" fill="#3f3d56"/><path d="M349.6 502c56.6 1 56.6 85.3 0 86.2-56.6-1-56.6-85.2 0-86.1z" fill="#2f2e41"/><path fill="#2f2e41" d="M330 578.9h13.1v23.4H330zM356.2 578.9h13.1v23.4h-13.1z"/><path d="M341 598.6c14-.1 14 8.2 0 8.1-14.2.1-14.2-8.2 0-8.1z" fill="#2f2e41"/><path d="M367 598c14.2 0 14.2 8.3 0 8.2-14 .1-14-8.3 0-8.2z" fill="#2f2e41"/><path d="M350.7 519.5c19.3.1 19.3 29.4 0 29.5-19.2-.1-19.2-29.4 0-29.5z" fill="#fff"/><path d="M350.7 529.3c6.4 0 6.4 10 0 9.8-6.3.1-6.3-9.9 0-9.8z" fill="#3f3d56"/><path d="M307.9 505c-8.1-36.8 53.8-50.6 62.2-13.8 3.5 15.6-8 21.3-25.1 25.1s-33.7 4.4-37.1-11.2z" fill="#ccc"/><path d="M368.4 386.5c10-26.3 22.7-21.5 12.6 4.8-10 26.3-22.6 21.4-12.6-4.8z" fill="#2f2e41"/><path d="M292.4 414.5c10-55.7 93.1-42.2 85 13.8-10 55.7-93.1 42.2-85-13.8z" fill="#2f2e41"/><path fill="#2f2e41" d="M315.3 455.2h13.1v23.4h-13.1zM341.5 455.2h13.1v23.4h-13.1z"/><path d="M326.2 474.8c14.1 0 14.1 8.3 0 8.2-14.1 0-14.1-8.3 0-8.2z" fill="#2f2e41"/><path d="M352.4 474.3c14.1-.1 14.1 8.2 0 8.1-14.2.1-14.2-8.2 0-8.1z" fill="#2f2e41"/><path d="M293.1 381.3c-8-36.9 54-50.7 62.3-13.9 3.5 15.6-8 21.4-25.1 25.2s-33.7 4.3-37.2-11.3z" fill="#2874ca"/><path d="M267 392.2c3-8.2 43.3 10.9 38.9 18.4-3 8.2-43.4-10.9-39-18.4z" fill="#2f2e41"/><ellipse cx="668.2" cy="492.9" rx="6.6" ry="21" transform="rotate(-40.6 372.4 684.3)" fill="#2f2e41"/><ellipse cx="581" cy="492.9" rx="21" ry="6.6" transform="rotate(-49.4 323.6 633)" fill="#2f2e41"/><path d="M763 136h-59a10 10 0 010-20v2a8 8 0 000 16h59zM702 189h-59a10 10 0 010-20v2a8 8 0 000 16h59zM779 241v-2a8 8 0 000-16h-59v-2h59a10 10 0 010 20zM798 59v-2a8 8 0 000-16h-59v-2h59a10 10 0 010 20zM706 78h-59a10 10 0 010-20v2a8 8 0 000 16h59zM130 268H71a10 10 0 010-20v2a8 8 0 000 16h59zM161 302v-2a8 8 0 000-16h-59v-2h59a10 10 0 010 20zM69 321H10a10 10 0 010-20v2a8 8 0 000 16h59zM134 157H75a10 10 0 010-20v2a8 8 0 000 16h59zM165 191v-2a8 8 0 000-16h-59v-2h59a10 10 0 010 20zM73 210H14a10 10 0 010-20v2a8 8 0 000 16h59zM559 465h-59a10 10 0 010-20v2a8 8 0 000 16h59zM625 519v-2a8 8 0 000-16h-59v-2h59a10 10 0 010 20zM505 529h-59a10 10 0 010-20v2a8 8 0 000 16h59zM291 524v-2a8 8 0 000-16h-59v-2h59a10 10 0 010 20zM113 549H54a10 10 0 010-20v2a8 8 0 000 16h59z" fill="#e6e6e6"/><path d="M510.9 607h-381a1 1 0 010-2h381a1 1 0 010 2z" fill="#3f3d56"/><path d="M186.5 606.2c-.7 1.8-3.3.3-2.6-1.5a100.9 100.9 0 007.2-25.9 109.4 109.4 0 00-3.4-45.6l-.5-1.6-1.2-3.7a103 103 0 00-22.7-37.4c-1.3-1.4.8-3.6 2.1-2.2a103.4 103.4 0 0116.4 22.6 108 108 0 015.5 12 123 123 0 011.8 5 114.2 114.2 0 015.8 30 107.2 107.2 0 01-8.4 48.3z" fill="#3f3d56"/><path d="M209.4 453.4l-10 36.6-10.3 37.8-1.4 5.4-.5-1.6-1.2-3.7 1.3-5 1.9-6.8 17.3-63.5a1.5 1.5 0 013 .8z" fill="#3f3d56"/><path d="M147.7 457.8c-1.7 3.8-3.5 7.7-4.2 11.8s-.4 8.7 1.8 12.3a20.3 20.3 0 007.4 6.4c4.2 2.4 9.7 4.1 13.7 1.4 4-2.7 4.4-8.8 2.2-13.1s-6.5-7.2-10.6-9.8-7.3-4.7-10-8.8zM219 418.7c-4 1.3-8 2.6-11.6 4.9s-6.7 5.5-7.8 9.6a20.3 20.3 0 00.3 9.9c1.1 4.6 3.5 9.8 8.2 11 4.8 1 9.6-2.8 11.2-7.4s.9-9.6 0-14.4-1.5-8.6-.3-13.3zM147.1 505.3c1.1 4 2.3 8.1 4.3 11.8s5.3 7 9.3 8.2a20.3 20.3 0 009.8.2c4.7-.8 10-3 11.4-7.6 1.3-4.7-2.3-9.7-6.7-11.5s-9.6-1.4-14.5-.8-8.6 1-13.2-.3zM159.1 558.3c1.1 4 2.3 8.1 4.3 11.8s5.3 7 9.3 8.2a20.3 20.3 0 009.8.2c4.7-.8 10-3 11.4-7.6 1.3-4.7-2.3-9.7-6.7-11.5s-9.6-1.4-14.5-.8-8.6 1-13.2-.3zM224.9 523.3c-1.1 4-2.3 8.1-4.3 11.8s-5.3 7-9.3 8.2a20.3 20.3 0 01-9.8.2c-4.7-.8-10-3-11.4-7.6-1.3-4.7 2.3-9.7 6.7-11.5s9.6-1.4 14.5-.8 8.6 1 13.2-.3zM236.9 469.3c-1.1 4-2.3 8.1-4.3 11.8s-5.3 7-9.3 8.2a20.3 20.3 0 01-9.8.2c-4.7-.8-10-3-11.4-7.6-1.3-4.7 2.3-9.7 6.7-11.5s9.6-1.4 14.5-.8 8.6 1 13.2-.3z" fill="#2874ca"/></svg>