<svg data-name="Layer 1" xmlns="http://www.w3.org/2000/svg" xmlns:xlink="http://www.w3.org/1999/xlink" width="1081" height="836.7"><defs><linearGradient id="a" x1="522.7" y1="796" x2="522.7" y2="67.3" gradientUnits="userSpaceOnUse"><stop offset="0" stop-color="gray" stop-opacity=".3"/><stop offset=".5" stop-color="gray" stop-opacity=".1"/><stop offset="1" stop-color="gray" stop-opacity=".1"/></linearGradient><linearGradient id="b" x1="950.4" y1="837.6" x2="950.4" y2="177.9" xlink:href="#a"/></defs><path d="M234.4.6c-34.7-1.2-71-2.1-102.5 12.8s-55.7 51-45.2 84.1c3.5 10.9 10.2 20.3 15.8 30.1A173.6 173.6 0 01106 291c-20.2 38.7-54.3 68.3-79 104.4s-38.5 86.2-14.3 122.7c16.5 24.9 47.3 37 77 40s59.8-1.7 89.8-3a386.3 386.3 0 01169.5 32.1c73.5 32.3 136.8 87.4 214.2 108.6 9.3 2.6 19 4.7 28.5 3 16.9-3.1 29.1-17 42.3-28 42.1-35 100.4-41.4 155-43s111.7-.4 161-24c43.2-20.4 76.4-58.5 97-101.6s29.7-90.9 33-138.5c2-28.4 2-57.7-8.1-84.2-11.4-29.9-34.6-53.7-58.9-74.4-25.3-21.8-53-41.4-84.3-53.2-37.4-14-78-16-117.8-19.3a1618.5 1618.5 0 01-242.4-38.9C492.8 75.7 409.8 56 341 19 306.3.6 273.4 2 234.4.6z" fill="#2874ca" opacity=".1"/><g opacity=".1" fill="#2874ca"><path d="M713.9 629.7s3.5-49.6 31.4-76.7a75.3 75.3 0 0022.3-42.1 127.4 127.4 0 001.5-23.2"/><path d="M786.6 470.6c-2 5.5-18 17.6-18 17.6s-4-19.5-1.8-25a10.6 10.6 0 0119.8 7.4zM791.6 507c-4.7 3.5-24.6 5.1-24.6 5.1s7.3-18.6 12-22a10.6 10.6 0 0112.6 17zM771.6 558.6c-5.9.7-23.9-8-23.9-8s15.7-12.4 21.5-13a10.6 10.6 0 012.4 21zM747.6 594.2c-5.6 1.6-24.9-3.9-24.9-3.9s13.4-14.8 19-16.4a10.6 10.6 0 115.9 20.3zM745.8 505.4c2.5 5.3 19.3 16 19.3 16s2.4-19.8-.2-25a10.6 10.6 0 00-19 9zM718.3 547.4c4 4.3 23.2 9.6 23.2 9.6s-3.7-19.7-7.7-24a10.6 10.6 0 00-15.5 14.4zM697.1 591.9c3.2 4.9 21.3 13.3 21.3 13.3s-.3-20-3.5-24.9A10.6 10.6 0 00697 592z"/><path d="M786.6 470.6c-2 5.5-18 17.6-18 17.6s-4-19.5-1.8-25a10.6 10.6 0 0119.8 7.4zM791.6 507c-4.7 3.5-24.6 5.1-24.6 5.1s7.3-18.6 12-22a10.6 10.6 0 0112.6 17zM771.6 558.6c-5.9.7-23.9-8-23.9-8s15.7-12.4 21.5-13a10.6 10.6 0 012.4 21zM747.6 594.2c-5.6 1.6-24.9-3.9-24.9-3.9s13.4-14.8 19-16.4a10.6 10.6 0 115.9 20.3zM745.8 505.4c2.5 5.3 19.3 16 19.3 16s2.4-19.8-.2-25a10.6 10.6 0 00-19 9zM718.3 547.4c4 4.3 23.2 9.6 23.2 9.6s-3.7-19.7-7.7-24a10.6 10.6 0 00-15.5 14.4zM697.1 591.9c3.2 4.9 21.3 13.3 21.3 13.3s-.3-20-3.5-24.9A10.6 10.6 0 00697 592z"/></g><g opacity=".1" fill="#2874ca"><path d="M723.7 441.9s3.5-49.6 31.4-76.7a75.4 75.4 0 0022.3-42.1 125.7 125.7 0 001.5-23.1"/><path d="M796.4 282.8c-2 5.5-17.9 17.6-17.9 17.6s-4-19.5-2-25a10.6 10.6 0 1119.9 7.4zM801.5 319.3c-4.7 3.5-24.6 5-24.6 5s7.3-18.5 12-22a10.6 10.6 0 1112.6 17zM781.4 370.8c-5.8.7-23.9-8-23.9-8s15.7-12.3 21.5-13a10.6 10.6 0 112.4 21zM757.4 406.4c-5.6 1.7-24.9-3.8-24.9-3.8s13.4-14.9 19-16.5a10.6 10.6 0 015.9 20.3zM755.6 317.6c2.5 5.3 19.3 16.1 19.3 16.1s2.4-19.9-.1-25.1a10.6 10.6 0 10-19.2 9zM728 359.6c4 4.3 23.3 9.6 23.3 9.6s-3.7-19.7-7.7-24a10.6 10.6 0 00-15.5 14.4zM707 404.1c3.1 5 21.2 13.4 21.2 13.4s-.3-20-3.5-25a10.6 10.6 0 10-17.8 11.6z"/><path d="M796.4 282.8c-2 5.5-17.9 17.6-17.9 17.6s-4-19.5-2-25a10.6 10.6 0 1119.9 7.4zM801.5 319.3c-4.7 3.5-24.6 5-24.6 5s7.3-18.5 12-22a10.6 10.6 0 1112.6 17zM781.4 370.8c-5.8.7-23.9-8-23.9-8s15.7-12.3 21.5-13a10.6 10.6 0 112.4 21zM757.4 406.4c-5.6 1.7-24.9-3.8-24.9-3.8s13.4-14.9 19-16.5a10.6 10.6 0 015.9 20.3zM755.6 317.6c2.5 5.3 19.3 16.1 19.3 16.1s2.4-19.9-.1-25.1a10.6 10.6 0 10-19.2 9zM728 359.6c4 4.3 23.3 9.6 23.3 9.6s-3.7-19.7-7.7-24a10.6 10.6 0 00-15.5 14.4zM707 404.1c3.1 5 21.2 13.4 21.2 13.4s-.3-20-3.5-25a10.6 10.6 0 10-17.8 11.6z"/></g><g opacity=".1" fill="#2874ca"><path d="M193.2 506.9s-42.7-25.5-54.3-62.5a75.3 75.3 0 00-27.7-38.9 126 126 0 00-20-11.7"/><path d="M83.8 370.4c4 4.3 7.7 24 7.7 24s-19.3-5.3-23.3-9.6a10.6 10.6 0 0115.6-14.4zM118.6 382.4c1 5.7-6.5 24.2-6.5 24.2S98.7 391.7 97.7 386a10.6 10.6 0 1121-3.6zM155.6 423.4c-2 5.5-17.8 17.7-17.8 17.7s-4-19.6-2-25a10.6 10.6 0 1119.8 7.3zM176.7 460.9c-1.1 5.7-14.7 20.5-14.7 20.5s-7.2-18.7-6.1-24.4a10.6 10.6 0 1120.8 4zM96.5 422.5c5.9.2 23.1-10 23.1-10s-16.7-11-22.6-11.1a10.6 10.6 0 00-.5 21.1zM121.7 466c5.6-1.6 19-16.5 19-16.5s-19.2-5.5-24.9-3.9a10.6 10.6 0 005.9 20.4zM151.9 504.9c5.8-.7 21.5-13 21.5-13s-18-8.7-23.8-8a10.6 10.6 0 102.3 21z"/><path d="M83.8 370.4c4 4.3 7.7 24 7.7 24s-19.3-5.3-23.3-9.6a10.6 10.6 0 0115.6-14.4zM118.6 382.4c1 5.7-6.5 24.2-6.5 24.2S98.7 391.7 97.7 386a10.6 10.6 0 1121-3.6zM155.6 423.4c-2 5.5-17.8 17.7-17.8 17.7s-4-19.6-2-25a10.6 10.6 0 1119.8 7.3zM176.7 460.9c-1.1 5.7-14.7 20.5-14.7 20.5s-7.2-18.7-6.1-24.4a10.6 10.6 0 1120.8 4zM96.5 422.5c5.9.2 23.1-10 23.1-10s-16.7-11-22.6-11.1a10.6 10.6 0 00-.5 21.1zM121.7 466c5.6-1.6 19-16.5 19-16.5s-19.2-5.5-24.9-3.9a10.6 10.6 0 005.9 20.4zM151.9 504.9c5.8-.7 21.5-13 21.5-13s-18-8.7-23.8-8a10.6 10.6 0 102.3 21z"/></g><path d="M716.7 806.4c28.7 12.4 63.8 4.8 96.3 5.7 4.5.1 9.2.5 12.8 2.7s5.3 5.6 7.8 8.6c9.1 11.2 27.8 14.7 44.2 12.8s31.3-8.1 46.8-12.9c26.6-8.2 57.1-12 83.4-3 2.4.9 5 1.8 7.5 1.5 5.8-.7 7.5-6.7 11.6-10.1 7.3-6.2 23-4.5 26.3-12.7 1.8-4.7-2.5-9.6-7.2-12.8-18-12.5-43.7-14.5-67.2-12.6s-46.7 7.2-70.3 7.2c-29.5 0-58-8.1-87.1-11.4-20.2-2.3-42.3-2-61.3 4.7-20.5 7.4-25 23.8-43.6 32.3zM173.4 768c49 14.2 108.8 5.6 164.4 6.6 7.6.1 15.7.5 21.8 3s9.1 6.4 13.3 9.7c15.6 12.6 47.5 16.7 75.4 14.5s53.5-9.2 79.8-14.5c45.6-9.4 97.6-13.6 142.5-3.4 4.1.9 8.5 2 12.9 1.6 9.8-.8 12.8-7.6 19.6-11.5 12.5-7 39.5-5 45-14.2 3.1-5.4-4.2-11-12.3-14.6-30.6-14-74.5-16.4-114.7-14.2s-79.7 8.2-120 8.2c-50.3 0-99-9.2-148.7-13-34.5-2.6-72.2-2.2-104.5 5.4-35 8.3-42.8 27-74.5 36.4zM42.2 802.6c14 8.4 31 3.3 47 4 2 0 4.4.2 6.1 1.7s2.6 3.8 3.8 5.8c4.4 7.5 13.5 10 21.5 8.7s15.2-5.5 22.8-8.7c13-5.6 27.8-8.1 40.6-2a6.4 6.4 0 003.6 1c2.8-.5 3.7-4.6 5.6-6.9 3.6-4.1 11.3-3 12.8-8.5 1-3.2-1.2-6.5-3.4-8.7-8.8-8.4-21.3-9.7-32.8-8.4s-22.7 4.8-34.2 4.8c-14.3 0-28.1-5.5-42.3-7.8a49.7 49.7 0 00-29.8 3.2c-10 5-12.2 16.2-21.3 21.8z" fill="#2874ca" opacity=".1"/><path d="M755 67.3H290.4a42.5 42.5 0 00-42.6 42.5v643.7a42.5 42.5 0 0042.6 42.5H755a42.5 42.5 0 0042.6-42.5V109.8A42.5 42.5 0 00755 67.3z" transform="translate(-59.5 -31.6)" fill="url(#a)"/><rect x="194.8" y="44.4" width="536.7" height="713.4" rx="20" ry="20" fill="#535461"/><path fill="#f6f7f9" d="M222.1 111.9h482.2v578.5H222.1z"/><circle cx="461" cy="77.1" r="6.5" fill="#f6f7f9"/><circle cx="461" cy="722.9" r="19.6" fill="#f6f7f9"/><path fill="#2874ca" d="M222.1 111.9h482.2v28.8H222.1z" opacity=".2"/><circle cx="237.1" cy="126.3" r="6.2" fill="#f6f7f9"/><circle cx="252.8" cy="126.3" r="6.2" fill="#f6f7f9"/><circle cx="268.5" cy="126.3" r="6.2" fill="#f6f7f9"/><path fill="#dce0ed" d="M236.5 281.9h449v1.5h-449zM236.5 316.8h449v1.5h-449zM236.5 351.6h449v1.5h-449zM236.5 386.4h449v1.5h-449zM236.5 421.3h449v1.5h-449z"/><path fill="#2874ca" d="M685.5 422.8H235.9v-68.5l41.2 20.3 42.7 5.8 37.4-11.3 45.2-35 22.7-13.2 16.6-3.2 16 .9 26 12.9 35.6 22.6 27.9 3.6 22-7.6 47-38.4 23.9-8.5 25 3.9 20.4 11.7v104z" opacity=".2"/><path d="M314.3 380.4c-40.5 0-78-24.8-78.4-25.1l1.1-1.7c.6.4 58.2 38.5 107.1 19.4 17.8-7 30.5-17.8 42.8-28.2 12.9-11 25-21.3 41.5-25.8a62 62 0 0155.4 12.5c13.4 11 40.2 28.8 68.5 23.5 14.4-2.8 26.6-13.3 39.4-24.4 24.7-21.4 50.2-43.5 94.4-11.8l-1.2 1.6c-42.9-30.8-67.8-9.2-91.9 11.7-13 11.3-25.4 22-40.3 24.8-29.1 5.5-56.5-12.6-70.2-23.9a60 60 0 00-53.6-12c-16 4.3-28 14.5-40.7 25.3a148.9 148.9 0 01-43.4 28.6 83.7 83.7 0 01-30.5 5.5z" fill="#2874ca"/><circle cx="452.5" cy="317.6" r="11.1" fill="#2874ca"/><path d="M597.7 170.3H457.3a2.3 2.3 0 00-2.3 2.3v95a2.3 2.3 0 004 1.5l24.3-26a2.3 2.3 0 011.7-.6h112.7a2.3 2.3 0 002.3-2.3v-67.6a2.3 2.3 0 00-2.3-2.3z" fill="#2874ca" opacity=".2"/><path fill="#f6f7f9" d="M487.5 187.9h80v10h-80zM487.5 210.1h21.9v10h-21.9z"/><path fill="#2874ca" d="M274.4 494.3h21.9v10h-21.9zM274.4 513.6h21.9v10h-21.9zM274.4 533h21.9v10h-21.9zM274.4 552.3h21.9v10h-21.9zM274.4 571.6h21.9v10h-21.9zM274.4 591h21.9v10h-21.9zM274.4 610.3h21.9v10h-21.9zM274.4 629.6h21.9v10h-21.9zM315.7 639.6h21.9v10h-21.9zM354.4 639.6h21.9v10h-21.9zM393.1 639.6H415v10h-21.9zM431.7 639.6h21.9v10h-21.9zM470.4 639.6h21.9v10h-21.9zM509.1 639.6H531v10h-21.9zM547.7 639.6h21.9v10h-21.9zM586.4 639.6h21.9v10h-21.9zM625 639.6h21.9v10H625z" opacity=".2"/><path fill="#f6f7f9" d="M534.1 210.1h33.3v10h-33.3z"/><path fill="#2874ca" d="M315.7 567h21.9v62.7h-21.9zM354.4 538h21.9v91.7h-21.9zM393.1 513.6H415v116h-21.9zM431.7 526.3h21.9v103.4h-21.9zM470.4 504.3h21.9v125.3h-21.9z"/><path fill="#2874ca" d="M509.1 552.3H531v77.3h-21.9zM547.7 552.3h21.9v77.3h-21.9zM586.4 552.3h21.9v77.3h-21.9zM625 552.3h21.9v77.3H625z" opacity=".2"/><path d="M1049 304.1c-23.8-13.6-32.8-17-32.8-17l-.5-.4a19.9 19.9 0 01-6-7.6v-1.6.2c.4-7.3 5.5-13.8 10.4-19.6l12.5-14.7a14.3 14.3 0 003.2-5.1 11.4 11.4 0 00.4-3.1v-1.3c0-3.7-.2-7.3-.3-11-.1-3.2-1-7.2-4.1-7.9-1.7-.3-3.9.3-4.8-1.1a2.7 2.7 0 01-.2-2 .8.8 0 000 .2v-.2a42.4 42.4 0 001.2-7.5 10.4 10.4 0 00-.5-3.8c-1.9-5.3-8.2-7.4-13.9-8.4s-11.9-2-15.4-6.3c-1.1-1.4-1.8-3-3-4.2a12.2 12.2 0 00-5.8-2.9 32.5 32.5 0 00-21 1.8c-2.7 1.3-5.4 2.9-8.4 2.7s-5.7-2.3-8.8-2.8c-5-.9-9.7 2.8-12 7a17.3 17.3 0 00-2.3 8.4v.5a12.2 12.2 0 003.2 8.5c2.1 2.2 5.3 3.8 6.2 6.7.3 1.1.2 2.4.6 3.6l.1.5-.2.2a37 37 0 00-7.8 22.8 37.9 37.9 0 0026.6 36v1.1a16 16 0 01-5.1 12.6l-33.7 13.5s-20.3-2.4-27.6 27.3a50.1 50.1 0 00-1.3 15c.3 4.5-.3 12.4-5.5 22.6-8.3 16.3-6.4 53.7 10.6 57.4 16 3.5 22.3 2 23 1.9v.6c-.3 7-2.8 67.6-12.1 75-2.6 2-2 3.3 0 4.3v1c-.3 4.5-1.8 21.4-8 31-7.2 11-6.4 75.2-6.4 75.2l-4.9 37.8s3 23.3 0 27.4c-2.7 3.6-6.3 90-7 108.7h-.3a9 9 0 00-7.2 4.5 128 128 0 01-18 18.3c-3 4.3-14.1 8.4-20 10.4a12.2 12.2 0 00-2.3 1 12 12 0 00-5 5.3 5.8 5.8 0 00-.6 4.5c1.5 3.7 32.9 6.3 40.8 2.6 6.3-3 31-6.8 41.3-8.3a8.5 8.5 0 007.3-7.3 4.8 4.8 0 00-1-3.7c-2-2.4-3-9-3.4-13.4a8.9 8.9 0 002.3-1.4 98.5 98.5 0 015.7-39.6c7.6-20 9.8-57.1 8-81.2 0 0 23-99.3 41.2-108.6.3.4 9.1 11.7 10.2 46.7 1.2 35.6 14 59 14 59s-5.6 60.3 0 83l-7.4 35.6-.9-.8.6 2.5-.2.8h.3c.9 4.5 2.1 12.3 1.6 16.9-.3 2.6-1 6.1-1.5 9.6-.8 5.5-1 10.8 1.9 12 4.7 1.9 32.5 4.5 37.2-1.6a8.8 8.8 0 001.4-9.2 9.3 9.3 0 00-1.4-2.3s-7.3-12-5.3-20.6a6.2 6.2 0 00-.8-4.9c.3-4.1 2-23.5 6.3-39.9 4.7-17.8 14.7-57 7.4-82.6l-1-3a110.8 110.8 0 01-4.1-43.4 88.3 88.3 0 010-37.8c4.5-20.7 7.7-41.1 7.7-41.1s2.5-27.4.3-44.2l-.1-1.1 1.2-.3s-6.5-28.5-8.7-46.7l-2-15.5a37.6 37.6 0 006.1-1.5c20.4-7 26.8-70.8 26.8-70.8v-20.2s6.8-31-17-44.7zM896.8 796.3l-1-.5z" transform="translate(-59.5 -31.6)" fill="url(#b)"/><path d="M977.2 640.3c8.8 25.4-1.5 66.8-6.3 85.3s-6.3 40.6-6.3 40.6c-18.8 3-32.5-.8-32.5-.8l7.8-38c-5.6-22.5 0-82.7 0-82.7s-12.6-23.2-13.7-58.7c-1.1-34.9-9.7-46.2-10-46.5-17.7 9.2-40.3 108.2-40.3 108.2 1.9 24-.3 61-7.7 80.8a100.2 100.2 0 00-5.5 39.6c-2.6 2.1-6.2 2.5-10.1 1.9-10.5-1.8-23.1-10.8-23.1-10.8s4-107.9 7-112 0-27.3 0-27.3l4.8-37.6s-.8-63.9 6.3-75c6-9.6 7.4-26.4 7.7-30.8v-1l10.7-12.9s103.4-7.7 111.2 0c1.9 2 3 6.2 3.7 11.7 2.2 16.7-.3 44-.3 44s-3 20.4-7.5 41a89.6 89.6 0 000 37.7 112.5 112.5 0 004 43.3z" fill="#65617d"/><path d="M970.7 802.2c-4.6 6-31.8 3.5-36.4 1.6-2.8-1.2-2.6-6.5-1.8-12 .5-3.4 1.2-7 1.5-9.6.7-6.6-2.3-20-2.3-20s6.1 6.4 7.6 0c.7-3 3-4.4 5.3-5a13.8 13.8 0 019.6.5c4.8 2 12.8 6.5 11.3 12.5-2 8.5 5.2 20.5 5.2 20.5a9.4 9.4 0 011.3 2.4 8.9 8.9 0 01-1.3 9z" fill="#a27772"/><path d="M970.7 802.2c-4.6 6-31.8 3.5-36.4 1.6-2.8-1.2-2.6-6.5-1.8-12 2.9 1.4 7.8 2.6 16.1 1.8a47 47 0 015.8-.2 134 134 0 0017.6-.3 8.9 8.9 0 01-1.3 9zM876 647.6c1.8 24-.4 61-7.8 81a100.2 100.2 0 00-5.5 39.4c-2.6 2.2-6.2 2.6-10 2 2.2-15.6 11.6-82.7 17.8-135.7 6.9-60.4 39.3-102 39.3-102l6.4 7.2c-17.7 9.2-40.2 108.1-40.2 108.1z" opacity=".1"/><path d="M959.6 259.6l-4.5 22.1-22 37.1-27.3-11.6s-37-38.8-13.8-44.3a20.4 20.4 0 007.8-3.5c4.5-3.4 6-8.4 6-13.3 0-8.1-3.8-15.9-3.8-15.9l47.6-15a76 76 0 00-3.4 19.3c-.4 13 4.5 19.4 8.4 22.4a14.4 14.4 0 005 2.7z" fill="#fbbebe"/><path d="M949.6 215.3a76 76 0 00-3.4 19.2 35 35 0 01-2.8 3 37.7 37.7 0 01-37.6 8.6c0-8.1-3.8-15.9-3.8-15.9z" opacity=".1"/><path d="M955.1 209.2a37.7 37.7 0 11-37.6-37.7 37.5 37.5 0 0137.6 37.7z" fill="#fbbebe"/><path d="M959.6 259.6l-4.5 22.1-22 37.1-27.3-11.6s-37-38.8-13.8-44.3a20.4 20.4 0 007.8-3.5c-4.2 11.6 13.1 35.6 13.1 35.6 2 3 6.7 1.1 6.7 1.1 11.1-1.7 31.7-33.8 35-39.1a14.4 14.4 0 005 2.6zM981 474.4c-6.6 1.4-42.9 9.5-56.7 7.5-15-2.2-44.5-3.7-44.5-3.7s-18.8 1-24.5-1.6v-1.1l10.7-12.8s103.4-7.8 111.1 0c2 1.9 3.1 6.2 3.8 11.7z" opacity=".1"/><path d="M912.9 296.1s-19.5-27-12.1-37.5l-33 13.5s-19.8-2.4-27 27.2a51.1 51.1 0 00-1.2 15c.3 4.4-.3 12.3-5.4 22.4-8.1 16.3-6.3 53.6 10.3 57.3s22.6 1.8 22.6 1.8-2.2 67.6-11.8 75.3 24.4 6 24.4 6 29.5 1.4 44.6 3.6 57.6-7.7 57.6-7.7-6.3-28.4-8.5-46.5-7.4-56.7-7.4-56.7l37.7-51s6.6-30.8-16.6-44.4-32-17-32-17-23.4 38-35.5 39.8c0 0-4.7 1.9-6.7-1z" fill="#7c7cdd"/><path d="M869.7 306.8s-.4 12.2 1.8 17 10.4 31.4 10.4 31.4h-18.5s10-10.7 9.3-15.9-3-32.5-3-32.5z" opacity=".1"/><path d="M924.4 398.8s-40.8-10-44.6-18.5-14.3-27.5-14.3-27.5l4.3-5.8 19.8 15.6s23.6 18.8 34.7 20.7 0 15.5 0 15.5z" fill="#fbbebe"/><path d="M924.4 398.8s-40.8-10-44.6-18.5-14.3-27.5-14.3-27.5l4.3-5.8 19.8 15.6s23.6 18.8 34.7 20.7 0 15.5 0 15.5z" opacity=".1"/><path d="M959.6 350.8v22H956a103.5 103.5 0 00-50.2 13l-6.6 3.8-1.8 1-11.5-25.8 10.8-9.6h.5c2.6.3 14 1.2 18.8-.4 4.5-1.6 10.2-6.5 23.6-3 6.6 1.7 12.3 9.1 18.7 6.8z" fill="#fbbebe"/><path d="M995.2 310.5l7.4 8.3V339s-6.3 63.5-26.2 70.5-55.5-4-55.5-4-9.2-24.5-5-26 38-10.3 38-10.3-.4-37.3 7-48.3c0 0-4.8-34.7 11.8-35.5s22.5 25.1 22.5 25.1z" opacity=".1"/><path d="M996.3 310.5l7.4 8.3V339s-6.2 63.5-26.2 70.5-55.6-4-55.6-4-9.2-24.5-4.9-26 38-10.3 38-10.3-.4-37.3 7-48.3c0 0-4.8-34.7 11.8-35.5s22.5 25.1 22.5 25.1z" fill="#7c7cdd"/><path d="M944.8 225.2c.1-2.5.2-5-.9-7.2s-3.5-4-5.8-3.4c-3.2.7-4.6 4.8-7.7 5.8-2.6.9-5.4-1-6.7-3.4s-1.2-5.3-1.2-8v-9.3c0-3.3-.2-7-2.2-9.6-2.6-3.3-8.6-4.7-12.7-4.6a10.7 10.7 0 00-7.2 3c-2.2 1.8-4.7 3.1-7.6 2.6a6.6 6.6 0 01-5.3-4.6 37.7 37.7 0 1156 50 100.7 100.7 0 001.3-11.3z" opacity=".1"/><path d="M892.8 190a6.6 6.6 0 01-5.3-4.6c-.3-1.2-.3-2.5-.6-3.7-.9-2.9-4-4.4-6-6.6-4.2-4.4-4-11.6-1-17 2.4-4.2 7-7.9 11.8-7 3 .5 5.6 2.6 8.6 2.8s5.6-1.4 8.3-2.6a31 31 0 0120.4-1.9 11.9 11.9 0 015.6 2.9 50 50 0 013 4.2c3.5 4.4 9.6 5.2 15.1 6.2s11.7 3.2 13.5 8.5c1.2 3.5 0 7.3-.6 11a3.2 3.2 0 00.1 2.2c.9 1.4 3 .8 4.6 1.1 3.1.7 4 4.7 4 7.9l.3 10.9a10.7 10.7 0 01-3.5 9.1L959 228.1c-5.5 6.5-11.2 14-10.1 22.4-2.6 1.2-5.6-1-6.4-3.7s-.2-5.6.4-8.3a101.7 101.7 0 001.9-14.5c.1-2.4.2-5-.9-7.2s-3.4-4-5.8-3.3c-3.2.7-4.5 4.8-7.6 5.8-2.6.8-5.5-1-6.7-3.5s-1.3-5.3-1.3-8v-9.2c0-3.4-.1-7-2.2-9.6-2.6-3.3-8.6-4.8-12.7-4.6a10.7 10.7 0 00-7.2 2.9c-2.2 1.8-4.7 3.2-7.6 2.7z" fill="#7c5c5c"/><path d="M901.3 305.9l11.5 47.5s9.2 0-11.5-47.5zM940.8 298s-15.2 24.8-9.2 50.4l2.8.2s-5-11.9 6.4-50.6zM950.4 438.3s18.6-6.2 20 8.1c0 0-3.6-9.8-20-8.1zM896.6 356.4s-3.6 25.8 3 36.1c0 0-13.5 5.6-32.5 4.5l-2.2-40.6z" opacity=".1"/><path d="M899.2 389.6l-1.8 1-11.5-25.8 10.8-9.6h.5c-.2 1.2-3.1 23.4 2 34.4z" opacity=".1"/><path d="M896.6 355.2s-3.6 25.8 3 36.2c0 0-13.5 5.5-32.5 4.4l-12.9-40.6z" fill="#7c7cdd"/><path d="M864.7 786.5a8.3 8.3 0 01-7.2 7.3c-10 1.5-34.1 5.3-40.2 8.2-7.8 3.7-38.4 1.1-40-2.6a5.9 5.9 0 01.6-4.4 12 12 0 015-5.4 12.3 12.3 0 012.2-1c5.8-1.9 16.7-6 19.7-10.3 0 0 13.5-11.9 17.4-18.3a8.9 8.9 0 017.1-4.4c3.3-.2 6.9 1.5 8.3 8.6 0 0 17.7 10 22.5 1.2 0 0 .8 13.6 3.7 17.3a5 5 0 011 3.8z" fill="#a27772"/><path d="M864.7 786.5a8.3 8.3 0 01-7.2 7.3c-10 1.5-34.1 5.3-40.2 8.2-7.8 3.7-38.4 1.1-40-2.6a5.9 5.9 0 01.6-4.4 12 12 0 015-5.4c5 3.4 16.1 6.6 40.5 2.8a178 178 0 0040.4-9.6 5 5 0 011 3.7z" opacity=".1"/><g opacity=".1"><path d="M965.5 182.7v-.2c.5-2.8 1.3-5.7 1.1-8.4a53.7 53.7 0 01-1.1 6.7 4 4 0 000 1.8zM944 217.2a10.9 10.9 0 01.8 4.2 12.6 12.6 0 00-.9-5.8c-1-2.3-3.4-4-5.8-3.4-3.2.7-4.5 4.8-7.6 5.8-2.7.8-5.5-1-6.8-3.5s-1.2-5.3-1.2-8v-9.2c0-3.4-.1-7-2.2-9.6-2.6-3.3-8.6-4.8-12.7-4.6a10.7 10.7 0 00-7.2 2.9c-2.2 1.8-4.7 3.2-7.6 2.7a6.6 6.6 0 01-5.3-4.6c-.3-1.2-.2-2.4-.6-3.6-.9-3-4-4.4-6-6.6a12 12 0 01-3.1-7.9 12.6 12.6 0 003.1 9.5c2 2.2 5.2 3.7 6 6.6.4 1.2.3 2.5.6 3.7a6.6 6.6 0 005.3 4.6c3 .4 5.4-1 7.6-2.8a10.7 10.7 0 017.2-2.9c4-.1 10.1 1.3 12.7 4.6 2 2.7 2.2 6.3 2.2 9.6v9.3c0 2.7 0 5.6 1.2 8s4.1 4.3 6.7 3.5c3.2-1 4.5-5.1 7.7-5.9 2.4-.5 4.8 1.2 5.8 3.4zM974.3 207a14.2 14.2 0 01-3.2 5.1q-6 7.4-12.2 14.7c-5 6.1-10.5 13.3-10.1 21.1.3-7.2 5.4-13.7 10.1-19.5l12.2-14.6a14.3 14.3 0 003.2-5.1 13.7 13.7 0 00.3-4 9.6 9.6 0 01-.3 2.3zM942.5 245.5a8.8 8.8 0 01-.4-2 10 10 0 00.4 3.6c.8 2.7 3.9 4.9 6.4 3.7l-.1-1.6c-2.6 1-5.5-1-6.3-3.7z"/></g><path d="M819.7 763.4s3.9 6.7 17.9.8M938 765s12 14.2 27.2 4.7M973 597s-8.4 5.4-8.7 8.4 4.4-2.2 4.4-2.2zM976.5 637.9a17.8 17.8 0 01-10.5 4c-6.4.4-5.9 8.7-1.7 6.2s12.2-10.2 12.2-10.2zM978 643.2s-4 20.1-7.3 16.2" opacity=".1"/><path d="M136.8 736.7s5.4 7.2-2.6 18-14.6 20-12 26.8c0 0 12.1-20.2 22-20.4s3.4-12.3-7.4-24.4z" fill="#2874ca"/><path d="M136.8 736.7a8.6 8.6 0 011 2.3c9.7 11.3 14.8 21.8 5.6 22-8.6.3-19 15.7-21.4 19.6a9 9 0 00.2.9s12.2-20.1 22-20.4 3.4-12.3-7.4-24.4z" opacity=".1"/><path d="M147 745.9c0 2.5-.3 4.5-.7 4.5s-.6-2-.6-4.5.4-1.4.7-1.4.6-1.1.6 1.4z" fill="#ffd037"/><path d="M150.5 748.9c-2.2 1.2-4.2 2-4.4 1.6s1.5-1.5 3.8-2.7 1.3-.4 1.5 0 1.3-.1-1 1z" fill="#ffd037"/><path d="M107.7 736.7s-5.5 7.2 2.6 18 14.6 20 12 26.8c0 0-12.1-20.2-22-20.4s-3.4-12.3 7.4-24.4z" fill="#2874ca"/><path d="M107.7 736.7a9 9 0 00-1 2.3c-9.7 11.3-14.8 21.8-5.6 22 8.6.3 19 15.7 21.4 19.6a7 7 0 01-.3.9s-12-20.1-22-20.4-3.3-12.3 7.5-24.4z" opacity=".1"/><path d="M97.5 745.9c0 2.5.3 4.5.7 4.5s.6-2 .6-4.5-.4-1.4-.7-1.4-.6-1.1-.6 1.4z" fill="#ffd037"/><path d="M94 748.9c2.3 1.2 4.2 2 4.4 1.6s-1.6-1.5-3.8-2.7-1.3-.4-1.5 0-1.3-.1 1 1z" fill="#ffd037"/><path d="M99.3 780.6s15.3-.5 20-3.8 23.6-7.2 24.8-2 23 26.3 5.7 26.5-40.3-2.7-45-5.5-5.5-15.2-5.5-15.2z" fill="#a8a8a8"/><path d="M150 799.4c-17.2.2-40.2-2.7-44.8-5.5-3.5-2.1-5-9.8-5.4-13.4h-.5s1 12.4 5.6 15.2 27.5 5.7 44.9 5.6c5 0 6.7-1.9 6.6-4.5-.7 1.6-2.6 2.6-6.3 2.6z" opacity=".2"/></svg>