<svg data-name="Layer 1" xmlns="http://www.w3.org/2000/svg" width="1144" height="698"><defs><linearGradient id="a" x1="2612" y1="795.2" x2="2612" y2="399.5" gradientTransform="matrix(-1 0 0 1 3436 0)" gradientUnits="userSpaceOnUse"><stop offset="0" stop-color="gray" stop-opacity=".3"/><stop offset=".5" stop-color="gray" stop-opacity=".1"/><stop offset="1" stop-color="gray" stop-opacity=".1"/></linearGradient></defs><path d="M1144 415.3a180.6 180.6 0 01-26.1 93.9 118 118 0 01-42.3 88.9 144.7 144.7 0 01-21.1 15.2 28 28 0 01-2.6 1.6l-.6.3a164.6 164.6 0 01-81 20.8H217.1q-9 0-17.9-.7a211.2 211.2 0 01-61-14.2q-5.8-2.2-11.3-4.8l-5.1-2.5-3.2-1.7a187.4 187.4 0 01-34.5-23.4c-34-29.2-55-69.6-55-114.2A180.5 180.5 0 010 375.8c0-99.1 79.2-179.5 177-179.5a169 169 0 0110.3.3 305 305 0 0165-76.6C324.5 58.1 430 19 547.7 19 646.5 19 737 46.7 806 92.3a174.2 174.2 0 0186-22.6c97.7 0 177 80.4 177 179.5a184.9 184.9 0 01-1 18.8 180 180 0 0176 147.4z" fill="#2874ca" opacity=".1"/><g opacity=".2"><path d="M138.4 619.8l-.1 1.3q-5.8-2.2-11.3-4.8a9.1 9.1 0 01-5.1-2.5l-3.2-1.7a13.7 13.7 0 01.8-1.5c2-3.2 5.2-5.3 8.6-5.2s6.5 2.4 8.3 5.7a16.9 16.9 0 012 8.7z" fill="#3f3d56"/><path d="M139 602.7a16.9 16.9 0 01-2.6 8.4c-2 3.3-5.2 5.3-8.6 5.2h-.7a9.1 9.1 0 01-5.2-2.5 12.5 12.5 0 01-2.4-3.2 17.6 17.6 0 01.5-17c2-3.4 5.2-5.4 8.7-5.3s6.4 2.4 8.2 5.7a16.9 16.9 0 012 8.7z" fill="#3f3d56"/><ellipse cx="156.8" cy="686.2" rx="14" ry="10.7" transform="rotate(-88.2 90.6 650.2)" fill="#3f3d56"/><ellipse cx="157.3" cy="669.1" rx="14" ry="10.7" transform="rotate(-88.2 91.2 633)" fill="#3f3d56"/><ellipse cx="157.8" cy="652" rx="14" ry="10.7" transform="rotate(-88.3 91.3 615.3)" fill="#3f3d56"/><path d="M93.5 432.5a49.7 49.7 0 01-3.8-6l28.2-3.7-30.4-.7a51.4 51.4 0 01.3-40.7L128 404 91.2 375a51.3 51.3 0 1182.8 60 51.1 51.1 0 015.6 9.6l-37.1 17.8 39.3-11.8a51.3 51.3 0 01-9.8 47.9 51.3 51.3 0 11-80.6-2.6 51.3 51.3 0 012-63.3z" fill="#2874ca"/><path d="M184 467.1a51 51 0 01-12 31.4 51.3 51.3 0 11-80.6-2.6c-6.5-8.9 92.8-34.5 92.6-28.8z" opacity=".1"/></g><path d="M958 138.4v479.2a18.4 18.4 0 01-18.4 18.4H204.4a18.1 18.1 0 01-5-.7 18.4 18.4 0 01-13.4-17.7V403.7 196.6l1.3.1a305 305 0 0165-76.6h687.3a18.4 18.4 0 0118.4 18.4z" fill="#fff"/><rect x="712.2" y="182.2" width="137.8" height="36" rx="18" fill="#3f3d56"/><rect x="721.1" y="188.2" width="119.9" height="23.9" rx="12" opacity=".1"/><rect x="794.7" y="189.6" width="43.3" height="21.3" rx="10.7" fill="#2874ca"/><circle cx="816" cy="200.2" r="6.7" fill="#fff"/><rect x="712.2" y="419.3" width="137.8" height="36" rx="18" fill="#3f3d56"/><rect x="721.1" y="425.3" width="119.9" height="23.9" rx="12" opacity=".1"/><rect x="794.7" y="426.6" width="43.3" height="21.3" rx="10.7" fill="#2874ca"/><circle cx="816" cy="437.3" r="6.7" fill="#fff"/><rect x="712.2" y="537.8" width="137.8" height="36" rx="18" fill="#3f3d56"/><rect x="721.1" y="543.8" width="119.9" height="23.9" rx="12" opacity=".1"/><rect x="794.7" y="545.1" width="43.3" height="21.3" rx="10.7" fill="#2874ca"/><circle cx="816" cy="555.8" r="6.7" fill="#fff"/><rect x="294" y="159.6" width="80.6" height="21.3" rx="10.7" fill="#2874ca"/><rect x="294" y="189.6" width="223.7" height="21.3" rx="10.7" fill="#2874ca"/><rect x="294" y="219.5" width="223.7" height="21.3" rx="10.7" fill="#2874ca"/><g opacity=".5" fill="#2874ca"><rect x="294" y="278.1" width="80.6" height="21.3" rx="10.7"/><rect x="294" y="308.1" width="167" height="21.3" rx="10.7"/><rect x="294" y="338" width="223.7" height="21.3" rx="10.7"/></g><rect x="294" y="396.6" width="80.6" height="21.3" rx="10.7" fill="#2874ca"/><rect x="294" y="426.6" width="223.7" height="21.3" rx="10.7" fill="#2874ca"/><rect x="294" y="456.6" width="139" height="21.3" rx="10.7" fill="#2874ca"/><rect x="294" y="515.2" width="80.6" height="21.3" rx="10.7" fill="#2874ca"/><rect x="294" y="545.1" width="223.7" height="21.3" rx="10.7" fill="#2874ca"/><rect x="294" y="575.1" width="180" height="21.3" rx="10.7" fill="#2874ca"/><path fill="none" stroke="#3f3d56" stroke-linecap="round" stroke-miterlimit="10" opacity=".7" d="M260 260h652M260 380.5h652M260 501h652M260 624.5h652"/><ellipse cx="795" cy="687.5" rx="147.7" ry="10.5" fill="#2874ca" opacity=".1"/><circle cx="70.5" cy="141.2" r="21.6" fill="#2874ca" opacity=".1"/><circle cx="160.7" cy="21.6" r="21.6" fill="#2874ca" opacity=".1"/><circle cx="153.3" cy="103.8" r="36.3" fill="#2874ca" opacity=".1"/><rect x="712.2" y="300.8" width="137.8" height="36" rx="18" fill="#3f3d56"/><rect x="721.1" y="306.8" width="119.9" height="23.9" rx="12" opacity=".1"/><path d="M753.2 762c1.5-.2 3.1-.6 4.6-1a14.6 14.6 0 01-1.3 4.5c-1.5 3-4.5 4.7-7.2 6.5a2.3 2.3 0 00-2.9-.2c-3.3 2-6 4.8-9.4 6.5-1.3.6-2.6 1-3.8 1.8a20 20 0 00-7 7.2c-1 1.5-1.8 3.6-.8 5.1a4.4 4.4 0 001.4 1.3 8 8 0 005 1.4c1 0 2-.4 3-.6 1.4-.2 2.8-.1 4.1-.2a24.3 24.3 0 005.9-1.5l6.9-2.4a39.7 39.7 0 005.6-2.4c1.1-.6 2.1-1.3 3.2-1.8a26 26 0 013.9-1.4l3.9-1a3.8 3.8 0 011.8-.3c.5 0 1 .4 1.5.6a4.7 4.7 0 002.5-.3l4.5-1.3a8.5 8.5 0 002.7-1c2-1.6 2.5-4.5 2.4-7a52.6 52.6 0 00-1.3-11.5 3.6 3.6 0 00-1.4 1.1 21.4 21.4 0 00-1.5-1.9 22.3 22.3 0 01-4.5-8.3 14.7 14.7 0 004-4.5 98.6 98.6 0 00-9.7-26.4c-1.6-2.6-3.4-5-5-7.7-4.7-7.5-5.7-17-11.1-24a4.2 4.2 0 010-4.8c.6-.9 1.6-1.6 1.4-2.7-.1-.7-.9-1.4-.6-2 .1-.4.5-.5.7-.8 1-.9.8-2.3 1-3.6.1-3.1 2-6 3.8-8.5a5.3 5.3 0 011.5-1.6l1.5-.7c1.7-1.1 1.6-3.6 2.4-5.5 1.1-2.5 3.8-3.7 5.6-5.8 2.3-2.5 2.9-6 5.3-8.3a6.1 6.1 0 01.8-.6A40.2 40.2 0 00775 658c-.2 13.5 3.2 27.5 1.6 41a28.3 28.3 0 0014.5 26.6 69.3 69.3 0 0011.3 4.8c5.8 2 11.5 4.2 17.2 6.6q6 2.5 11.8 5.4a147.3 147.3 0 0114 7.8 54.2 54.2 0 0115.1 12.5 12 12 0 006.7-2.4c1.5 1.2 3.4 2 4.8 3.4a14.5 14.5 0 013.8 7.5h-.6l.2 4a1.7 1.7 0 01-.2 1 1.8 1.8 0 01-.5.5l-3 2c-2.3 1.6-4.8 3.5-5 6.2a3.1 3.1 0 00.7 2.2 4.7 4.7 0 002.8 1.2 48.3 48.3 0 0016.3 1.5c2.5-.3 5.2-1.2 6.9-3.2 1.5-1.8 2-4.3 2.4-6.6.7-4 1.2-8.1 1.7-12.2a26.9 26.9 0 011.6-8 1 1 0 01.5-.6h.7c.2 0 .4-.6.5-.9a47.7 47.7 0 001.4-12 8.1 8.1 0 00-.4-3.1 6.3 6.3 0 00-4.3-3.3 34 34 0 00-5.6-.7 27.5 27.5 0 01-4.5-.8 4.2 4.2 0 00-2-.3 1.3 1.3 0 00-1.1 1.3 1.7 1.7 0 00.2.7l-1.5-.3c-1.3-.2-3-.8-5-1.3l.1-1a1.9 1.9 0 00-1-1.7l-26.4-14.1-5-2.6c-10.8-5.8-22-11.2-32.8-17-.8.3-1.4-.6-1.6-1.3s-.3-1.6-1-2c-.4-.1-.8-.1-1-.4a1.2 1.2 0 01-.2-.9c.3-5.3 4.1-10.1 3.4-15.3-.4-2.3-1.5-4.5-1-6.7.3-1.5 1.4-2.7 2-4.2 1.3-3.2 0-7 1.4-10.2a23.7 23.7 0 001.9-6.5 44.8 44.8 0 014-13 23.4 23.4 0 013.7-5.6l2.5-2.5a21 21 0 003.8-10c1.1-6.4 2-13.1.5-19.5-.5-2.1-1.3-4.3-1.3-6.5 0-2.6 1.1-5.7-.2-7.8a6.9 6.9 0 002.5-4.3 5.5 5.5 0 01.4-1.8 5.1 5.1 0 011.6-1.5 7 7 0 002.6-6.8c1.4.6 2.8-.8 3.5-2.2s1.1-3 2.5-3.6c1-.4 2-.2 3-.4 1.6-.4 2.6-2 3.7-3.2 2.3-2.4 5.5-3.7 8.5-5.2 8.8-4.5 16-11.7 23.1-18.7a78.4 78.4 0 0010-11.2l2.2-3.7h.2v.2l.4 1.3 1 3c1.1 3 2.3 6.3 4.5 8.5a10.5 10.5 0 002.3 1.8 15.3 15.3 0 005.8 1.8 30.9 30.9 0 004.8.3l16.1.4c-5.5-8-6-18.6-5.6-28.4 1-25.2 5.8-50.6 1.3-75.4-.6-3-1.3-6-3.1-8.4-2.4-3.2-6.4-4.7-10.2-5.6s-7.8-1.3-11.4-2.9c-3-1.4-5.8-3.6-9-4.3a19.8 19.8 0 00-7.2.1q-4.4.7-8.7 1.6l-.7.1-.5.1h-.1l-.4.1h-.2l-.4.1h-.2l-.3.2h-.3l-.3.2h-.2l-.3.2-.3.1-.3.1-.2.2h-.3l-.2.2-.3.2-.2.1-.2.2-.3.1-.2.2-.2.2-.2.2a2.4 2.4 0 00-.2.2l-.2.2a3 3 0 00-.2.3l-.1.1-.3.4a6 6 0 00-.6 1.3l-.2.6a9.5 9.5 0 00-.2 1.3v2a19.6 19.6 0 00.2 2.2 24.4 24.4 0 00-1.1 41.3 11 11 0 010 1.2v.2a33 33 0 01-.4 4.2 58.7 58.7 0 00-12-1c-2.4 0-4.8.2-7.2.4a109.1 109.1 0 01-7.3-9.8l-5.3-7.8a74.6 74.6 0 01-5-8c-1.3-2.6-2.3-5.3-3.8-7.7-3-5.1-7.9-9.4-8.5-15.3l-1.4.3c-.8-1.3-1.8-2.6-2.1-3.3a65.5 65.5 0 01-4.5-13c-.5-2.3-.8-4.8-2-6.8a15.2 15.2 0 00-3.2-3.3 20.6 20.6 0 00-6.7-4.2 8.6 8.6 0 00-6.8.4 10 10 0 00-1-.4 8.3 8.3 0 00-7.5 1c-2.1 1.5-3 4.3-3.3 7a17.3 17.3 0 001.7 10.5c2 3.6 5.6 6 8.6 8.9a34.6 34.6 0 015.3 6.7 73.2 73.2 0 01-.4 16.2c-.4 2.3-1 4.5-1.2 6.8-.7 8.4 3.7 16.8 2.1 25a6.1 6.1 0 002.8 6.5c2.3 1.2 5 1.4 7.4 2 4.8 1.3 9 4.3 13.9 5.5 2.2.5 4.5.6 6.8 1.2l.3.1a16.3 16.3 0 00-3.6 6.9c-1 4.2 0 8.7-1 12.9-.8 3.4-2.9 6.4-5 9.4l-11.7 17a104.1 104.1 0 01-8.6 11.3c-5.4 6-14.7 10.6-17.4 17.7l-.2-.5c-4 2.8-5.4 8.1-8.5 11.8-1.5 1.8-3.3 3.3-5 5a56.5 56.5 0 00-5.5 6.8c-4.6 6.4-9.2 12.8-12.5 20-1.7 3.6-3 7.5-4.4 11.4-5.4 15.1-14.2 29.5-17.8 45.2-1 3.8-3.3 7.3-3.6 11.2-.4 4.2 1.5 8.2 3.5 12 3 5.6 6.3 11 9 16.8 1.6 3.4 3 6.9 4.7 10.2 1.9 3.6 4.2 7 6.2 10.5 4.9 9.1 7.7 19.2 10.3 29.1zm66.1-286.6l-.5-.2a16.6 16.6 0 01-4.8-3.2 37.5 37.5 0 01-8-20c5.3 7.5 10.2 15.2 13.3 23.5z" transform="translate(-28 -101)" fill="url(#a)"/><path d="M771.7 314.4c-.5-2.3-.9-4.7-2.1-6.7a15.2 15.2 0 00-3.2-3.3 20.7 20.7 0 00-6.6-4.1 8.3 8.3 0 00-7.6.8c-2.1 1.6-3 4.4-3.3 7a17 17 0 001.8 10.6c2 3.5 5.5 6 8.5 8.8a34.4 34.4 0 015.6 7 20.2 20.2 0 002.5 3.7 4.8 4.8 0 004 1.6 7 7 0 003.3-2c1.2-1 4.5-3 4.6-4.6 0-1.4-2.5-4.5-3.1-5.8a65.4 65.4 0 01-4.4-13z" fill="#fbbebe"/><path d="M771.7 314.4c-.5-2.3-.9-4.7-2.1-6.7a15.2 15.2 0 00-3.2-3.3 20.7 20.7 0 00-6.6-4.1 8.3 8.3 0 00-7.6.8c-2.1 1.6-3 4.4-3.3 7a17 17 0 001.8 10.6c2 3.5 5.5 6 8.5 8.8a34.4 34.4 0 015.6 7 20.2 20.2 0 002.5 3.7 4.8 4.8 0 004 1.6 7 7 0 003.3-2c1.2-1 4.5-3 4.6-4.6 0-1.4-2.5-4.5-3.1-5.8a65.4 65.4 0 01-4.4-13z" opacity=".1"/><path d="M840.9 380.2a58.9 58.9 0 00-16.2-2c-9.1.2-18.5 2.4-27.2-.4a47.4 47.4 0 01-6.5-2.8 16.6 16.6 0 01-4.9-3.2 37 37 0 01-7.5-17.6 117.4 117.4 0 01-2-18.7c-2.3 1-4.7 2-7.1 1.8s-5-2-5-4.5a76 76 0 01-.4 17.4c-.3 2.3-1 4.5-1.1 6.8-.8 8.4 3.6 16.7 2 24.9a6 6 0 002.9 6.4c2.2 1.2 4.8 1.4 7.3 2 4.8 1.2 9 4.3 13.9 5.5 2.3.5 4.6.6 6.8 1.2 3.2.8 6.1 2.7 9.4 3.3 2.4.4 5 0 7.4.3 2.2.2 4.3.7 6.4.8 5.3.1 10.3-2.8 13.8-6.8s5.7-9.6 8-14.4z" fill="#f86d70"/><path d="M840.9 380.2a58.9 58.9 0 00-16.2-2c-9.1.2-18.5 2.4-27.2-.4a47.4 47.4 0 01-6.5-2.8 16.6 16.6 0 01-4.9-3.2 37 37 0 01-7.5-17.6 117.4 117.4 0 01-2-18.7c-2.3 1-4.7 2-7.1 1.8s-5-2-5-4.5a76 76 0 01-.4 17.4c-.3 2.3-1 4.5-1.1 6.8-.8 8.4 3.6 16.7 2 24.9a6 6 0 002.9 6.4c2.2 1.2 4.8 1.4 7.3 2 4.8 1.2 9 4.3 13.9 5.5 2.3.5 4.6.6 6.8 1.2 3.2.8 6.1 2.7 9.4 3.3 2.4.4 5 0 7.4.3 2.2.2 4.3.7 6.4.8 5.3.1 10.3-2.8 13.8-6.8s5.7-9.6 8-14.4z" opacity=".1"/><path d="M855.3 637.7a13.7 13.7 0 014.7 1.4 11 11 0 014 5.5 47.6 47.6 0 012.8 17.1c0 4.7-.1 9.5-1.8 13.9a8.8 8.8 0 01-2.3 3.6 8.3 8.3 0 01-3.2 1.6c-2.5.7-5.4.6-7.4-1-2.3-1.7-2.9-4.9-3.4-7.7-.6-3.9-1.5-8-4.4-10.6-2.1-2-5.2-3-6.7-5.4-1.8-3-.9-6.7.3-10 1-2.8 2.5-8.5 5.4-10s9 1 12 1.6zM747 651.5a22.1 22.1 0 004.6 8.5c1.3 1.5 3 3.3 2.2 5.2a4.8 4.8 0 01-1.2 1.6 63.2 63.2 0 01-36.6 15.7 1.3 1.3 0 01-.6 0c-.4-.1-.5-.6-.5-1a13.5 13.5 0 010-4.3c.6-3.3 3.5-5.6 6.3-7.4s5.9-3.5 7.4-6.5c2-3.6 1.2-8.4 3.5-11.8 1.9-2.8 5.4-4 8.7-4.5 1.1-.2 3.6-1.5 4.6-.9s1.3 4.2 1.6 5.4z" fill="#fbbebe"/><path d="M856.6 637.3a1.3 1.3 0 011.2-1.3 4.3 4.3 0 011.9.2 26.5 26.5 0 004.6.9 34 34 0 015.5.7 6.3 6.3 0 014.3 3.2 8.1 8.1 0 01.5 3.1 47 47 0 01-1.4 12c-.1.3-.2.7-.5.8h-.8a.9.9 0 00-.4.6 26.4 26.4 0 00-1.7 8c-.4 4-1 8-1.6 12-.4 2.4-1 4.9-2.4 6.7-1.7 2-4.4 2.8-7 3.2a49 49 0 01-16.3-1.5 4.8 4.8 0 01-2.7-1.3 3 3 0 01-.7-2.1c.1-2.7 2.6-4.6 4.8-6.1l3.1-2a1.6 1.6 0 00.6-.6 1.7 1.7 0 00.1-1l-.2-4a11.3 11.3 0 019.9 6.2c.4.8.8 1.8 1.7 2.1a2.3 2.3 0 002.7-1.6 7 7 0 00-.1-3.5c-1.8-9.6-1.4-19.6-2.5-29.4a6.6 6.6 0 00-1-3c-.5-.7-1.5-1.4-1.6-2.3z" fill="#f86d70"/><rect x="752.1" y="409.1" width="43.3" height="21.3" rx="10.7" transform="rotate(180 759.8 369.2)" fill="#2874ca"/><circle cx="746.1" cy="318.7" r="6.7" fill="#fff"/><path d="M722.1 674.8c-.4.8-1.2 1.4-1.6 2.1a1.8 1.8 0 00.4 2.4 2.3 2.3 0 001.4.1 48.1 48.1 0 0026-11.8 18.2 18.2 0 003.2-3.5c.8-1.2 1.6-2.8 3-3.4a52 52 0 011.3 11.5c0 2.5-.3 5.4-2.4 6.9a8.6 8.6 0 01-2.7 1l-4.5 1.4a4.8 4.8 0 01-2.5.2c-.6-.1-1-.5-1.6-.6a3.8 3.8 0 00-1.7.3l-4 1a24.9 24.9 0 00-3.8 1.4l-3.2 1.8a38.8 38.8 0 01-5.7 2.3l-6.9 2.4a25 25 0 01-5.8 1.5c-1.4.2-2.8 0-4.2.3l-3 .6a8.1 8.1 0 01-5-1.4 4.5 4.5 0 01-1.4-1.3c-1-1.5-.1-3.5.9-5.1a20.2 20.2 0 017-7.2l3.7-1.7c3.5-1.7 6.1-4.6 9.4-6.5 3.2-1.8 5.2 2.9 3.7 5.3z" fill="#f86d70"/><path d="M818.7 398a28.6 28.6 0 0012.2 4.7 49.5 49.5 0 006.8.3 174.8 174.8 0 0028.7-2.3 35.5 35.5 0 01-9-14 23.1 23.1 0 01-.5-8.8 66 66 0 012.7-11 77.6 77.6 0 01-12.1-.3c-2.3-.3-8-2.3-9.9-.8s-.5 6.7-.4 9a2.3 2.3 0 010 .4 29 29 0 01-2.3 10.5c-2.9 6.5-9.1 11.8-16.2 12.2z" fill="#fbbebe"/><path d="M837.2 374.8a24 24 0 0019.7 3 66 66 0 012.7-11 77.6 77.6 0 01-12-.3c-2.4-.2-8-2.3-10-.7s-.5 6.6-.4 9z" opacity=".1"/><circle cx="850.4" cy="353.5" r="24.1" fill="#fbbebe"/><path d="M748 475.5a11.2 11.2 0 005.5 9.7 21.7 21.7 0 006 2c11 2.7 22.3 4.9 33.6 4.2a18.5 18.5 0 007.1-1.5 7.7 7.7 0 004.4-5.5 5.2 5.2 0 01.4-1.7 5.1 5.1 0 011.6-1.5 6.8 6.8 0 002.6-6.8c1.4.6 2.8-.8 3.5-2.2s1.1-3 2.5-3.6c1-.4 2-.1 3-.4 1.6-.4 2.6-2 3.7-3.1 2.3-2.5 5.5-3.7 8.5-5.2a96.3 96.3 0 0023.2-18.6 77.8 77.8 0 0010-11.1 41.2 41.2 0 002.2-3.6 101.8 101.8 0 005.6-12.8c.9-2.3 1.8-4.8 1.4-7.2l-.1-.7a14 14 0 00-2.2-4.4c-2.5-3.6-5.7-7-9.9-8.1s-8.4.2-12.7 1a31.9 31.9 0 01-4.3.8c-4.6.3-9-1-13.4-2.2l-4.8-1.3c-2.4-.6-3.6-3.5-6-4a8.1 8.1 0 00-3.3.1c-4.9 1-9.8 2.2-14.2 4.7a21.3 21.3 0 00-2.7 1.9 17.5 17.5 0 00-6.4 9.4c-1 4.2-.1 8.7-1.1 12.8-.8 3.5-2.9 6.5-5 9.4L775 442.8a104.1 104.1 0 01-8.7 11.3c-6.3 6.9-18 12-18.2 21.4z" fill="#f86d70"/><path d="M779.5 314.4c-.5-2.3-.8-4.7-2-6.7a15.2 15.2 0 00-3.2-3.3 20.7 20.7 0 00-6.7-4.1 8.3 8.3 0 00-7.6.8c-2 1.6-3 4.4-3.3 7a17 17 0 001.8 10.6c2 3.5 5.6 6 8.6 8.8a34.4 34.4 0 015.5 7 20.2 20.2 0 002.6 3.7 4.8 4.8 0 004 1.6 7 7 0 003.2-2c1.3-1 4.5-3 4.6-4.6.1-1.4-2.4-4.5-3-5.8a65.4 65.4 0 01-4.5-13z" fill="#fbbebe"/><path d="M694.8 593.6c3 5.6 6.3 11 9 16.8 1.6 3.4 3 6.9 4.7 10.1 2 3.6 4.3 7 6.3 10.5 5 8.9 7.8 18.9 10.4 28.8a57.4 57.4 0 0020.5-7.2 12.9 12.9 0 001.3-.8 14.5 14.5 0 004.1-4.6c-2.4-9-4.8-18.2-9.7-26.2l-5-7.6c-4.7-7.5-5.7-16.9-11.1-23.8a4 4 0 010-4.9c.6-.8 1.6-1.6 1.4-2.6-.1-.7-.9-1.4-.6-2 .1-.4.5-.5.7-.8 1-.8.8-2.3 1-3.5.1-3.2 2-6 3.8-8.5a5.3 5.3 0 011.5-1.6l1.5-.7c1.8-1 1.6-3.6 2.5-5.5 1-2.4 3.8-3.7 5.6-5.7 2.2-2.5 2.8-6 5.2-8.3a7.1 7.1 0 01.8-.6 39.7 39.7 0 00-1.4 11.6c-.2 13.4 3.1 27.3 1.5 40.7-1.2 10.6 5.3 21.1 14.6 26.4a70.3 70.3 0 0011.3 4.8 334.7 334.7 0 0129 11.9 146 146 0 0114 7.8 54 54 0 0115.2 12.4c3.8-.1 7.3-2.4 9.7-5.4s4-6.5 5.4-10a28 28 0 002.5-9.6 1.9 1.9 0 00-1-1.7l-26.5-14-5-2.7c-10.8-5.7-22-11-32.9-16.8-.7.2-1.3-.6-1.5-1.3s-.4-1.6-1-2c-.4-.1-.9-.1-1-.4a1.2 1.2 0 01-.3-.9c.4-5.2 4.2-10 3.4-15.2-.3-2.2-1.5-4.4-1-6.6.3-1.5 1.4-2.7 2-4.1 1.3-3.2 0-7 1.4-10.2a23.3 23.3 0 002-6.5 43.9 43.9 0 014-12.8 23.2 23.2 0 013.7-5.7c.8-.8 1.7-1.6 2.4-2.5 2.3-2.7 3.2-6.3 3.8-9.9 1.2-6.3 2-13 .6-19.2-.5-2.2-1.3-4.3-1.3-6.5 0-3 1.3-6.4-.7-8.5a6.6 6.6 0 00-3-1.5 90.4 90.4 0 00-14.3-2.6l-22-2.9a20.3 20.3 0 01-7.4-2c-3-1.6-5-4.6-6.2-7.8-4 2.8-5.4 8-8.5 11.7-1.5 1.8-3.3 3.3-5 4.9a55.1 55.1 0 00-5.5 6.8c-4.6 6.4-9.3 12.7-12.6 19.8-1.7 3.7-3 7.6-4.4 11.4-5.4 15-14.1 29.4-17.8 45-.9 3.7-3.2 7.2-3.6 11-.4 4.2 1.5 8.2 3.5 11.8z" fill="#434175"/><path d="M810.5 468.5a6.8 6.8 0 01.8 3.3c-.5-2.4-3.8-3.8-4-6.2-.1-1.1 0-1 .8-.5 1 .9 1.5 2.5 2.4 3.4zM800.3 476a5.2 5.2 0 011.6 2.2 5.8 5.8 0 01.3 4c-.5-.3-.7-.9-.9-1.4a9.4 9.4 0 00-1-2.4c-.4-.6-2.2-2-2.2-2.8 0-1 1.7 0 2.2.3zM799.1 394.4a25.2 25.2 0 005.1 3.3c4.8 2.5 10 3.7 14.9 6a72.2 72.2 0 016.9 4l14.3 9a15.8 15.8 0 013.1 2.5c1.8 1.8 1.7 5 3.3 7a9.4 9.4 0 007 3.2 22.5 22.5 0 007.7-1.3 38.2 38.2 0 004.4-1.6 20.5 20.5 0 004.2-2.5 12.2 12.2 0 005-7.9 15.6 15.6 0 00-.8-6.4 25.1 25.1 0 00-1.5-3.9 15.2 15.2 0 00-1.3-2c-3.2-4.7-9-6.9-14.6-8-3-.6-6-.9-9-1.4a31.9 31.9 0 01-4.2.7c-4.6.3-9-1-13.4-2.2l-4.8-1.3c-2.4-.6-3.6-3.5-6-4a8.1 8.1 0 00-3.3.1c-4.9 1-9.8 2.2-14.2 4.7a21.3 21.3 0 00-2.8 2z" opacity=".1"/><path d="M787.5 330.4c.6 5.8 5.5 10 8.5 15.1 1.5 2.5 2.5 5.1 3.8 7.7a75 75 0 005 8l5.4 7.7c3.1 4.6 6.3 9.2 10.3 13 7 1.2 13 6.4 19.6 9 5.3 2 11 2.3 16.7 3.4s11.4 3.2 14.6 7.9a20.8 20.8 0 012.8 6 15.5 15.5 0 01.8 6.4 12.2 12.2 0 01-5 8 27.7 27.7 0 01-8.6 4 22.7 22.7 0 01-7.8 1.2 9.4 9.4 0 01-6.9-3.2c-1.6-2-1.6-5.2-3.3-7a15.8 15.8 0 00-3.1-2.4l-14.3-9a72.2 72.2 0 00-7-4c-4.7-2.3-10-3.6-14.8-6s-9.2-6.4-10.2-11.7c-2.9-16.1-14-29.8-23.7-43.2.4 0 .3-.7.4-1a14 14 0 017-7.1c3-1.7 6.5-2.1 9.8-2.8z" fill="#f86d70"/><path d="M838 330.5a8.9 8.9 0 011-5.1c1.6-2.6 5-3.6 8-4.2l8.6-1.5a20.1 20.1 0 017.3-.1c3.2.7 6 2.9 9 4.2 3.6 1.6 7.6 2 11.4 3s7.8 2.3 10.2 5.5c1.8 2.3 2.6 5.4 3.1 8.3 4.6 24.6-.3 49.9-1.3 75-.3 9.7.1 20 5.7 28l-16.2-.3c-4.2-.1-8.6-.4-12-3-2.8-2.2-4.1-5.8-5.4-9.2a29 29 0 01-2-8.4c-.3-5.9 3-11.6 2-17.4-.9-4.3-4-7.8-7.4-10.7s-7-5.3-9.8-8.7c-4.9-6.2-5.8-14.6-5.2-22.4.4-4.6 1.2-9.3.8-14a17.5 17.5 0 00-3.7-9.7c-2.5-3-3.9-5-4.1-9.3z" fill="#434175"/><path d="M839 325.4c1.6-2.6 4.8-3.5 7.8-4.2a7.7 7.7 0 00-3.9 3 9 9 0 00-1 5.1c.2 4.4 1.6 6.3 4.2 9.4a17.4 17.4 0 013.6 9.8c.4 4.6-.4 9.2-.7 13.9-.7 7.8.3 16.2 5.1 22.3 2.8 3.5 6.5 6 9.9 8.8s6.5 6.3 7.3 10.6c1 5.8-2.3 11.6-2 17.5a28.5 28.5 0 002 8.3c1.3 3.4 2.7 7 5.5 9.3 3.3 2.6 7.8 2.8 11.9 3l11.5.2.8 1.3-16.2-.5c-4.2 0-8.6-.3-11.9-2.9-2.9-2.2-4.2-5.8-5.5-9.3a29 29 0 01-2-8.3c-.3-5.9 3-11.7 2-17.5-.9-4.3-4-7.8-7.4-10.6s-7-5.3-9.8-8.8c-4.8-6.1-5.8-14.5-5.2-22.3.4-4.6 1.2-9.3.8-14a17.5 17.5 0 00-3.7-9.7c-2.5-3-3.9-5-4.1-9.3a8.9 8.9 0 011-5.1zM717.2 579.2l29.8 72.6a14.5 14.5 0 004.1-4.6c-2.4-9-4.8-18.2-9.7-26.2l-5-7.6c-4.7-7.5-5.7-16.9-11-23.8a4 4 0 010-4.9c.5-.8 1.5-1.6 1.3-2.6-.1-.7-.9-1.4-.6-2 .2-.4.5-.5.8-.8.9-.8.8-2.3.9-3.5.2-3.2 2-6 3.9-8.5a5.3 5.3 0 011.4-1.6l1.6-.7c1.7-1 1.6-3.6 2.4-5.5 1-2.4 3.8-3.7 5.6-5.7 2.3-2.5 2.8-6 5.2-8.3l.2-.5-2.2-14z" opacity=".1"/><ellipse cx="977" cy="659.4" rx="34" ry="6.5" fill="#2874ca"/><ellipse cx="977.6" cy="656.6" rx="4" ry="5.2" fill="#3f3d56"/><ellipse cx="977.6" cy="650.3" rx="4" ry="5.2" fill="#3f3d56"/><ellipse cx="977.6" cy="643.9" rx="4" ry="5.2" fill="#3f3d56"/><ellipse cx="977.6" cy="637.6" rx="4" ry="5.2" fill="#3f3d56"/><ellipse cx="977.6" cy="631.3" rx="4" ry="5.2" fill="#3f3d56"/><ellipse cx="977.6" cy="625" rx="4" ry="5.2" fill="#3f3d56"/><ellipse cx="977.6" cy="618.6" rx="4" ry="5.2" fill="#3f3d56"/><path d="M962.8 575.4a18.8 18.8 0 01-1.4-2.2l10.3-1.7h-11.2a19 19 0 01-.4-15l15.1 7.9-13.9-10.2a19 19 0 1131.3 21.1 18.3 18.3 0 012.1 3.5l-13.4 7 14.3-4.8a19 19 0 011 6 18.9 18.9 0 01-4 11.8 19 19 0 11-29.8 0 19 19 0 010-23.4z" fill="#2874ca"/><path d="M996.6 587a18.9 18.9 0 01-4 11.8 19 19 0 11-29.8 0c-2.5-3.3 33.8-13.9 33.8-11.8z" opacity=".1"/><ellipse cx="1043.2" cy="586.8" rx="22.8" ry="4.4" fill="#2874ca"/><ellipse cx="1043.6" cy="585" rx="2.7" ry="3.5" fill="#3f3d56"/><ellipse cx="1043.6" cy="580.7" rx="2.7" ry="3.5" fill="#3f3d56"/><ellipse cx="1043.6" cy="576.5" rx="2.7" ry="3.5" fill="#3f3d56"/><ellipse cx="1043.6" cy="572.2" rx="2.7" ry="3.5" fill="#3f3d56"/><ellipse cx="1043.6" cy="568" rx="2.7" ry="3.5" fill="#3f3d56"/><ellipse cx="1043.6" cy="563.7" rx="2.7" ry="3.5" fill="#3f3d56"/><ellipse cx="1043.6" cy="559.5" rx="2.7" ry="3.5" fill="#3f3d56"/><path d="M1033.6 530.4a11 11 0 01-1-1.5l7-1.1h-7.5a12.6 12.6 0 01-1.2-5.3 12.8 12.8 0 011-4.8l10 5.3-9.3-6.9a12.7 12.7 0 1121 14.3 12.6 12.6 0 011.5 2.3l-9.1 4.7 9.7-3.3a12.8 12.8 0 01-2.1 12 12.7 12.7 0 11-20 0 12.7 12.7 0 010-15.7z" fill="#2874ca"/><path d="M1056.3 538.2a12.7 12.7 0 01-2.7 7.9 12.7 12.7 0 11-20 0c-1.7-2.2 22.7-9.3 22.7-7.9z" opacity=".1"/></svg>