<svg data-name="Layer 1" xmlns="http://www.w3.org/2000/svg" width="888" height="741"><path d="M365.9 174.4h-4V63.9a64 64 0 00-64-63.9H64A64 64 0 000 64v605.9a64 64 0 0064 64h234a64 64 0 0063.9-64V253h4z" fill="#e6e6e6"/><path d="M300.5 16.6H270A22.7 22.7 0 01249 48H115a22.7 22.7 0 01-21-31.3H65.3a47.7 47.7 0 00-47.8 47.8v605a47.7 47.7 0 0047.8 47.8h235.1a47.7 47.7 0 0047.8-47.8v-605a47.7 47.7 0 00-47.8-47.8z" fill="#fff"/><path d="M113.7 139.6h-14a1.9 1.9 0 00-2 1.9v6.2a1.9 1.9 0 002 1.8h2.3v9.3h9.3v-9.3h2.4a1.9 1.9 0 001.8-1.8v-6.2a1.9 1.9 0 00-1.8-1.9z" fill="#e6e6e6"/><path d="M127.7 196a72.2 72.2 0 01-12.5-42.8 1.5 1.5 0 00-1.2-1.5v-2.6H99.2v2.6H99a1.5 1.5 0 00-1.6 1.5v.1q1.8 24.4-11.8 43.8a4.2 4.2 0 00-.7 2.6l1.6 50.1a4.3 4.3 0 004.3 4.2h33.5a4.3 4.3 0 004.3-4.3l.6-48.7a8.8 8.8 0 00-1.5-5z" fill="#e6e6e6"/><path d="M122.4 212.7H93.2a3 3 0 00-3 3.4l4.5 28.7H120l5.4-28.6a3 3 0 00-3-3.5z" fill="#fff"/><path d="M270 289.9h-14a1.9 1.9 0 00-2 1.8v6.2a1.9 1.9 0 002 1.9h2.2v9.2h9.4v-9.2h2.4a1.9 1.9 0 001.8-2v-6a1.9 1.9 0 00-1.8-2z" fill="#e6e6e6"/><path d="M284 346.3a72.2 72.2 0 01-12.5-42.8 1.5 1.5 0 00-1.2-1.5v-2.7h-14.9v2.6h-.2a1.5 1.5 0 00-1.5 1.5v.2q1.8 24.4-11.8 43.8a4.2 4.2 0 00-.8 2.5l1.7 50.2a4.3 4.3 0 004.3 4.1h33.5a4.3 4.3 0 004.3-4.2l.6-48.7a8.8 8.8 0 00-1.5-5z" fill="#e6e6e6"/><path d="M278.7 363h-29.2a3 3 0 00-3 3.4L251 395h25.3l5.4-28.6a3 3 0 00-3-3.6z" fill="#fff"/><path d="M94 502.3h-6.7a.9.9 0 00-1 .8v3a.9.9 0 001 .8h1v4.4h4.5V507H94a.9.9 0 001-.8v-3a.9.9 0 00-1-.8z" fill="#e6e6e6"/><path d="M100.6 529a34.2 34.2 0 01-6-20.3.7.7 0 00-.5-.7v-1.3h-7v1.3H87a.7.7 0 00-.8.7 31.2 31.2 0 01-5.6 20.8 2 2 0 00-.3 1.2l.7 23.8a2 2 0 002 2h16a2 2 0 002-2l.3-23.1a4.2 4.2 0 00-.7-2.4z" fill="#e6e6e6"/><path fill="#fff" d="M83.1 537.8h15.2v7.6H83.1z"/><path d="M125 502.3h-6.7a.9.9 0 00-1 .8v3a.9.9 0 001 .8h1v4.4h4.5V507h1.1a.9.9 0 001-.8v-3a.9.9 0 00-1-.8z" fill="#e6e6e6"/><path d="M131.6 529a34.2 34.2 0 01-6-20.3.7.7 0 00-.5-.7v-1.3h-7v1.3h-.1a.7.7 0 00-.8.7 31.2 31.2 0 01-5.6 20.8 2 2 0 00-.3 1.2l.7 23.8a2 2 0 002 2h16a2 2 0 002-2l.3-23.1a4.2 4.2 0 00-.7-2.4z" fill="#e6e6e6"/><path fill="#fff" d="M114.1 537.8h15.2v7.6h-15.2z"/><path d="M156 502.3h-6.7a.9.9 0 00-1 .8v3a.9.9 0 001 .8h1v4.4h4.5V507h1.1a.9.9 0 001-.8v-3a.9.9 0 00-1-.8z" fill="#e6e6e6"/><path d="M162.6 529a34.2 34.2 0 01-6-20.3.7.7 0 00-.5-.7v-1.3h-7v1.3h-.1a.7.7 0 00-.8.7 31.2 31.2 0 01-5.6 20.8 2 2 0 00-.3 1.2l.7 23.8a2 2 0 002 2h16a2 2 0 002-2l.3-23.1a4.2 4.2 0 00-.7-2.4z" fill="#e6e6e6"/><path fill="#fff" d="M145.1 537.8h15.2v7.6h-15.2z"/><path d="M245.6 444.1h-14a1.9 1.9 0 00-2 1.9v6.2a1.9 1.9 0 002 1.8h2.3v9.3h9.3V454h2.4a1.9 1.9 0 001.8-1.8V446a1.9 1.9 0 00-1.8-1.9z" fill="#e6e6e6"/><path d="M259.6 500.5a72.2 72.2 0 01-12.5-42.8 1.5 1.5 0 00-1.2-1.5v-2.6H231v2.6h-.2a1.5 1.5 0 00-1.6 1.5v.1q1.8 24.4-11.8 43.8a4.2 4.2 0 00-.8 2.6l1.7 50.1a4.3 4.3 0 004.3 4.2h33.5a4.3 4.3 0 004.3-4.3l.6-48.6a8.8 8.8 0 00-1.5-5z" fill="#e6e6e6"/><path d="M254.3 517.2h-29.2a3 3 0 00-3 3.4l4.5 28.7h25.3l5.4-28.6a3 3 0 00-3-3.5z" fill="#fff"/><path d="M253.2 260.5h-83.7c5.9-31.7 4.5-69.9 0-111h83.7c-4.4 41.1-5.7 79.3 0 111z" fill="#e6e6e6"/><circle cx="211.9" cy="202" r="20.2" fill="#fff"/><path d="M176.6 407.7H92.9c5.9-31.7 4.5-69.9 0-111h83.7c-4.4 41.1-5.7 79.3 0 111z" fill="#e6e6e6"/><circle cx="135.3" cy="349.2" r="20.2" fill="#fff"/><path d="M300.6 267.5H217c5.9-31.6 4.5-69.8 0-110.9h83.7c-4.4 41-5.7 79.3 0 111z" fill="#e6e6e6"/><circle cx="259.3" cy="209" r="20.2" fill="#fff"/><path d="M300.6 262.5H217c5.9-31.7 4.5-69.9 0-111h83.7c-4.4 41.1-5.7 79.3 0 111z" fill="#e6e6e6"/><circle cx="259.3" cy="204" r="20.2" fill="#fff"/><path d="M300.6 267.5H217c5.9-31.6 4.5-69.8 0-110.9h83.7c-4.4 41-5.7 79.3 0 111z" fill="#e6e6e6"/><circle cx="259.3" cy="209" r="20.2" fill="#fff"/><path fill="#e6e6e6" d="M45.5 254.4h274.3v30.2H45.5zM45.5 404.6h274.3v30.2H45.5zM45.5 554.9h274.3v30.2H45.5z"/><path d="M796.9 677.6l-68.4-48.3c23-22.5 44-54.4 64-90.6L861 587c-27.3 31-50.4 61.5-64 90.6z" fill="#2874ca"/><circle cx="796.9" cy="606" r="20.2" fill="#fff"/><path d="M467.3 457h-7.5a1 1 0 00-1 1v3.4a1 1 0 001 1h1.2v4.9h5v-5h1.3a1 1 0 001-1v-3.2a1 1 0 00-1-1z" fill="#e6e6e6"/><path d="M474.8 487.2a38.6 38.6 0 01-6.7-22.9.8.8 0 00-.7-.8v-1.4h-7.9v1.4h-.1a.8.8 0 00-.8.8 35.2 35.2 0 01-6.3 23.5 2.2 2.2 0 00-.4 1.3l.8 26.8a2.3 2.3 0 002.3 2.3h18a2.3 2.3 0 002.2-2.3l.4-26a4.7 4.7 0 00-.8-2.7z" fill="#2874ca"/><path d="M465.7 458.2a2.1 2.1 0 01-4.3 0" opacity=".2" style="isolation:isolate"/><path fill="#fff" d="M456.2 492.4h15.1v10.1h-15.1z"/><path d="M704.6 561.7h-14a1.9 1.9 0 00-1.9 1.9v6.2a1.9 1.9 0 001.9 1.8h2.3v9.3h9.4v-9.3h2.3a1.9 1.9 0 001.9-1.8v-6.2a1.9 1.9 0 00-1.9-1.9z" fill="#e6e6e6"/><path d="M718.7 618.1a72.2 72.2 0 01-12.6-42.8 1.5 1.5 0 00-1.2-1.5v-2.6h-14.8v2.6h-.2a1.5 1.5 0 00-1.5 1.5v.1q1.7 24.4-11.9 43.8a4.2 4.2 0 00-.7 2.6l1.6 50.1a4.3 4.3 0 004.3 4.2h33.5a4.3 4.3 0 004.3-4.3l.7-48.6a8.8 8.8 0 00-1.5-5z" fill="#2874ca"/><path d="M701.7 563.7a4 4 0 01-8 0" opacity=".2" style="isolation:isolate"/><path d="M713.4 634.8h-29.2a3 3 0 00-3 3.5l4.4 28.6H711l5.4-28.6a3 3 0 00-3-3.5z" fill="#fff"/><path d="M664.5 677.5H581c5.8-31.6 4.5-69.8 0-110.9h83.6c-4.3 41-5.6 79.3 0 111z" fill="#2874ca"/><circle cx="623.2" cy="619" r="20.2" fill="#fff"/><path fill="#ffb8b8" d="M322.2 328.5l18.8-1.7 12-29-21.4-12-9.4 42.7zM494.7 408.2a10.6 10.6 0 00-9.2-14.5l-29.2-1.8-4.3 14.3 30 8.2a10.6 10.6 0 0012.7-6.2z"/><path d="M463.3 414.7l-.3-26.8-64.8-10.4-49.9-57.2a16.3 16.3 0 00-21.3-3 16.3 16.3 0 00-2.8 25l41.1 50.7z" fill="#575a89"/><path d="M307.7 716.2h17.1l42.4-191.6 43.9 59.2 25.6 128.1h16.2l-3.4-137.5-57.2-146.9h-56.4c-15.4 27.9-27.5 56.6-13.7 86.3z" fill="#2f2e41"/><path d="M426.2 727.8a4.5 4.5 0 003.5 5.7l41.8 7.4a6.9 6.9 0 007.8-4.7 6.8 6.8 0 00-3.4-8.1 63.9 63.9 0 01-23-20c-4.6 4.2-9.7 3.8-15.2.7l-5.8.7zM299.8 727.8a4.5 4.5 0 003.5 5.7L345 741a6.9 6.9 0 007.8-4.7 6.8 6.8 0 00-3.4-8.1 63.9 63.9 0 01-23-20c-4.6 4.2-9.7 3.8-15.2.7l-5.8.7z" fill="#2f2e41"/><circle cx="353.4" cy="284.5" r="23.9" fill="#ffb8b8"/><path d="M332 434l62.4-1.8-18.3-57.6c11.4-18.2 0-36.5-16.3-54.7l-12.8-8.5-20.5-1.7a50.3 50.3 0 00-13.5 35c.4 27.9 5.3 58.1 19 89.2z" fill="#575a89"/><path d="M475.3 472.7a10.6 10.6 0 00-2.8-17l-26-13-9.7 11.4 24.4 19.4a10.6 10.6 0 0014-.8z" fill="#ffb8b8"/><path d="M444 466.4l10.2-24.8-55.5-35-23.4-72.2a16.3 16.3 0 00-18.4-11.1 16.3 16.3 0 00-12.4 21.8l17.9 62.8z" fill="#575a89"/><path d="M314.1 275c0 9.4 6 23.8 13.7 30 5.1 4.1 11.9 4 14.5-1.7 2.7-5.9 12-19.6 28.2-28.2 21.7-11.5-7.7-31.2-28.2-28.2-15.4 2.3-28.2 12.6-28.2 28.2z" fill="#2f2e41"/><circle cx="328.6" cy="245.2" r="17.1" fill="#2f2e41"/><path d="M348.3 239.2a17 17 0 00-15.8-17h1.3a17 17 0 010 34.1h-1.3a17 17 0 0015.8-17z" fill="#2f2e41"/><ellipse cx="353.8" cy="287.9" rx="3.8" ry="5.1" fill="#ffb8b8"/><path fill="#3f3d56" d="M837.8 684.8h-266l-56.2-266.1h-48v-12h57.7L581.6 673h256.2v12z"/><circle cx="610.8" cy="707.9" r="25.6" fill="#3f3d56"/><circle cx="801.9" cy="707.9" r="25.6" fill="#3f3d56"/><path d="M832.9 679.2H574.2l-45.6-225.5h347.1a12.3 12.3 0 0112.2 14.1l-42.9 201a12.2 12.2 0 01-12.1 10.4zM577 675.8H833a8.8 8.8 0 008.7-7.5l42.9-201a8.9 8.9 0 00-8.8-10.2h-343z" fill="#3f3d56"/><path fill="#3f3d56" d="M624.5 678.5l-29.9-222.8 3.4-.6 29.9 222.8-3.4.6zM790.7 676.8l-3.4-.6 29-221.1 3.4.5-29 221.2zM708.1 455.4h3.4v222.8h-3.4z"/><path fill="#3f3d56" d="M546 518.5V515l330.3.8v3.4zM562.8 622.5l290.2-2v3.4l-290.2 2z"/><ellipse cx="472.6" cy="411" rx="18.8" ry="10.2" fill="#3f3d56"/></svg>