<svg data-name="Layer 1" xmlns="http://www.w3.org/2000/svg" width="1075.5" height="646.9"><path d="M74.4 607l63.4-91.1-63.5 101v10.4q-6.8 0-13.5-.5c0-2.3 5.4-131.9 5.2-134.2.3 0 .5-12.2.6-12.8L.3 380.2l66.4 90.2.2 2.7 4-100.7-57-103 57.4 85.3L74 145.4l1.3 165.2 54.4-66-54.5 80.1-.3 90.1 50.6-87c-63.1 127-49.1 82.5-50.8 150.4l73.5-121.3-73.5 138.7zM1044.7 619.4l26.5-38-26.5 42.1v4.3l-5.6-.2c0-1 2.3-55 2.2-55.9l.2-5.3-27.6-41.5 27.6 37.6.1 1 1.7-41.9-23.8-43 24 35.6 1.1-87.2.5 68.8 22.7-27.4-22.7 33.4-.1 37.5 21-36.3c-26.2 53-20.4 34.4-21 62.7l30.5-50.6L1045 573z" fill="#d0cde1"/><ellipse cx="536" cy="625.9" rx="536" ry="21" fill="#d0cde1"/><path fill="#3f3d56" d="M184 248h612v364.9H184z"/><path d="M335.5 248A146.4 146.4 0 01189 392H184V248zM520 612.9h-58.3a31 31 0 0158.2 0zM796 424.2V547a61.5 61.5 0 010-123z" fill="#2874ca"/><rect x="279.5" y="380.6" width="422.1" height="36.1" rx="18" fill="#fff"/><rect x="279.5" y="451.7" width="422.1" height="36.1" rx="18" fill="#fff"/><rect x="553.6" y="522.7" width="148" height="36.1" rx="18" fill="#fff"/><path d="M893 112.1s16.9 6.6 17.8 28-4.7 81.4-4.7 81.4 20.6 30 4.7 38.3-17.7-33.6-17.7-33.6l-18.7-88.8s11.2-26.2 18.7-25.3zM721 181.3s-40.2 26.2-42 5.6S691 86 691 86s1.9-34.6 21.5-26.1-5.6 37.4-5.6 37.4l2.8 65.4 18.7-1z" fill="#a0616a"/><path d="M785.5 205.6s-123.4-45.8-116.8 7.5S707 333.7 707 333.7l11.2 17.8h23.4l-15-96.3s53.3 29.9 69.2 25.2c0 0 20.6 137.4 28 147.7s20.6 134.7 20.6 134.7l12.2 15H880V367.3s40.2-131 9.3-137.5-103.8-24.3-103.8-24.3z" fill="#2f2e41"/><path d="M715.4 339.3s-5.6-10.3-15 0-31.7 22.4-31.7 22.4-48.6 11.3-9.4 20.6 44 0 44 0 6.5 1.9 12.1 3.8 42-4.7 42-10.3-12.3-39.2-17.3-34-24.7-2.5-24.7-2.5zM858.4 568.5s-13.8-11.4-17-8.1-20.3 25-20.3 25-45.4 35-4 40.6 38.8-9.7 38.8-9.7h13c1.6 0 23.5-9.7 22.7-13.8s-10.5-37.1-13.8-34.8-19.4.8-19.4.8z" fill="#2f2e41"/><circle cx="733.2" cy="44.8" r="31.8" fill="#a0616a"/><path d="M755.6 41s24.3 20.6 41.2 20.6-24.4 38.4-24.4 38.4L736 67.2z" fill="#a0616a"/><path d="M765 100l-.8-7.4s18.5-32.8 24.1-35.6 9.4-2.8 9.4-2.8 18.7-19.7 39.3-9.4 69.1 75.7 69.1 75.7-34.6 2.8-29.9 30c0 0 34.6 88.8 25.3 89.7s-37.4-5.6-66.4 7.5-42 4.7-42 4.7l-15-48.7s-28-15.9-27.2-29.9l-40.6 18.3 3.7-34.6 24.8-28.6s-4.7-3.7 26.2-29z" fill="#575a89"/><path d="M704 48.2a11.7 11.7 0 01-4.7 3.2c-1.8.5-4-.1-4.8-1.9l1.4-1.7-4-2.5 1.7-2-3.3-3.6 2.6-2-4.9-3.5c6.3-10.3 13.2-20.8 23.2-27.6s23.9-9.3 34.1-2.8c5.3 3.3 9 8.7 12 14.2 6.1 11 11.4 21.9 12.2 34.5-3.8-3.7-9.3-5.8-13.1-9.5a28.5 28.5 0 00-5.7-4.6c-4-2.3-8.7-2.5-13.1-3.5-3.8-.8-6.2-2.5-9-5-3.4-2.8-3.5-1.7-7 1.5L704 48.2z" fill="#2f2e41"/></svg>