<svg data-name="Layer 1" xmlns="http://www.w3.org/2000/svg" width="885.5" height="664.2"><path fill="#3f3d56" d="M885.1 642H617.7v-2.3h267.8l-.4 2.2z"/><circle cx="42.9" cy="7.7" r="7.7" fill="#e6e6e6"/><circle cx="81.9" cy="7.7" r="7.7" fill="#e6e6e6"/><circle cx="120.9" cy="7.7" r="7.7" fill="#e6e6e6"/><circle cx="160" cy="7.7" r="7.7" fill="#e6e6e6"/><circle cx="199" cy="7.7" r="7.7" fill="#e6e6e6"/><circle cx="238" cy="7.7" r="7.7" fill="#e6e6e6"/><circle cx="277" cy="7.7" r="7.7" fill="#e6e6e6"/><circle cx="316" cy="7.7" r="7.7" fill="#e6e6e6"/><circle cx="355" cy="7.7" r="7.7" fill="#e6e6e6"/><circle cx="394" cy="7.7" r="7.7" fill="#e6e6e6"/><circle cx="42.9" cy="47.2" r="7.7" fill="#e6e6e6"/><circle cx="81.9" cy="47.2" r="7.7" fill="#e6e6e6"/><circle cx="120.9" cy="47.2" r="7.7" fill="#e6e6e6"/><circle cx="160" cy="47.2" r="7.7" fill="#0d47a1"/><circle cx="199" cy="47.2" r="7.7" fill="#e6e6e6"/><circle cx="238" cy="47.2" r="7.7" fill="#e6e6e6"/><circle cx="277" cy="47.2" r="7.7" fill="#e6e6e6"/><circle cx="316" cy="47.2" r="7.7" fill="#e6e6e6"/><circle cx="355" cy="47.2" r="7.7" fill="#e6e6e6"/><circle cx="394" cy="47.2" r="7.7" fill="#e6e6e6"/><circle cx="42.9" cy="86.7" r="7.7" fill="#e6e6e6"/><circle cx="81.9" cy="86.7" r="7.7" fill="#e6e6e6"/><circle cx="120.9" cy="86.7" r="7.7" fill="#e6e6e6"/><circle cx="160" cy="86.7" r="7.7" fill="#e6e6e6"/><circle cx="199" cy="86.7" r="7.7" fill="#e6e6e6"/><circle cx="238" cy="86.7" r="7.7" fill="#e6e6e6"/><circle cx="277" cy="86.7" r="7.7" fill="#e6e6e6"/><circle cx="316" cy="86.7" r="7.7" fill="#e6e6e6"/><circle cx="355" cy="86.7" r="7.7" fill="#e6e6e6"/><circle cx="394" cy="86.7" r="7.7" fill="#e6e6e6"/><circle cx="42.9" cy="126.2" r="7.7" fill="#e6e6e6"/><circle cx="81.9" cy="126.2" r="7.7" fill="#e6e6e6"/><circle cx="120.9" cy="126.2" r="7.7" fill="#e6e6e6"/><circle cx="160" cy="126.2" r="7.7" fill="#e6e6e6"/><circle cx="199" cy="126.2" r="7.7" fill="#e6e6e6"/><circle cx="238" cy="126.2" r="7.7" fill="#e6e6e6"/><circle cx="277" cy="126.2" r="7.7" fill="#e6e6e6"/><circle cx="316" cy="126.2" r="7.7" fill="#e6e6e6"/><circle cx="355" cy="126.2" r="7.7" fill="#e6e6e6"/><circle cx="394" cy="126.2" r="7.7" fill="#e6e6e6"/><circle cx="42.9" cy="165.7" r="7.7" fill="#e6e6e6"/><circle cx="81.9" cy="165.7" r="7.7" fill="#0d47a1"/><circle cx="120.9" cy="165.7" r="7.7" fill="#e6e6e6"/><circle cx="160" cy="165.7" r="7.7" fill="#e6e6e6"/><circle cx="199" cy="165.7" r="7.7" fill="#e6e6e6"/><circle cx="238" cy="165.7" r="7.7" fill="#e6e6e6"/><circle cx="277" cy="165.7" r="7.7" fill="#e6e6e6"/><circle cx="316" cy="165.7" r="7.7" fill="#e6e6e6"/><circle cx="355" cy="165.7" r="7.7" fill="#e6e6e6"/><circle cx="394" cy="165.7" r="7.7" fill="#e6e6e6"/><circle cx="42.9" cy="205.2" r="7.7" fill="#e6e6e6"/><circle cx="81.9" cy="205.2" r="7.7" fill="#e6e6e6"/><circle cx="120.9" cy="205.2" r="7.7" fill="#e6e6e6"/><circle cx="160" cy="205.2" r="7.7" fill="#e6e6e6"/><circle cx="199" cy="205.2" r="7.7" fill="#e6e6e6"/><circle cx="238" cy="205.2" r="7.7" fill="#e6e6e6"/><circle cx="277" cy="205.2" r="7.7" fill="#e6e6e6"/><circle cx="316" cy="205.2" r="7.7" fill="#e6e6e6"/><circle cx="355" cy="205.2" r="7.7" fill="#e6e6e6"/><circle cx="394" cy="205.2" r="7.7" fill="#e6e6e6"/><circle cx="42.9" cy="244.7" r="7.7" fill="#e6e6e6"/><circle cx="81.9" cy="244.7" r="7.7" fill="#e6e6e6"/><circle cx="120.9" cy="244.7" r="7.7" fill="#0d47a1"/><circle cx="160" cy="244.7" r="7.7" fill="#e6e6e6"/><circle cx="199" cy="244.7" r="7.7" fill="#e6e6e6"/><circle cx="238" cy="244.7" r="7.7" fill="#e6e6e6"/><circle cx="277" cy="244.7" r="7.7" fill="#e6e6e6"/><circle cx="316" cy="244.7" r="7.7" fill="#e6e6e6"/><circle cx="355" cy="244.7" r="7.7" fill="#e6e6e6"/><circle cx="394" cy="244.7" r="7.7" fill="#e6e6e6"/><circle cx="42.9" cy="284.2" r="7.7" fill="#e6e6e6"/><circle cx="81.9" cy="284.2" r="7.7" fill="#e6e6e6"/><circle cx="120.9" cy="284.2" r="7.7" fill="#e6e6e6"/><circle cx="160" cy="284.2" r="7.7" fill="#e6e6e6"/><circle cx="199" cy="284.2" r="7.7" fill="#e6e6e6"/><circle cx="238" cy="284.2" r="7.7" fill="#e6e6e6"/><circle cx="277" cy="284.2" r="7.7" fill="#e6e6e6"/><circle cx="316" cy="284.2" r="7.7" fill="#e6e6e6"/><circle cx="355" cy="284.2" r="7.7" fill="#e6e6e6"/><circle cx="394" cy="284.2" r="7.7" fill="#e6e6e6"/><circle cx="42.9" cy="323.7" r="7.7" fill="#e6e6e6"/><circle cx="81.9" cy="323.7" r="7.7" fill="#e6e6e6"/><circle cx="120.9" cy="323.7" r="7.7" fill="#e6e6e6"/><circle cx="160" cy="323.7" r="7.7" fill="#e6e6e6"/><circle cx="199" cy="323.7" r="7.7" fill="#e6e6e6"/><circle cx="238" cy="323.7" r="7.7" fill="#e6e6e6"/><circle cx="277" cy="323.7" r="7.7" fill="#e6e6e6"/><circle cx="316" cy="323.7" r="7.7" fill="#e6e6e6"/><circle cx="355" cy="323.7" r="7.7" fill="#e6e6e6"/><circle cx="394" cy="323.7" r="7.7" fill="#e6e6e6"/><circle cx="42.9" cy="363.2" r="7.7" fill="#e6e6e6"/><circle cx="81.9" cy="363.2" r="7.7" fill="#e6e6e6"/><circle cx="120.9" cy="363.2" r="7.7" fill="#e6e6e6"/><circle cx="160" cy="363.2" r="7.7" fill="#e6e6e6"/><circle cx="199" cy="363.2" r="7.7" fill="#e6e6e6"/><circle cx="238" cy="363.2" r="7.7" fill="#e6e6e6"/><circle cx="277" cy="363.2" r="7.7" fill="#e6e6e6"/><circle cx="316" cy="363.2" r="7.7" fill="#e6e6e6"/><circle cx="355" cy="363.2" r="7.7" fill="#e6e6e6"/><circle cx="394" cy="363.2" r="7.7" fill="#e6e6e6"/><path fill="#3f3d56" d="M320.4 305.9l91.4-160.3h-183l-91.6 158.6 91.6 158.6h183.1l91.4-158.3-183 1.4z"/><path fill="#0d47a1" d="M526 291l.2-.3-91.5-158.6h-.1L343 292.4l183-1.4z"/><path d="M658.5 138.6q-2.2-2.6-2.2-7.6t2.2-7.7a7.7 7.7 0 016.2-2.6 7.8 7.8 0 016.3 2.6q2.3 2.7 2.3 7.7t-2.3 7.6a7.8 7.8 0 01-6.3 2.6 7.7 7.7 0 01-6.2-2.6zm9-2.7a10.7 10.7 0 00.8-5 10.3 10.3 0 00-.9-4.8 2.9 2.9 0 00-2.7-1.6 2.8 2.8 0 00-2.6 1.6 10.5 10.5 0 00-.8 4.9 10.7 10.7 0 00.8 4.9 2.8 2.8 0 002.6 1.5 2.9 2.9 0 002.7-1.5zm-3 18.8l19.3-33.5h5.3l-19.5 33.5zm18-2.2q-2.3-2.7-2.3-7.7t2.2-7.6a8.8 8.8 0 0112.5 0q2.3 2.6 2.3 7.6t-2.3 7.7a8.8 8.8 0 01-12.5 0zm8.8-2.8a10.7 10.7 0 00.9-4.9 10.3 10.3 0 00-1-4.9 3 3 0 00-5.2 0 10.5 10.5 0 00-.8 5 10.7 10.7 0 00.8 4.8 3 3 0 005.3 0zM2.2 428Q0 425.4 0 420.4t2.2-7.7a7.7 7.7 0 016.2-2.6 7.8 7.8 0 016.3 2.6q2.3 2.7 2.3 7.7t-2.3 7.6a7.8 7.8 0 01-6.3 2.6 7.7 7.7 0 01-6.2-2.6zm9-2.7a10.7 10.7 0 00.8-5 10.3 10.3 0 00-.9-4.8 2.9 2.9 0 00-2.7-1.6 2.8 2.8 0 00-2.6 1.6 10.5 10.5 0 00-.8 4.9 10.7 10.7 0 00.8 4.9 2.8 2.8 0 002.6 1.5 2.9 2.9 0 002.7-1.5zm-3 18.8l19.3-33.5h5.2l-19.4 33.5zm18-2.2q-2.3-2.7-2.3-7.7t2.2-7.6a8.8 8.8 0 0112.5 0q2.3 2.6 2.3 7.6t-2.3 7.7a8.8 8.8 0 01-12.5 0zM35 439a10.7 10.7 0 00.9-4.9 10.3 10.3 0 00-1-4.9 3 3 0 00-5.2 0 10.5 10.5 0 00-.8 4.9 10.7 10.7 0 00.8 5 3 3 0 005.3 0z" fill="#3f3d56"/><path fill="#2f2e41" d="M439.3 234.9l-1.2-.4 25.9-97.2h150v1.2H464.8L439.3 235z"/><path d="M626.2 150.8a12.9 12.9 0 1112.8-12.9 12.9 12.9 0 01-12.8 12.9zm0-24.5a11.6 11.6 0 1011.6 11.6 11.7 11.7 0 00-11.6-11.6z" fill="#2f2e41"/><circle cx="626.2" cy="137.9" r="4.9" fill="#0d47a1"/><path fill="#2f2e41" d="M250 330.3l1.1.4-25.8 97.2h-150v-1.2h149l25.7-96.4z"/><path d="M63 414.4a12.9 12.9 0 11-12.8 12.9 12.9 12.9 0 0112.9-12.9zm0 24.5a11.6 11.6 0 10-11.6-11.6 11.7 11.7 0 0011.7 11.6z" fill="#2f2e41"/><circle cx="63.1" cy="427.3" r="4.9" fill="#0d47a1"/><path fill="#a0616a" d="M719.2 621.3h18.6v25.3h-18.6zM813.7 621.3h18.6v25.3h-18.6zM845.2 411.4a11 11 0 01-11-12.7l3.1-19.4 1-5.8h14l.8 8.2 3 16.8a11 11 0 01-11 13zM706.8 409.2a11 11 0 01-11-12.8L699 377l.9-5.8h14.1l.8 8.2 3 16.9a11 11 0 01-11 12.9z"/><path fill="#2f2e41" d="M834.5 626.5l-22.3-.8-36.5-220.2-36.5 221-21.5-.8-6-254.5h125l-2.2 255.3zM737.3 664.1c-19 .6-33.8-4.5-43.5-16.7a8 8 0 01-.6-9.1 8 8 0 017.8-3.9l6.2.8 12.8-6.5c-2.6 15.3 4.5 15.6 21.5 10.5l3.1 15.7a7.7 7.7 0 01-7.3 9.2zM831.8 664.1c-19 .6-33.8-4.5-43.5-16.7a8 8 0 01-.6-9.1 8 8 0 017.8-3.9l6.2.8 12.7-5.4c-2.6 15.2 4.6 14.5 21.7 9.4l3 15.7a7.7 7.7 0 01-7.3 9.2z"/><circle cx="768.3" cy="108.6" r="29.8" fill="#a0616a"/><path fill="#a0616a" d="M798 162.9l-32 1.5-1.5-33.5 27.6-10.4 6 42.4z"/><path d="M844.2 381.7c-43.7-8.3-93.4-11.3-126.5 0L728 162.9l35-10.4 2.6-4.1 29.4-4.9 14.1 4.5 9 13.4 38.6 21.6c-19 73.7-24.7 140.6-12.6 198.7z" fill="#2f2e41"/><path d="M865 380.2l-32-3.7c6.7-32.5 4-74.8 5.6-117.3 1-26.9 6.6-51.4 8.5-81.4 12.2 3.1 18.5 14.4 18.5 27.7.4 63 6.3 122-.6 174.7zM725.8 377.2l-31.2-2.2 18.6-105.7 6.3-88c-1-12.8 5.9-20.2 16-20.7 22.2 26.3 24.8 62.5 17.9 103.5zM778 130.4l-4-10.9A35.8 35.8 0 00745.8 96l-24-.6 6.6-10.7a32.6 32.6 0 0131-15.3l24 2.4a21.8 21.8 0 0119.5 23.7l-2.2 23.7a14.9 14.9 0 01-22.7 11.2z" fill="#2f2e41"/></svg>