<svg data-name="Layer 1" xmlns="http://www.w3.org/2000/svg" width="1155.4" height="796.5"><defs><linearGradient id="a" x1="880.1" y1="757.5" x2="880.1" y2="274.9" gradientUnits="userSpaceOnUse"><stop offset="0" stop-color="gray" stop-opacity=".3"/><stop offset=".5" stop-color="gray" stop-opacity=".1"/><stop offset="1" stop-color="gray" stop-opacity=".1"/></linearGradient></defs><path d="M356.8 40.2C396 5 457.5-2.3 513.5.6c176 8.8 334.8 94.5 472.1 191.6 49.7 35 98.7 73 131 121.3 65.7 98.4 46.2 234.8-45.1 316-31.1 27.5-68.8 48.7-107.5 67.4-68.8 33.4-143 60.1-221 67.8-55.8 5.4-112 1-167.5-6.6C421 736.9 269.1 690 141.8 610 86 574.8 33.4 531 10.4 474.2S2 345.4 59 311.7c23.6-14 51.7-20.2 79.3-26.1 40.6-8.7 81.9-17.3 118.5-35 37.9-18.2 82.7-53.4 75.2-93.8-8-43.3-14.5-81.4 24.7-116.6z" fill="#2874ca" opacity=".1"/><path d="M256.7 447.8s10.4-7.4 21.1-2.8c0 0-3 6.4-16.4 6.3zM255.4 448.2s-2.8 12.5 5.7 20.6c0 0 4.7-5.3-.7-17.6zM241.7 437s.4-10.6 24.2-8c0 0 .4 6.7-7.8 10.3s-12.1 1-16.4-2.4zM240.2 436.9s-9.9 3.6 0 25.5c0 0 6.5-1.8 7.3-10.7s-2.8-11.8-7.3-14.8zM226.3 422.5s-2-17.2 22.2-16.3c0 0 2.3 15.5-17.8 20.3zM209.5 403.7s2.6-19.7 27-14.8c0 0 .8 16.9-22.8 19.3zM197 384s4.9-19.3 29-14.5c0 0-5 17.4-27.2 18zM185.2 364.8s4.7-20 28-15c0 0-7 19.1-26.3 18.3zM177.4 346.4s3.2-24.4 25-19.8c0 0-5.5 22.2-23.3 23.2zM169.8 324s4-24.5 26.1-18.2c0 0-7.6 23.3-24.5 21.6zM164.8 303.2s7-24.6 24-24.6c0 0-7.2 26-22.4 29.5zM161.4 282.8s7.5-29.6 21.4-27.9c0 0-5.2 22.6-20.7 32.5zM159 258.4s7.1-24.7 20.7-26.2c0 0-4.6 24.2-20.2 32.5zM156.5 235.7s9.1-24.9 18-25.8c0 0-3.4 24.3-17 29.8zM154.5 214.5s5.2-26.8 14-29.4c0 0-.3 21.8-13 31.4zM150.1 186.9s5.7-21.5 12.8-25c0 0-.4 25-11 30zM146.6 168.7l-2.8-37.3s14.6 27.7 4 43.9zM134.7 132s-10.8-26.9-13.2-28.3c0 0 19.8 17 18.8 39.8zM225.6 422.4s-17.3-1.5-15.8 22.7c0 0 15.6 1.9 19.9-18.3zM208.7 403s-19.8.8-17.3 25.5c0 0 16.8 2.3 21.4-21zM197 385.6s-18.4-7.7-29 14.5c0 0 16.8 6.4 30.7-11zM184.8 365s-18.7-8.3-28.7 13.4c0 0 19.4 5.9 30.4-10.1zM177.6 346.9s-18.4-16.3-31.9 1.4c0 0 18.7 13.2 32.9 2.3z" fill="#2874ca"/><path d="M170.8 323.4s-18.5-16.6-31.9 2c0 0 20.6 13.5 32.6 1.6zM166.6 302.4s-14.5-21-30.5-15.6c0 0 15.1 22.3 30.6 20.7zM161.8 282.7S147 256 134 261.2c0 0 10.8 20.5 28.3 26zM159.9 257s-15-21-28.3-17.8c0 0 12.4 21.3 29.9 24zM158 235.1s-12-23.6-21-23.5c0 0 6.2 23.7 20.4 27.6zM155 214s-13.3-24-22.5-23.6c0 0 7.1 20.6 22.1 25.7zM152.1 188.2s-10-19.8-17.6-21.8c0 0 5.5 24.4 16.8 27.2z" fill="#2874ca"/><path d="M145.5 168l-21.7-30.4s6.4 30.6 24.9 36.3zM130.1 134.7s-24.4-15.5-25.4-18.1c0 0 13 22.5 35.7 25.7zM128.4 127.4s-28.4-25.3-35.3-25c0 0 22.6.2 36 23.5z" fill="#2874ca"/><path d="M152 192.2l-1 .2c-6.7-40-15-63.5-23.7-66.2l.3-1c9.1 2.8 17.6 26 24.4 67z" fill="#444053"/><path d="M163.3 288.1l-1.6.2-1.1-11.4c-2.7-33.2-6.1-63.7-10-86.6l.9-1c3.8 22.8 7.9 54.2 10.6 87.5.3 3.8.7 7.6 1.2 11.3z" fill="#444053"/><path d="M285.5 465.9c-.2-.1-27.2-11-55.8-38.1a218.6 218.6 0 01-41.8-54.7 255.3 255.3 0 01-26.5-87.8l1.6.7c8.5 69.2 42 115.4 68 140.3 28.3 26.9 55 37.6 55.2 37.7z" fill="#444053"/><g opacity=".7"><path d="M298.5 384.4s12.1-4 21 3.6c0 0-4.7 5.2-17.5 1.2zM297.2 384.5s-6.4 11-.7 21.3c0 0 6-3.7 4.6-17zM287.4 369.6s3.6-10 25.5-.4c0 0-1.6 6.6-10.5 7.5s-11.8-2.7-15-7.1zM286 369.1s-10.4.5-7.6 24.3c0 0 6.8.3 10.2-8s.8-12-2.5-16.3zM277 351.2s3.2-17 26-9c0 0-2.3 15.6-23 14.2zM266.6 328.2s8.3-18 30.2-6c0 0-4.3 16.3-27.6 11.6zM260.6 305.8s10.3-17 32-5.2c0 0-10 15-31.4 9zM255 283.9s10.4-17.7 31.2-6c0 0-12.3 16.2-30.6 9.7zM253 264s10.3-22.3 29.7-11.5c0 0-11.7 19.6-29.1 15.3zM252.4 240.4s11.2-22.2 30.4-9.7c0 0-14.3 20-29.8 13.4zM253.9 219s14-21.4 30.1-16.4c0 0-14.5 22.8-30 21.6zM256.7 198.6s16-26 28.7-20.3c0 0-11.6 20-29.4 24.8zM261.6 174.6s14.2-21.5 27.5-19c0 0-11.6 21.8-28.9 25.2zM266 152.1s16.1-21 25-19.2c0 0-10.6 22.1-25.2 23.3zM270.4 131.3s13-24 22.2-23.8c0 0-6.9 20.6-21.8 26zM274.4 103.6s11.8-18.7 19.7-20c0 0-8 23.7-19.4 25.4zM276.5 85.2l8.4-36.4s5.7 30.8-9.2 43zM276 46.7s-2.3-29-4.1-31c0 0 13.8 22 6 43.6zM276.4 351s-16-6.7-21.8 16.9c0 0 14.3 6.5 24.4-11.6zM266 327.4s-19.1-5.2-24 19.2c0 0 15.3 7.2 26.6-13.6zM260 307.3s-15.2-12.9-32 5.2c0 0 14.2 11.1 32.6-1.4zM254.6 284s-15.5-13.5-31.5 4.2c0 0 16.8 11.4 32-.6zM253 264.6s-12.7-21-30.8-8.2c0 0 13.9 18.2 30.7 12z" fill="#2874ca"/><path d="M253.5 240.1s-12.7-21.4-31-7.5c0 0 15.6 19 30.7 11.2zM255.8 218.9s-7.6-24.5-24.5-24c0 0 7.8 25.8 23 28.9zM257 198.6s-6.2-30-20-28.8c0 0 4.1 22.8 19.2 33.3zM262.9 173.5s-8.2-24.5-21.7-25.4c0 0 5.5 24 21.4 31.7zM267.5 152s-4.3-26-13-28.6c0 0-1 24.4 11.3 32.3zM271 131s-5.5-26.8-14.4-29.3c0 0 .6 21.8 13.4 31.2zM276 105.6s-3.7-22-10.4-26.1c0 0-2 25 8 31z" fill="#2874ca"/><path d="M275.6 84.2l-11.7-35.5s-3 31.2 13 42zM270.8 47.9s-18.7-22.1-18.8-25c0 0 5.7 25.5 26.3 35.3zM271.4 40.4S251.8 7.8 245 6c0 0 21.5 6.9 27.3 33.2z" fill="#2874ca"/><path d="M274.6 109.2l-1-.1c5.6-40.2 4.5-65.1-2.9-70.2l.6-.8c7.8 5.3 9 30 3.3 71.1z" fill="#444053"/><path d="M256.8 204.2l-1.5-.2 2.3-11.3c7.3-32.5 13.2-62.6 16.3-85.6l1.1-.8c-3.1 23-8.6 54.2-15.9 86.8a240 240 0 00-2.3 11.1z" fill="#444053"/><path d="M320.7 410.3c-.2-.2-22.7-18.5-42-53a218.5 218.5 0 01-23.7-64.7 255 255 0 01.9-91.7l1.3 1.2a231.7 231.7 0 0023.2 154.1c19 34.2 41.3 52.3 41.6 52.5z" fill="#444053"/></g><path d="M1014.4 754.1s-42.3-2.5-37.3 27c0 0-1 5.3 3.7 7.7 0 0 0-2.2 4.4-1.4a19.4 19.4 0 004.5.2 9.6 9.6 0 005.7-2.3s11.8-5 16.5-24.4c0 0 3.4-4.2 3.3-5.3l-7.2 3s2.5 5.1.5 9.4c0 0-.2-9.2-1.6-9l-3.7 1.8s4.2 9 1 15.5c0 0 1.2-11-2.3-14.9l-5 3s4.9 9.2 1.6 16.8c0 0 .8-11.6-2.7-16.1l-4.5 3.5s4.6 9.2 1.8 15.4c0 0-.4-13.5-2.8-14.5 0 0-4 3.5-4.6 5 0 0 3.2 6.6 1.2 10.1 0 0-1.2-9-2.2-9 0 0-4 6-4.4 10 0 0 .2-6 3.5-10.6a11.9 11.9 0 00-6.1 3.2s.6-4.2 7-4.6c0 0 3.3-4.5 4.1-4.8 0 0-6.4-.5-10.2 1.2 0 0 3.4-4 11.4-2.2l4.5-3.6s-8.4-1.2-12 0c0 0 4.1-3.4 13.2-.9l4.9-2.9s-7.2-1.5-11.5-1c0 0 4.6-2.4 13 .2l3.4-1.6-6.8-1.2c-1.6-.2-1.6-.6-1.6-.6a18.2 18.2 0 019.9 1.1s7.5-2.7 7.3-3.2z" fill="#2874ca"/><ellipse cx="985.2" cy="791.4" rx="29.9" ry="5.1" fill="#2874ca" opacity=".1"/><path d="M1095.5 676s-23.9-1.4-21 15.3a4 4 0 002 4.3s.1-1.2 2.5-.8a10.6 10.6 0 002.6.1 5.3 5.3 0 003.2-1.3s6.7-2.8 9.3-13.7c0 0 1.9-2.4 1.8-3l-4 1.7s1.4 2.9.3 5.3c0 0-.1-5.2-.9-5l-2 1s2.3 5 .5 8.7c0 0 .7-6.3-1.3-8.4l-2.9 1.6s2.8 5.3 1 9.5c0 0 .4-6.5-1.5-9l-2.6 2s2.6 5.1 1 8.6c0 0-.2-7.6-1.6-8.2a16 16 0 00-2.6 2.8s1.8 3.8.7 5.7c0 0-.7-5-1.2-5 0 0-2.3 3.3-2.5 5.6a12.2 12.2 0 012-6 6.7 6.7 0 00-3.5 1.8s.4-2.4 4-2.6c0 0 1.9-2.5 2.4-2.7 0 0-3.7-.3-5.8.7 0 0 1.9-2.3 6.4-1.3l2.6-2s-4.8-.7-6.8 0c0 0 2.3-2 7.4-.5l2.8-1.6a25.2 25.2 0 00-6.5-.6s2.6-1.4 7.3.1l2-.9-3.8-.6c-.8-.1-1-.4-1-.4a10.3 10.3 0 015.6.6s4.1-1.5 4-1.8z" fill="#2874ca"/><ellipse cx="1079" cy="697.1" rx="16.9" ry="2.9" fill="#2874ca" opacity=".1"/><path d="M954.8 690.5s-28.8-1.7-25.4 18.5a5 5 0 002.5 5.1s0-1.4 3-1a13.7 13.7 0 003.1.2 6.6 6.6 0 003.8-1.6s8.1-3.3 11.3-16.5c0 0 2.3-3 2.2-3.7l-4.8 2.1s1.6 3.5.3 6.4c0 0-.1-6.3-1-6.1-.3 0-2.6 1.2-2.6 1.2s2.8 6.1.7 10.5c0 0 .8-7.5-1.6-10l-3.4 2s3.3 6.2 1 11.4c0 0 .6-7.9-1.7-11l-3.1 2.4s3.1 6.2 1.2 10.5c0 0-.3-9.2-2-9.9 0 0-2.6 2.4-3 3.4 0 0 2.1 4.5.8 6.9 0 0-.8-6.2-1.5-6.2 0 0-2.7 4-3 6.8a14.8 14.8 0 012.3-7.2 8.1 8.1 0 00-4.1 2.2s.4-2.9 4.8-3.2c0 0 2.2-3 2.8-3.2 0 0-4.3-.4-7 .8 0 0 2.4-2.7 7.8-1.5l3-2.5s-5.6-.8-8 .1c0 0 2.7-2.4 9-.6l3.2-2s-4.8-1.1-7.8-.7c0 0 3.1-1.7 8.8.1l2.4-1-4.6-.8c-1 0-1.1-.4-1.1-.4a12.4 12.4 0 016.7.8s5-2 5-2.3z" fill="#2874ca"/><ellipse cx="934.9" cy="715.9" rx="20.4" ry="3.4" fill="#2874ca" opacity=".1"/><path d="M714 701l-100.2 38.8L467 796.5c-5.5-10.3-13.6-24.3-23.7-41-34.8-57.6-92.2-147-143.4-225.7-57.6-88.7-107.2-163.5-107.2-163.5l35.9-10.4 293.3-85z" opacity=".1"/><path d="M716 694l-100.2 38.8L469 789.5c-5.5-10.3-13.6-24.3-23.7-41-34.8-57.6-92.2-147-143.4-225.7-57.6-88.7-107.2-163.5-107.2-163.5l35.9-10.4 293.3-85z" fill="#fff"/><path d="M716 694l-100.2 38.8a754.4 754.4 0 01-170.4 15.7c-34.8-57.6-92.2-147-143.4-225.7l-71.3-174 293.3-85z" opacity=".1"/><path d="M790.7 669.9S634.9 762 402.2 741.2L216.7 289l88.9-15.2L612.9 221l174.3 440.1z" fill="#2874ca"/><path d="M787.2 661.1a737.8 737.8 0 01-121.8-3.4c-46.3-5.5-92.7-16.7-132.6-37.2a402.5 402.5 0 01-86.7-58.2C381.5 504.2 341.5 421 305.6 273.8L613 221z" opacity=".1"/><path d="M901.5 635.8s-114.9 22.6-231.7 8.7c-46.3-5.5-92.8-16.6-132.6-37.2a402.5 402.5 0 01-86.7-58.2c-80-72-122.2-182.2-165.7-405 0 0 191 46.2 379.7-54.8 0 0 63.6 397.3 237 546.5z" fill="#fff"/><path d="M669.8 644.5c-46.3-5.5-92.8-16.6-132.6-37.2a402.5 402.5 0 01-86.7-58.2c68.1-5.5 78-42.8 78-42.8 50.4 80.2 141.3 138.2 141.3 138.2z" opacity=".1"/><path d="M383.6 226s102.5 11.7 198.6-42.3l6.6 21.1s-92 45.8-205.2 45.8z" fill="#2874ca" opacity=".3"/><path d="M383.6 330.2s102-8.2 215.5-63l3.8 8.7s-41.8 52.6-219.4 66.3zM395.6 371s102-8.3 215.6-63.2l3.8 8.8s-41.8 52.6-219.4 66.4zM406.7 414.8s102-8.3 215.6-63.1l3.8 8.7s-41.9 52.7-219.4 66.4zM419.8 452.4s102-8.3 215.6-63.1l3.8 8.7s-41.8 52.6-219.4 66.4z" opacity=".3"/><path d="M432 493s102-8.2 215.5-63l3.8 8.8S609.5 491.4 432 505z" opacity=".1"/><path fill="#2874ca" opacity=".3" d="M616 249.4l28.4-9.7 9.7 28.5-28.5 9.7zM632.2 292l28.4-9.7 9.7 28.4-28.4 9.7zM658.2 373.6l28.5-9.7 9.7 28.5-28.5 9.7zM673.1 417.4l28.5-9.7 9.7 28.5-28.5 9.7zM645.4 336l28.5-9.7 9.7 28.5-28.5 9.7z"/><path d="M994.7 501.3l-1-1 5.3-.8s-9.5-34.2-25.4-45.7a75 75 0 01-19.2-23.1 349.7 349.7 0 00-28.5-41.8l-2.9-3.6-1.2-1.6c1.7-2.6 3.9-5 3.6-8.1a3.8 3.8 0 000-.6 5.6 5.6 0 00-.2-1c-1.4-3.8-6.6-5.6-10.5-7.7-9-5-12.8-16.2-14.8-26.5-1.5-8-2.7-17-9-22.1-4-3.3-9.4-4.4-13.4-7.7-3.8-3.1-6-7.9-8.4-12.2-4-7.3-9.3-14-16.2-18.3s-15.8-6-23.5-3.1c-3 1-5.6 2.8-8.5 4-7.2 3-15.4 2.6-22.6 5.8-8.7 3.9-14.5 12.5-19.7 20.7-2.7 4.2-7 10.4-9.3 16.7v-.7a23.8 23.8 0 00-1.9 8.7 13 13 0 00.4 3.7c1.1 4 4.3 6.2 8.1 7.8a33.9 33.9 0 001 3.7 37 37 0 0023.8 24.5c.4 0 .7.2 1 .3a8 8 0 001.2 2.2c3.2 4 9.6 2.8 13.8-.1l.5-.4a15 15 0 00.1 1.7l.3 1.5c3.7 20.2 13.3 31 13.3 31l2.4 3.6a44.6 44.6 0 0010.2 29.2c-5 3-16 8.7-22.8 8.2 0 0-24.8 3.2-27.7 1.6-.4-.2-.8 0-1.1.7-6.9-4.1-28.7-16.1-30.6-.7-1.7 14 18.2 15.8 27.7 15.8l-.6 7.4 40.8-2.8 21.2-3.1c-2.3 3.1-5 5.9-7.6 7.2 0 0-19.2 15.6-22.5 15.7-.5 0-.6.5-.6 1.2-8 0-33.2 1.2-26.2 15.2 6.3 12.7 24.2 4 32.2-1a235 235 0 003.5 6.7l33-23.5 7.1-6a25.4 25.4 0 007-1.4l.2.3a13.5 13.5 0 01.6 2.3c2 11.4-4.8 38.2-4.8 38.2s-14.7 37.7-7.6 42.9 1.8 26.8 1.8 26.8a40.1 40.1 0 004.3 5.9 17.9 17.9 0 002.5 2.4 23.1 23.1 0 00-.9 2.7 22.4 22.4 0 001.2 13.8c4.9 11.9 2 29 2 29l-9.7 64.8c-4.6-.7-10.5-1.3-12.7 0-3.4 1.9-2.3 11.5 5.6 15.6a20.3 20.3 0 01-8.1 3.8c-7 1.6-12 2.6-15.2 3.2-.2 0-16.8-3.7-21-1.2s-2.3 15.8 9.9 19.1c11.8 3.2 56 8 68.8 6l.8-.1c10.8-2.2 1.3-16.4.1-18.1l-.2-1.9-.4-5c12 1.1 24 1.7 29.4.8h.8c9.5-2 1.1-14.6 0-16V715.3l-.2-1v-.7l-.1-.7-.2-1.6v-.6-1.2-.7-1.8-.5-1.6-.7-1.6-.5-2.8l.2-1.5v-.8l.4-2.1v-.6l.3-1.6.2-.8.4-1.8.1-.5.6-2 .2-.8.6-1.5.2-.6a40 40 0 011.1-2.5l.8-1.6.4-.6c.3-.6.7-1.3 1.2-1.9 11-15.6 13.9-45.9 13.6-52.5s1.3-20.2 3.3-22.2a173.7 173.7 0 0015.7-24.2l5.4-2a46.4 46.4 0 01-1.6-13 39 39 0 0112-28.7 47.1 47.1 0 0016.5-32v-.9l-.1-1.4z" transform="translate(-22.3 -51.8)" fill="url(#a)"/><path d="M934.4 533.4a171.9 171.9 0 01-13 20c-1.9 2-3.4 15.4-3.1 22s-2.5 36.3-13 51.8-5.1 42.3-5.1 42.3l-16.8 5.9h-20.2l-13.8-4.2-3.7-10s4.9-.8 17-3.7a15.7 15.7 0 0012.5-14.3l8.6-59.4s2.5-15-1.7-25.4a20.7 20.7 0 011.4-18l.3-.5s13-10.4 26.5-16.8c11.8-5.8 23.8-8.5 27.3 1.7.4 1.3-1 4.6-3.2 8.6z" fill="#a5636d"/><path d="M934.4 533.4a171.9 171.9 0 01-13 20c-1.9 2-3.4 15.4-3.1 22s-2.5 36.3-13 51.8c-7.4 11-7 27.5-6 36.3l.8 6-16.7 5.9h-20.2l-13.8-4.2-3.7-10 4-.8c2.8-.5 7-1.5 13-2.9a15.7 15.7 0 0012.5-14.3l8.6-59.4s2.5-15-1.7-25.4a20.7 20.7 0 011.4-18l.3-.5s13-10.4 26.5-16.8c11.8-5.8 23.8-8.5 27.3 1.7.4 1.3-1 4.6-3.2 8.6z" opacity=".1"/><path d="M900.2 669.5l-16.8 5.9h-20.2l-13.8-4.2-3.7-10 4-.8a7.5 7.5 0 005.8 8.2l7.9.2 3.3.1a100.5 100.5 0 0032.6-5.4c.4 3.7.9 6 .9 6z" opacity=".1"/><path d="M863.4 670.5l-8-.2s-7.3-1.6-5.5-10c0 0-14.2-3.2-17.8-1s-1.9 13.9 8.4 16.7c10 2.8 47.4 7 58.2 5.3l.7-.1c9.8-2 0-16 0-16a100.9 100.9 0 01-36 5.3z" fill="#bebed0"/><path d="M912 535.7a186.3 186.3 0 01-16 25.1c-2.2 2.3-3.9 17.5-3.6 25s-2.8 41-14.7 58.5a56 56 0 00-7.3 31.1 100.2 100.2 0 00.6 10c.4 4 1 6.6 1 6.6l-19 6.6h-22.7l-15.7-4.6-4-11.5 4.4-.8a392 392 0 0014.7-3.2 17.8 17.8 0 0014.1-16.1l9.6-67.1s2.9-17-1.8-28.7a23 23 0 01-1.1-13.7 21.8 21.8 0 013-7.2s3.6-2.9 9.2-6.7l8.3-5.4c13.3-8.3 30.9-16.7 39.3-10.5a10.9 10.9 0 013.9 5.5c.3 1.2-.6 3.8-2.2 7.1z" fill="#a5636d"/><path d="M872 692l-19 6.6h-22.7l-15.7-4.6-4-11.4 4.4-.9a8.3 8.3 0 002.6 7.4 9 9 0 005.7 2.1l7.1.3h3.8a113.8 113.8 0 0036.8-6c.4 4 1 6.5 1 6.5z" opacity=".1"/><path d="M830.4 693.2l-7.1-.3a9 9 0 01-5.7-2.1c-1.8-1.6-3.4-4.4-2.3-9.1 0 0-16-3.7-20.2-1.3s-2 15.7 9.5 19c11.3 3.1 53.6 7.8 65.7 5.9l.8-.2c11-2.2 0-18 0-18a113.5 113.5 0 01-40.7 6z" fill="#bebed0"/><path d="M934.4 533.4c-6.8 2.4-17 5.6-22.4 5.7a10 10 0 01-1.7 0 197 197 0 00-26.8 1.3 876.4 876.4 0 00-20.8 2V539l8.3-5.4c13.3-8.2 30.9-16.7 39.3-10.5 11.9-5.7 23.9-8.5 27.3 1.7.4 1.3-1 4.6-3.2 8.6z" opacity=".1"/><path d="M967.3 454.6c-.2 5-2.1 18.2-15.7 31.5-17.4 17-10 41.3-10 41.3s-20.7 8.1-29.7 8.3a10 10 0 01-1.7 0c-5.3-.8-26.6 1.2-38.9 2.4l-8.7 1v-72l95.9-23.3 8.7 8.6a16 16 0 010 2.2z" fill="#5c5c8e"/><g opacity=".1"><path d="M864.2 538.2l-1.6.1v.8l8.8-1a616 616 0 0131-2.5 350 350 0 00-38.2 2.6zM967.2 452.4l-8.7-8.6-5.8 1.4 7.3 7.3a16 16 0 010 2.2c-.2 5-2 18.2-15.7 31.5-17.3 17-10 41.3-10 41.3s-17.1 6.7-27 8a24.7 24.7 0 012.9.2 10 10 0 001.7.1c9-.2 29.6-8.3 29.6-8.3s-7.4-24.4 10-41.3a47.4 47.4 0 0015.7-31.5 16 16 0 000-2.3z"/></g><path d="M775.6 403.7s-29-20.1-31.2-2 31.2 15.5 31.2 15.5z" fill="#a5636d"/><path d="M825.6 390.4s-15.7 10.4-24.4 9.7c0 0-23.7 3.2-26.5 1.6s-4.4 23-4.4 23l39-2.8 25-3.8s12.5-7.6 12.5-14.2-21.2-13.5-21.2-13.5z" fill="#f7cddd"/><path d="M825.6 390.4s-15.7 10.4-24.4 9.7c0 0-23.7 3.2-26.5 1.6s-4.4 23-4.4 23l39-2.8 25-3.8s12.5-7.6 12.5-14.2-21.2-13.5-21.2-13.5z" opacity=".1"/><path d="M802.6 442.7s-35.3-1.4-27.4 15 34.6-3.5 34.6-3.5z" fill="#a5636d"/><path d="M838 407.7s-28.5-21.3-24.5-47.4 24.5 20 24.5 20z" fill="#5c5c8e"/><path d="M830.1 289.6a36.2 36.2 0 01-10.1 25.1 34 34 0 01-5.2 4.5 37.3 37.3 0 01-12 5.5 37.7 37.7 0 01-5 .9 39 39 0 01-3.8.2 35.3 35.3 0 01-12-2 36.1 36.1 0 1148.1-34.1z" fill="#a5636d"/><path d="M967.3 454.6c-3.3.6-7.3 1.6-7.3 3.3 0 2.9-45.1 18.1-45.1 18.1s1.6 4-2.9 10.7-41.2 45.8-41.2 45.8l.1 1.1.5 4.5 2.2 21.5s-14-5.1-18.6-4.5c-1.5.2-3-.8-4.5-2.1a21.8 21.8 0 013-7.3s3.6-2.8 9.2-6.7v-72l95.9-23.2 8.7 8.6a16 16 0 010 2.2z" opacity=".1"/><path d="M971.3 450.6s-11.3 1.1-11.3 4-45.1 18-45.1 18 1.6 4-2.9 10.7-41.2 45.8-41.2 45.8l2.8 27s-14-5-18.6-4.4c-2 .2-4.3-1.6-6.1-3.8a39.3 39.3 0 01-4-5.8s5-21.5-1.8-26.6 7.4-42.3 7.4-42.3 6.4-26.5 4.5-37.9a13.6 13.6 0 00-.6-2.2v-.3c-4-10.8-47.4-102-47.4-102a65.5 65.5 0 01.5-7.7l.4-2.2a37.3 37.3 0 01.9-4 25 25 0 01.8-2.5c1.3-3.4 3.4-6 6.4-6.1 0 0 3.4-3.8 11.4-4.8 5.8-.8 14 0 25.3 4.8 26.6 11.2 32.8 11.8 32.8 11.8l13.3 17.5 2.8 3.6a345.9 345.9 0 0127.2 41.3c4.4 8 10.7 17.3 18.2 22.9 15.3 11.3 24.3 45.2 24.3 45.2z" fill="#f7cddd"/><path d="M872.4 385.3s37.7 9.3 52.3 32.8zM884 426.6s7.1 47.8 5.2 51.4-5.2-51.4-5.2-51.4zM881.5 451.2a368.7 368.7 0 00-14 31.3l3.3 46.6 2.8 27s-14-5-18.6-4.4c-2 .2-4.3-1.6-6.1-3.8 3-15.9 9.2-49 10.3-49.7 1.5-.9 9.1-27.6 9.5-35s11-24.1 11-24.1 4.5 8.5 1.8 12zM870.8 405.4c-.7 2.1-1.8 14.4-1.8 14.4-.8 10.8-9 14.4-14 15.5a13.6 13.6 0 00-.6-2.2C851 423.5 807 330.9 807 330.9a60.9 60.9 0 011.8-14c9.5-2.8 24.7 1.5 24.7 1.5 4.4-.5 18.7 28 18.7 28s9.6 21.7 10.6 24.7 0 7.8.4 9.5 5 3.2 5.6 5.5.2 7 .6 7.9 2.1 9.3 1.4 11.4z" opacity=".1"/><path d="M867.4 403.7c-.7 2.1-1.8 14.4-1.8 14.4a16 16 0 01-11.2 14.7 23.6 23.6 0 01-6.8 1.4l-6.8 5.9-31.5 23.1s-11.7-21.6-8.5-21.7 21.5-15.6 21.5-15.6c5.6-3 11.2-13 13.8-18.1a15.8 15.8 0 01-.3-1.9c-1.1-9.6-24.9-46.3-24.9-46.3s-9.1-10.8-12.7-30.8l-.3-1.4a14.3 14.3 0 01-.1-1.8c-.5-7.7 5.1-10.5 11.8-11.2a47.4 47.4 0 0110.4.3 75.3 75.3 0 0110.1 2c2.9-.4 9.9 11.5 14.5 19.8l4.2 8.1s9.6 21.8 10.6 24.8 0 7.8.4 9.5 5 3.2 5.5 5.5.3 7 .7 7.9 2.1 9.3 1.4 11.4z" fill="#f7cddd"/><path d="M903.9 354.9c-6 6-15.7 6.1-23.5 3s-14.3-8.8-21.6-13.2c-4.6-2.9-9.6-5.2-14.2-8.2l-2-1.3c-5.3-3.8-10-8.6-15.4-12a24 24 0 00-12.5-4 14.1 14.1 0 00-5.9 1.2 8 8 0 00-1 .5 25.5 25.5 0 00-5 3.8c-1.5 1.4-3 2.9-4.6 4.2l-.3-1.4a14.3 14.3 0 01-.2-2 39 39 0 01-3.8.3 35.3 35.3 0 01-11.9-2v-.5c-1.4-7.1-3.8-14.6-9.6-18.6-3.3-2.4-8.6-3.3-13.2-5a36.1 36.1 0 1168.1 3.9c5.8-.8 14.1 0 25.4 4.7 26.5 11.3 32.7 11.9 32.7 11.9l13.4 17.5c-1.5 2.2-3.1 4.4-3.2 7-.3 4.6 4.3 8 8.3 10.2z" opacity=".1"/><path d="M772.5 301.2c5.7 4 8.1 11.6 9.5 18.7.4 2.2.8 4.5 2.2 6.3 3 4 9.1 2.8 13.1 0s7.1-7.1 11.5-9.1c6-2.7 12.8-.7 18.3 2.7s10.2 8.3 15.5 12c5.1 3.6 10.9 6.2 16.2 9.5 7.2 4.4 13.8 10 21.6 13.2s17.5 3 23.5-3c-4-2.2-8.6-5.5-8.3-10.3s5.8-8.3 5.5-13.2-6.1-6.8-10.2-9.2c-8.6-5-12.3-16-14.2-26.1-1.4-8-2.6-16.8-8.5-22-3.8-3.2-9-4.3-12.9-7.5-3.6-3.1-5.6-7.8-8-12-3.8-7.3-8.8-14-15.5-18.2s-15-6-22.4-3c-2.8 1-5.3 2.8-8 4-7 3-14.8 2.5-21.6 5.6-8.4 3.9-13.9 12.4-18.9 20.5-4.2 7-12.6 19.1-10.2 28.1 2.4 9.2 15.5 8.7 21.8 13z" fill="#4c3e42"/><g opacity=".1"><path d="M901 327.5a6.3 6.3 0 00-.1-1.1c-1.5 2.4-3.4 4.7-3.6 7.5a6.8 6.8 0 00.2 2c1.6-2.8 3.8-5.3 3.6-8.4zM882.1 347.2c-7.8-3.1-14.4-8.8-21.6-13.2-5.3-3.3-11-5.9-16.2-9.5-5.3-3.8-10-8.6-15.5-12s-12.4-5.4-18.3-2.7c-4.4 2-7.5 6.2-11.5 9.1s-10 4-13.1 0c-1.4-1.8-1.8-4.1-2.2-6.3-1.4-7.1-3.8-14.7-9.5-18.7-6.3-4.3-19.4-3.8-21.8-13a14.2 14.2 0 01-.3-5 20 20 0 00-1.4 11.8c2.4 9.2 15.6 8.7 21.8 13 5.7 4 8.1 11.5 9.5 18.6.4 2.3.8 4.6 2.2 6.4 3 3.9 9.1 2.8 13.1 0s7.1-7.2 11.5-9.2c6-2.7 12.8-.7 18.4 2.7s10 8.3 15.4 12c5.1 3.7 10.9 6.2 16.2 9.5 7.3 4.4 13.8 10 21.6 13.2s17.5 3.1 23.5-3a28.7 28.7 0 01-4.4-2.9 25 25 0 01-17.4-.8z"/></g><path d="M705.1 415.6l80-29.9a7.6 7.6 0 019.8 4.5 7.6 7.6 0 01-4.5 9.7l-80 30-17.1-1.8z" fill="#5c5c8e"/><path d="M792.5 387.8a7.6 7.6 0 01-4.5 9.8l-80 29.8-12.9-1.2-1.8 2 17.1 1.7 80-30a7.6 7.6 0 004.5-9.7 7.6 7.6 0 00-3.1-3.8 8.3 8.3 0 01.7 1.4z" fill="#fff" opacity=".1"/><path fill="#efc8c4" d="M705.1 415.6l5.4 14.2-14.1-1.4-3.1-.3 4.2-4.4 7.6-8.1z"/><path d="M697.5 423.7a3 3 0 01.8.9 1.3 1.3 0 010 1.3 3.1 3.1 0 01-.8.6 2.5 2.5 0 00-1.1 2l-3-.4z" fill="#727a9c"/><path d="M635.3 261l-13.5-6.5a1.6 1.6 0 01-.7-2.2l1.4-3a1.6 1.6 0 012.2-.7l9 4.4 9.5-19.4a1.6 1.6 0 012.2-.8l3 1.5a1.6 1.6 0 01.7 2.1l-11.6 24a1.6 1.6 0 01-2.2.7zM664.8 345.2l-13.5-6.5a1.6 1.6 0 01-.8-2.2l1.4-3a1.6 1.6 0 012.2-.7l9.1 4.4 9.5-19.5a1.6 1.6 0 012.2-.7l3 1.4a1.6 1.6 0 01.7 2.2l-11.7 23.9a1.6 1.6 0 01-2.2.7zM651.5 303.8l-13.5-6.6a1.6 1.6 0 01-.7-2.2l1.4-3a1.6 1.6 0 012.2-.7l9 4.4 9.6-19.5a1.6 1.6 0 012.2-.7l2.9 1.4a1.6 1.6 0 01.8 2.2L653.6 303a1.6 1.6 0 01-2.2.8zM677.6 383.2l-13.5-6.5a1.6 1.6 0 01-.8-2.2l1.5-3a1.6 1.6 0 012.1-.7l9.1 4.4 9.5-19.4a1.6 1.6 0 012.2-.8l3 1.4a1.6 1.6 0 01.7 2.2l-11.6 23.9a1.6 1.6 0 01-2.2.7zM173.2 641.6s6 7.8-2.7 19.5-15.9 21.7-13 29c0 0 13.1-21.8 23.8-22s3.7-13.4-8-26.5z" fill="#3acc6c"/><path d="M173.2 641.6a9.6 9.6 0 011.2 2.4c10.4 12.3 16 23.7 6 24-9.3.3-20.5 17-23.2 21.2a7.7 7.7 0 00.3 1s13.1-21.8 23.8-22.1 3.7-13.4-8-26.5z" opacity=".1"/><path d="M184.3 651.5c0 2.7-.3 5-.7 5s-.7-2.2-.7-5 .4-1.4.8-1.4.6-1.3.6 1.4z" fill="#ffd037"/><path d="M188 654.8c-2.3 1.3-4.4 2-4.6 1.8s1.6-1.7 4-3 1.4-.4 1.6 0 1.5-.1-1 1.2z" fill="#ffd037"/><path d="M141.8 641.6s-6 7.8 2.7 19.5 16 21.7 13 29c0 0-13-21.8-23.7-22s-3.7-13.4 8-26.5z" fill="#3acc6c"/><path d="M141.8 641.6a9.8 9.8 0 00-1.2 2.4c-10.4 12.3-16 23.7-6 24 9.4.3 20.5 17 23.2 21.2a7.7 7.7 0 01-.3 1s-13.1-22-23.8-22.2-3.6-13.3 8.1-26.4z" opacity=".1"/><path d="M130.8 651.5c0 2.7.2 5 .6 5s.7-2.2.7-5-.4-1.4-.7-1.4-.7-1.3-.7 1.4z" fill="#ffd037"/><path d="M127 654.8c2.4 1.3 4.5 2 4.6 1.8s-1.6-1.7-4-3-1.4-.4-1.6 0-1.5-.1 1 1.2z" fill="#ffd037"/><ellipse cx="157.5" cy="740.1" rx="62.2" ry="9.5" fill="#2874ca" opacity=".1"/><path d="M189.5 679.6l-.3 2.4-.4 3.5-.2 1.4-.4 3.4-.2 1.5-.4 3.4-4.7 39c-.5 3.5-6.2 6.2-13 6.2H145c-6.8 0-12.5-2.7-13-6.2l-4.7-39-.4-3.4-.2-1.5-.4-3.4-.2-1.4-.4-3.5-.3-2.4c-.3-2 2.8-3.6 6.7-3.6h50.6c3.9 0 7 1.6 6.7 3.6z" fill="#65617d"/><path fill="#9d9cb5" d="M189.2 682l-.4 3.5h-62.6l-.4-3.5h63.4zM188.6 687l-.4 3.3h-61.4l-.4-3.4h62.2zM188 691.8l-.4 3.4h-60.2l-.4-3.4h61z"/></svg>