<svg data-name="Layer 1" xmlns="http://www.w3.org/2000/svg" width="1066.1" height="824.2"><path fill="#f2f2f2" d="M962.6 394.7l-16 71.4-12.8 58-10.3 46.2-12.9 58-42 189.2-521.7-241-38.3-17.7-48.6-22.5-38.3-17.7-46.1-21.3 26.1-38 21.8-31.7 27.5-40 21.7-31.7L517.4 0l259.1 229.8 46.2 41 36.8 32.6 46.2 40.9 56.9 50.4z"/><path d="M204.4 604.8c-35-19.4-56.6-46-64.6-78.9-5.9-24.4-4.2-51.9 5-81.7a218.9 218.9 0 0130.5-61.5c70.6-100 77-165.1 70-202.2-7.9-40.6-33.1-57.5-33.4-57.6l1.1-1.7c.3.2 26.2 17.4 34.2 58.9a172 172 0 01-6.5 81c-11 37-32.4 78.4-63.8 122.8a216.9 216.9 0 00-30.1 60.9c-15.2 48.9-17.3 116 58.5 158.3z" fill="#2f2e41"/><path d="M221.1 604.8c35-19.4 56.6-46 64.6-78.9 5.9-24.4 4.2-51.9-5-81.7a218.9 218.9 0 00-30.5-61.5c-70.6-100-77-165.1-70-202.2C188 140 213.4 123 213.7 123l-1.1-1.7c-.3.2-26.2 17.4-34.2 58.9a172 172 0 006.4 81c11 37 32.5 78.4 63.9 122.8a216.9 216.9 0 0130.1 60.9c15.2 48.9 17.3 116-58.5 158.3zM981.4 520.8c-35-19.4-56.6-46-64.6-78.9-5.9-24.4-4.2-51.9 5-81.7a218.9 218.9 0 0130.5-61.5c70.6-100 77-165.1 70-202.2C1014.3 56 989.1 39 988.8 39l1.1-1.7c.3.2 26.2 17.4 34.2 58.9a172 172 0 01-6.5 81c-11 37-32.4 78.4-63.8 122.8a216.9 216.9 0 00-30.1 60.9c-15.2 48.9-17.3 116 58.5 158.3z" fill="#2f2e41"/><path d="M998.1 520.8c35-19.4 56.6-46 64.6-78.9 5.9-24.4 4.2-51.9-5-81.7a218.9 218.9 0 00-30.5-61.5c-70.6-100-77-165.1-70-202.2C965 56 990.4 39 990.7 39l-1.1-1.7c-.3.2-26.2 17.4-34.2 58.9a172 172 0 006.4 81c11 37 32.5 78.4 63.9 122.8a216.9 216.9 0 0130.1 60.9c15.2 48.9 17.3 116-58.5 158.3zM467.8 300c-26.2-44.3-78-46.4-78-46.4s-50.6-6.5-83 61c-30.2 62.8-71.9 123.5-6.7 138.2l11.8-36.6 7.3 39.4a255 255 0 0027.9.5c69.8-2.3 136.3.6 134.1-24.4-2.8-33.3 11.8-89.1-13.4-131.8z" fill="#2f2e41"/><path d="M360.2 392.6c9 20 14.8 43.8 18.2 70.3l72.5-4.6a100.5 100.5 0 01-15.9-81.5z" fill="#ffb8b8"/><path d="M360.2 392.6c9 20 14.8 43.8 18.2 70.3l72.5-4.6a100.5 100.5 0 01-15.9-81.5z" opacity=".2"/><path d="M23.9 773s-37.6 20-18.5 37.2 44.2-22.7 44.2-22.7z" fill="#ffb8b8"/><path fill="#2f2e41" d="M482.6 714.3l-.6 27.5-1.2 59.3-.4 17.2h-240l9.8-54.1 8.7-48.5 4-21.7 197-27.2 22.7 47.5z"/><path d="M482.6 714.3l-.6 27.5c-69.7-1.8-177.8-18.6-223-26.1l3.8-21.8L460 666.8z" fill="#3f3d56"/><circle cx="395.4" cy="355.2" r="56.6" fill="#ffb8b8"/><path d="M504.1 745s6.8 61-34 56.6l-6.8-61.2-36.2-36.3-102-2.2-74.7 70.2s-2.3-72.5 6.8-79.3 29.4-22.6 29.4-22.6v-11.4l-61.2-124.6s36.3-74.7 65.7-77l38.6-2.3s13.6-6.8 13.6-9-2.3-20.4 9-15.9c0 0 1-23.2 13-16.1 0 0 37.6 29.4 75.7 1.2 0 0 17.8-3.2 15.5 5.8s0 15.9 4.6 15.9 24.9 6.8 24.9 11.3c0 1 1.5 10.4 3.8 24.5 8.4 51.5 28 165.8 28 165.8S538 668 504 745z" fill="#0d47a1"/><path d="M241.3 522.9l-15.9 11.3L80.4 720l-77 61.2s43-6.8 34 29.4l265-151.8z" fill="#0d47a1"/><path d="M489.8 472.6c-3 17.7-101.2 14-114.8 14s-25-2.2-38.5-11.3-6.8-20.4-6.8-20.4 11.5-8.8 11.5-11-2.2-20.4 9.1-16c0 0 1-23.2 13-16 0 0 39.6 31.4 77.7 3.2 0 0 17.8-3.2 15.5 5.8s0 15.9 4.6 15.9 24.9 6.8 24.9 11.3c0 1 1.5 10.4 3.8 24.5z" fill="#3f3d56"/><path d="M478 388s-18-38.4-36.2-20.3 20.4 45.3 20.4 45.3z" fill="#ffb8b8"/><path d="M478 379s-28 35.4-36.6 38.1c0 0 25.3 100.1 57 127.3l18.2 93s77-31.8 58.9-84l-.6-1.5a514 514 0 00-62-122.4z" fill="#0d47a1"/><path opacity=".2" d="M463.1 484l55.7 153.3-20.4-92.9-35.3-60.5z"/><path fill="#2f2e41" d="M456.2 295.7L405 268.8l-70.7 11-14.7 64.7 36.5-1.4 10.1-23.8v23.4l16.9-.7 9.7-37.8 6.1 40.3 59.8-1.3-2.5-47.5z"/><path d="M940.1 644.3l29 103.7s-5.9 91.8 22 73.9c28.6-18.4 18-95.8 18-95.8l-16.7-93z" fill="#a0616a"/><path d="M955.7 353.5l24 24V492s14 21.1 11.3 26.8-5.7 5.6-2.9 9.9 5.7 7 2.9 9.9-2.9 9.8 0 12.7 8.4 7 4.2 11.3-9.9 1.4-4.2 16.9 15.5 19.8 12.7 25.4-2.9 19.8-2.9 19.8l-60.7 8.4-12.7-159.5z" fill="#d0cde1"/><path fill="#3f3d56" d="M1003.7 623.2L933 626l2.8 29.6 62.1-11.3 5.7-21.1z"/><path fill="#a0616a" d="M809.5 206l-8.4 84.7 86 12.7 6.4-48.7L900 206h-90.4z"/><path opacity=".1" d="M809.5 205.5l-8.4 84.7 86 12.7 6.4-48.7 6.4-48.7h-90.4z"/><path d="M622.5 609l48 103.1s8.5 48 21.2 49.4 25.4-49.4 25.4-49.4l-17-26.8-19.7-76.3z" fill="#a0616a"/><path d="M951 819.3H679.8l3.5-55 3.6-5.6 17.5-27.5 12.4-19.6 4.4-6.8 1.6-2.6 17.1-3.1 176.3-32.2a215.4 215.4 0 0012.4 38.1c1.2 2.8 2.4 5.5 3.8 8.2a84.1 84.1 0 0016.3 22.9c1.5 1.4 2.5 5 3.2 10.7 1.7 13.8 1.2 39.4-.7 72.5z" fill="#2f2e41"/><circle cx="856.8" cy="165.8" r="67.8" fill="#a0616a"/><path d="M705.8 304.1l-10-5.6s-43.7 29.6-57.8 96-24 83.2-24 83.2-14.1 2.9-4.2 12.8 9.9 8.4 1.4 14-14.1-5.6-8.5 5.7 12.7 8.5 7 15.5-15.5 7.1-9.8 12.8-5.7 18.3 1.4 24 9.9 7 9.9 16.9a50 50 0 002.8 17h73.4s-14-26.9-9.9-32.5 5.7-11.3 2.9-14.2-11.3 2.9-2.9-4.2 11.3-2.8 8.5-11.3-8.5-4.2-2.8-8.5 9.9-2.8 7-7-8.4-4.2-2.8-7 10 0 8.5-7.1-2.8-4.3 0-7 32.5-99 32.5-101.7-22.6-91.8-22.6-91.8z" fill="#d0cde1"/><path fill="#3f3d56" d="M691.7 590.7l-89 5.6 22.6 21.2 62.1 1.4 4.3-28.2zM717 696.6l-18.3 33.9s55 7 74.8 14 70.6 17 70.6 17l12.7-49.4zM878 712.1l15.5 46.6 62.2-12.7-7.1-43.8-70.6 9.9z"/><path d="M903.4 256.1s-4.2-2.8-14 2.8-42.4 8.5-58-8.4-26.8-31.1-31-28.3-7 35.3-7 35.3l-14.2 11.3-83.3 29.7 7 190.5 12.8 43.8s-10 33.9 2.8 53.7-7 26.8-7 26.8-4.3 5.6-1.5 19.7-2.8 66.4-2.8 66.4 120 53.6 245.6 7l-14-53.6-7.1-120s7-19.8 5.6-28.2 42.4-127 42.4-127-7.1-59.4-43.8-72-42.4-25.5-42.4-25.5 17-18.3 10-24z" fill="#d0cde1"/><path d="M788.6 174.4s-7-10.5-4.3-21.9a66.4 66.4 0 001.9-19.7s5.6-18.5 11.3-28.7 3-14.7 20.9-17.9 10.5-26.5 57.6-1.4a13.8 13.8 0 0014.4 5.5c9.7-2 13.2 11.6 13.2 11.6s6.5-3.8 9 1.6 19.8-3.2 19.8 33.3-19.8 69.2-19.8 69.2 1.4-61.5-30.8-67.7-66.8-24.4-75.2-1-18 37.1-18 37.1z" fill="#2f2e41"/><ellipse cx="913.3" cy="180.6" rx="6.4" ry="8.5" fill="#a0616a"/></svg>