<svg data-name="Layer 1" xmlns="http://www.w3.org/2000/svg" width="1100" height="673.6"><path d="M516.4 673l-1.4-1.4c.3-.3 27.5-27 38-77 9.5-46 6.3-122-63.7-221.7-29.2-41.7-49.2-81-59.2-117-8.3-29.5-10-56.8-5.2-81.3 9.5-48.5 41.7-69.8 42-70l1.1 1.7c-.3.2-31.9 21.1-41.2 68.7-10.6 54.7 11 120.9 64.2 196.8 31 44.3 51.7 87.7 61.5 129 7.7 33 8.6 64.8 2.4 94.4-10.6 50.5-38.3 77.5-38.5 77.8z" fill="#f2f2f2"/><circle cx="449.2" cy="138.8" r="77.4" fill="#f2f2f2"/><path d="M467.5 211A105.5 105.5 0 11573 105.5 105.6 105.6 0 01467.5 211zm0-209A103.5 103.5 0 10571 105.5 103.6 103.6 0 00467.5 2z" fill="#f2f2f2"/><circle cx="526.6" cy="314.4" r="64.2" fill="#f2f2f2"/><circle cx="493.9" cy="537.2" r="64.2" fill="#f2f2f2"/><path fill="#2874ca" d="M528.4 114h235v153h-235z"/><path d="M1077 673H859.3s-4.4-64.7 21.7-65.4 23.2 28.6 56-11.8 72.3-38.2 77.5-14.3-10 43 17.6 37 67.3 9.6 44.9 54.5z" fill="#f2f2f2"/><path d="M964.5 673h-.7c1.7-42.6 10.6-70 17.8-85.4a77.6 77.6 0 0115.4-23.7l.4.6s-7.5 6.7-15.2 23.4c-7.1 15.4-16 42.7-17.7 85.1zM1043.3 673.1l-.8-.2a114 114 0 0128.8-47.8l.5.6a113.3 113.3 0 00-28.5 47.4zM893.6 673h-.7a80 80 0 00-7.2-46.9 64.4 64.4 0 00-11.4-16.5l.5-.6a65.3 65.3 0 0111.5 16.8 80.8 80.8 0 017.3 47.3z" fill="#fff"/><path d="M85.5 672.8l-.5-1c-.1-.4-15.2-31.8-6.8-62.8 8.4-31 37.2-50.5 37.5-50.7l1-.7.5 1c.1.4 15.2 31.8 6.8 62.8-8.4 31-37.2 50.6-37.5 50.8zM116 560.6c-5 3.7-28.4 21.9-35.7 49-7.4 27 3.6 54.5 6.1 60.2 5-3.7 28.4-21.9 35.8-49 7.3-27-3.7-54.5-6.2-60.2z" fill="#3f3d56"/><path d="M46.8 621.1c8.4 31 37 50.2 37 50.2s15.2-31 6.8-62-37-50.2-37-50.2-15.2 31-6.8 62z" fill="#2874ca"/><path d="M86 672.4l-1.2-.1c-.3 0-35-2.2-58-24.6-23-22.4-26.2-57-26.2-57.4v-1.1h1c.4 0 35.2 2.2 58.2 24.6 23 22.4 26 57 26.1 57.4zm-83.3-81c.8 6.1 5.3 35.4 25.4 55 20.1 19.5 49.5 23.2 55.7 23.8-.8-6.2-5.3-35.4-25.4-55-20.1-19.6-49.5-23.3-55.7-23.9z" fill="#3f3d56"/><path d="M110.7 614.5c-23 22.4-25.8 56.8-25.8 56.8s34.5-1.9 57.5-24.3 25.8-56.8 25.8-56.8-34.5 1.9-57.5 24.3zM297.7 420.5c-23 22.4-25.8 56.8-25.8 56.8s34.5-1.9 57.5-24.3 25.8-56.8 25.8-56.8-34.5 1.9-57.5 24.3z" fill="#3f3d56"/><circle cx="84.4" cy="539" r="15" fill="#2874ca"/><path d="M266.4 672l-1.4-1.4c.2-.2 21.9-21.4 30.1-61 7.6-36.6 5-96.8-50.5-176-42.6-60.8-59.8-113.8-51.2-157.7a89 89 0 0133.5-55.7l1 1.6a87 87 0 00-32.6 54.5c-8.4 43.4 8.7 95.9 51 156.1 24.6 35.3 41.1 69.8 48.8 102.6 6.2 26.3 6.9 51.5 2 75.1a127.8 127.8 0 01-30.7 62z" fill="#3f3d56"/><ellipse cx="256.4" cy="239.1" rx="180" ry="30.9" fill="#2874ca"/><path d="M223 261C98.1 261 .3 243.9.3 222s97.8-39 222.5-39 222.5 17.1 222.5 39-97.7 39-222.5 39zm0-76C103.3 185 2.3 202 2.3 222s101 37 220.5 37 220.5-17 220.5-37-101-37-220.5-37z" fill="#3f3d56"/><path d="M273.5 70.4s-26.7-7.5-34.6 29-1.9 54.8-1.9 54.8l59.6-7s16.9-65.7-23.1-76.8z" fill="#2f2e41"/><path d="M233.6 228.3s-39.2 3.9-32.2 19.7 7 17.2 7 17.2l34.4 61.3 11.1-11.6s-12.5-27.4-12.5-36.3-13-24.1-13-24.1l22.7-1.9zM340.8 247l13 28.4s9.8 9.7 20.4 48.8 13 37.6 13 37.6L371 365s-18.1-42.2-24.2-45.5-13.4-33-13.4-33l-21.4-27 6.5-14.3z" fill="#a0616a"/><path d="M325 214.5l20 37.2s-25.1-11.6-28.8 14L293.4 248s-31.6 10.2-50.6 6.5c0 0 5.5-17.7-14.4-25.6l45-5.6-1.8-9.7 4.6-9.3zM245.6 318.1s-12.6-1.8-9.3 9.3l6.5 22.3s-8.4 22.8 4.6 17.7 21.4-36.7 21.4-36.7 5.6-24.2 0-24.2-23.2-3.7-21.4 0-1.8 11.6-1.8 11.6zM385.9 355.3s-16.3-4.2-20 2.3-2.8 27.9-2.8 28.4 5.6 5 7.4 5 13.5 21 29.3 13.5-14-49.2-14-49.2z" fill="#2f2e41"/><circle cx="268.8" cy="109.1" r="18.1" fill="#a0616a"/><path d="M283.6 112.8s3.8 19.5 7 22.3-24.6 7-24.6 7 4.2-13.5-1-20.5 18.6-8.8 18.6-8.8z" fill="#a0616a"/><path d="M332.4 223.3c-3.1 0-11.2-1.3-20.2-3a1203.4 1203.4 0 01-35.5-7.2s-1.9 11.6-8 10.2c-5.1-1.1-20.7-55.5-24.9-70.5a5.2 5.2 0 012.3-5.8l21.4-13 5.5 2s9.2-7.1 14.6-7.3 14.6-1.5 14.6-1.5 10.7 1 12.6 8.8 2.8 57.2 9.7 66 16.8 21.3 8 21.3z" fill="#d0cde1"/><path d="M267.4 249.4s0 18 12 15.3 1-19.5 1-19.5z" fill="#a0616a"/><path d="M300.8 251.2s-4.1 21.4-13 18.1 0-22.3 0-22.3z" fill="#a0616a"/><path d="M320.4 200.6l-8.2 19.8-23.1-4.6a13.3 13.3 0 012-3.6c3.2-3.7 1.4-4.6 1.4-4.6-2.8-5.6-.5-13-.5-13-5.6-15 2.8-33.5 2.8-33.5z" opacity=".1"/><path d="M296.2 161s-8.4 18.7-2.8 33.5c0 0-2.3 7.5.5 13 0 0 1.8 1-1.4 4.7s-6 16.7-3.7 19.5-3.3 8-1.9 10.7-2.3 6.5-2.3 6.5 14 2.8 16.2 7c0 0 2.8-3.3 1.4-7s-.4-5.1 1-7.4 5.5-7.5 6-9.8 12.5-31.1 12.5-31.1l-5.6-52.5z" fill="#d0cde1"/><path d="M247.9 148l-.9.2a5.2 5.2 0 00-4.3 5.2 268.2 268.2 0 0011.2 73.7 148.3 148.3 0 007.4 14.4c4.2 7 5.2 4.6 4.2 7.9a4.9 4.9 0 001.4 5s8.4-9.2 16.7-4.1a10.4 10.4 0 001-4.2c0-2.3 1.4-4.6-1-6s1.4-7.5-2.3-10.7-4.2-2.8-3.7-6a13.8 13.8 0 00-1-6.6z" fill="#d0cde1"/><path d="M275.6 85.8s-7.6 19.9-26 28.2l-3-17.7z" fill="#2f2e41"/><ellipse cx="286.4" cy="102.1" rx="2.6" ry="4.9" fill="#a0616a"/><circle cx="811.8" cy="326.4" r="32.5" fill="#2f2e41"/><circle cx="807.5" cy="283.8" r="10.8" fill="#2f2e41"/><path d="M795.3 290.5a10.8 10.8 0 011-14.5l-1 .7a10.8 10.8 0 1013.5 16.8l.8-.7a10.8 10.8 0 01-14.3-2.3z" fill="#2f2e41"/><path d="M758.7 443.8l-18.8 15.9s-28.2 8.6-14.5 18 21.7-11.5 21.7-11.5l23.1-14.5z" fill="#ffb9b9"/><path d="M799.1 374.4L797 373s-8.6 0-10 8.6-5.8 26.8-5.8 26.8-14.5 8.6-13 24.5l-15.2 13s18 5.8 14.4 10.9l26.8-24.6.7-47z" fill="#2f2e41"/><circle cx="807.8" cy="339" r="18.8" fill="#ffb9b9"/><path d="M802 352s11.6 13 4.3 20.2S797 415 797 415l31.8-48.4s-8.6-17.4-8-23.2z" fill="#ffb9b9"/><path d="M799.8 402.6s17.4-38 26.8-40.7l24.5 6s-19.5 67.2-17.3 73.7 14.4 15.9 10.1 73c0 0 55.6 101.8 42 119.2S820.7 664 820 659s-23.9-83.1-20.3-107c0 0 0 103.4-4.3 105.5s-73.7 18-71.5 5.8S760.8 516 760.8 516l26.8-83.8.7-12.3s-11.6-8-3-26 11.6-21 11.6-21l10.5-1.9s-9.7 26.5-7.6 31.6z" fill="#2f2e41"/><path d="M838.8 456.8l-8.6 18.8s-22.4 23.8-6.5 24.5 17.3-21.7 17.3-21.7l11.6-21.6z" fill="#ffb9b9"/><path d="M841.7 368.6h9.4s3-4.3 5.8 13.8 1.5 45.5 1.5 45.5L854 464s-15.2-5.8-18.8-4.3 0-.8 0-.8l6.5-24.5-8-35.4zM805.9 311.3c-12.3 3.3-20.7 11.9-18.7 19 .9 3.2 3.7 5.6 7.6 7l3.4-4.3.2 5.2 1.6.2 4.4-9.2 2.5 9.2a38.6 38.6 0 006-1.2c12.3-3.3 20.7-11.8 18.7-19s-13.4-10.2-25.7-6.9z" fill="#2f2e41"/><ellipse cx="826.9" cy="335" rx="2.2" ry="3.6" fill="#ffb9b9"/><ellipse cx="753.4" cy="665.5" rx="17" ry="7.5" fill="#2f2e41"/><ellipse cx="906" cy="773.6" rx="22.8" ry="10" transform="rotate(-21.5 575.4 885.3)" fill="#2f2e41"/><path d="M730.9 468.3a64 64 0 01-41.2-37.6c-13-34.2 2.2-82.4 44.9-143.3 52.1-74.3 55-99.3 48.2-107.2-8.6-10-35.7 3.6-36 3.7l-.8-1.8c1.1-.6 28.7-14.3 38.3-3.2 10.6 12.2-5.6 49.1-48 109.7-23.2 33-38.3 62.6-45 88-5.4 20.6-5.3 38.5.2 53.3a62 62 0 0039.9 36.4z" fill="#3f3d56"/><path d="M747.4 243h-251V79h251zm-249-2h247V81h-247z" fill="#3f3d56"/><circle cx="601" cy="172.2" r="10.5" fill="#3f3d56"/><circle cx="690.9" cy="172.2" r="10.5" fill="#3f3d56"/><path d="M690.9 215.2c0 3-20.3 12.1-45.4 12.1s-45.4-9-45.4-12.1 20.4.8 45.4.8 45.4-4 45.4-.8zM0 671.6h1100v2H0z" fill="#3f3d56"/></svg>